<svg width="18" height="12" viewBox="0 0 18 12" fill="none" xmlns="http://www.w3.org/2000/svg">
<path fill-rule="evenodd" clip-rule="evenodd" d="M0 5.99998C0 5.63179 0.29702 5.33332 0.663412 5.33332H16.5859C16.9523 5.33332 17.2493 5.63179 17.2493 5.99998C17.2493 6.36817 16.9523 6.66665 16.5859 6.66665H0.663412C0.29702 6.66665 0 6.36817 0 5.99998Z" fill="white"/>
<path fill-rule="evenodd" clip-rule="evenodd" d="M12.6224 0.154543C12.9039 -0.0811706 13.3222 -0.0429626 13.5568 0.239883L17.7437 5.28867C18.0854 5.70073 18.0854 6.29927 17.7437 6.71133L13.5568 11.7601C13.3222 12.043 12.9039 12.0812 12.6224 11.8455C12.3409 11.6097 12.3029 11.1894 12.5375 10.9065L16.6065 6L12.5375 1.09348C12.3029 0.810634 12.3409 0.390258 12.6224 0.154543Z" fill="white"/>
</svg>
