<svg width="18" height="23" viewBox="0 0 18 23" fill="none" xmlns="http://www.w3.org/2000/svg">
<path d="M13.357 5.46633L16.368 4.26125L15.625 2.40432L12.508 3.65224L13.797 1.93325C14.051 1.59425 14.065 1.13329 13.831 0.780293C13.597 0.428293 13.167 0.260301 12.756 0.363301L8.99799 1.29921L5.23999 0.363301C4.82899 0.260301 4.39898 0.428293 4.16498 0.780293C3.93098 1.13329 3.94497 1.59425 4.19897 1.93325L5.48798 3.65224L2.37097 2.40432L1.62799 4.26125L4.63898 5.46633C1.87598 7.00433 0 9.95227 0 13.3333C0 18.2953 4.038 22.3333 9 22.3333C13.962 22.3333 18 18.2953 18 13.3333C17.996 9.95227 16.12 7.00333 13.357 5.46633ZM11.996 11.3333H8.49597C8.21997 11.3333 7.99597 11.5573 7.99597 11.8333C7.99597 12.1083 8.21997 12.3333 8.49597 12.3333H9.49597C10.874 12.3333 11.996 13.4543 11.996 14.8333C11.996 16.0403 11.136 17.0502 9.99597 17.2822V18.3333H7.99597V17.3333H5.99597V15.3333H9.49597C9.77197 15.3333 9.99597 15.1083 9.99597 14.8333C9.99597 14.5573 9.77197 14.3333 9.49597 14.3333H8.49597C7.11797 14.3333 5.99597 13.2113 5.99597 11.8333C5.99597 10.6253 6.85597 9.6163 7.99597 9.3843V8.33327H9.99597V9.33327H11.996V11.3333Z" fill="#9DD53A"/>
</svg>
