<svg width="26" height="26" viewBox="0 0 26 26" fill="none" xmlns="http://www.w3.org/2000/svg">
<path fill-rule="evenodd" clip-rule="evenodd" d="M13.6925 25.875C13.1686 25.875 12.6446 25.875 12.1207 25.875C12.0496 25.8606 11.9791 25.8387 11.9074 25.8329C9.48899 25.6386 7.27946 24.8481 5.37197 23.3571C1.62735 20.4303 -0.0695681 16.57 0.436834 11.8376C0.820074 8.25673 2.54494 5.36953 5.43331 3.23098C9.50831 0.214017 14.8226 -0.0905989 19.1861 2.4502C22.5482 4.40784 24.5803 7.34623 25.2921 11.1771C25.3754 11.6252 25.4193 12.0806 25.4814 12.5327C25.4814 13.0559 25.4814 13.5791 25.4814 14.1024C25.4674 14.1655 25.4457 14.228 25.4408 14.2919C25.2746 16.4537 24.6041 18.4484 23.3889 20.2426C21.3851 23.2009 18.6193 25.0239 15.0966 25.6802C14.6325 25.7667 14.1607 25.8111 13.6925 25.875ZM12.8035 21.9066C12.8035 21.9061 12.8035 21.9055 12.8035 21.9051C12.9837 21.9051 13.1637 21.9051 13.3438 21.905C13.3602 21.905 13.3765 21.9046 13.3929 21.904C13.7341 21.8895 13.888 21.7501 13.903 21.4094C13.9188 21.0503 13.9199 20.6904 13.9183 20.3308C13.9162 19.8859 14.0218 19.7351 14.4499 19.6023C14.52 19.5805 14.5914 19.5622 14.6611 19.5388C16.3159 18.9848 17.4356 17.4751 17.3635 15.8202C17.2965 14.2828 16.5197 13.1663 15.1693 12.461C14.548 12.1365 13.881 11.9 13.2499 11.5927C12.8192 11.383 12.377 11.1665 12.007 10.8698C11.3943 10.3782 11.5132 9.54186 12.2246 9.20726C12.4826 9.08592 12.7873 9.03023 13.0751 9.01078C14.0087 8.9477 14.893 9.15498 15.7364 9.55686C16.0869 9.72386 16.227 9.6652 16.3485 9.30073C16.4928 8.86741 16.6158 8.42697 16.7427 7.98802C16.8912 7.47381 16.8297 7.30328 16.3152 7.13277C15.7282 6.93816 15.1242 6.79191 14.5221 6.64741C14.1272 6.55269 14.0457 6.48041 14.0348 6.07551C14.0268 5.7815 14.0307 5.48635 14.0043 5.1939C13.9738 4.85647 13.8587 4.75149 13.5164 4.7388C13.1485 4.72515 12.7797 4.72536 12.4116 4.73159C11.9852 4.73875 11.8841 4.84412 11.8729 5.27856C11.8647 5.59721 11.8596 5.91623 11.8647 6.23489C11.8696 6.54369 11.7437 6.74093 11.4409 6.83955C11.1852 6.92285 10.9345 7.0263 10.6907 7.14029C8.93085 7.96319 8.0968 9.94194 8.78104 11.6715C9.12323 12.5361 9.77096 13.1355 10.5692 13.552C11.3133 13.9401 12.1066 14.233 12.8645 14.5963C13.2295 14.7712 13.6036 14.9661 13.9021 15.2321C14.569 15.8263 14.4193 16.7784 13.6261 17.1899C13.1487 17.4376 12.6345 17.515 12.1017 17.4628C11.2053 17.3751 10.3544 17.1316 9.55009 16.7216C9.16982 16.5277 9.04689 16.5805 8.91413 16.9804C8.79856 17.3288 8.69672 17.6818 8.5967 18.0351C8.34858 18.9111 8.38542 19.0413 9.2505 19.3426C9.91025 19.5725 10.6043 19.7049 11.285 19.8731C11.6243 19.957 11.675 20.0029 11.6856 20.3492C11.6964 20.7086 11.6881 21.069 11.71 21.4276C11.7301 21.7539 11.8901 21.8949 12.2142 21.9054C12.4104 21.9117 12.6071 21.9066 12.8035 21.9066Z" fill="#77C21C"/>
</svg>
