<svg width="112" height="106" viewBox="0 0 112 106" fill="none" xmlns="http://www.w3.org/2000/svg">
<path d="M32.0259 26.0932L0 24.3114C0 24.3114 3.23803 51.6574 14.3428 56.3496C25.4475 61.0418 39.8312 67.0734 39.8312 67.0734L32.0259 26.0932Z" fill="url(#paint0_linear_104_4797)"/>
<path d="M37.7483 28.1413L0.905273 25.9027C0.905273 25.9027 3.82175 49.9943 13.7877 55.0367C23.6063 60.0033 39.6326 65.695 39.6326 65.695L37.7483 28.1413Z" fill="url(#paint1_linear_104_4797)"/>
<path d="M79.1256 25.1287L111.151 23.3469C111.151 23.3469 107.913 50.6929 96.8087 55.3851C85.704 60.0772 71.3203 66.1089 71.3203 66.1089L79.1256 25.1287Z" fill="url(#paint2_linear_104_4797)"/>
<path d="M73.4028 27.1768L110.246 24.9382C110.246 24.9382 107.329 49.0299 97.3634 54.0723C87.5448 59.0389 71.5186 64.7305 71.5186 64.7305L73.4028 27.1768Z" fill="url(#paint3_linear_104_4797)"/>
<path d="M35.6412 93.4095L23.1806 82.8332L23.1602 38.6559L35.8378 38.6703L35.6412 93.4095Z" fill="#FFEDAD"/>
<path d="M35.1005 91.9818L23.8545 82.4643L23.834 39.9788L35.2684 40.0218L35.1005 91.9818Z" fill="url(#paint4_linear_104_4797)"/>
<path d="M75.2357 93.9029L87.6983 83.3266L87.7187 39.1494L75.0391 39.1637L75.2357 93.9029Z" fill="url(#paint5_linear_104_4797)"/>
<path d="M75.7784 92.4754L87.0244 82.9579L87.0429 40.4724L75.6084 40.5134L75.7784 92.4754Z" fill="url(#paint6_linear_104_4797)"/>
<path d="M74.524 38.8933V39.5733L36.958 39.5139V38.8339L74.524 38.8933Z" fill="url(#paint7_linear_104_4797)"/>
<path d="M37.6592 77.6575L37.4482 94.5849L54.7505 105.815C55.0454 106.058 55.4693 106.062 55.7684 105.823L73.9533 94.4047L73.7117 76.0313L55.158 83.6215L37.6592 77.6575Z" fill="#FFEDAD"/>
<path d="M38.3422 44.2266L38.1641 94.0299L54.8171 105.016C55.0567 105.221 55.409 105.223 55.6527 105.024L72.8996 94.0811L72.7214 44.2778L38.3422 44.2266Z" fill="url(#paint8_linear_104_4797)"/>
<path d="M91.9881 70.086L58.8255 89.2315C56.7283 90.4419 54.1436 90.4419 52.0463 89.2315L18.8837 70.086C16.7865 68.8756 15.4941 66.637 15.4941 64.2162V25.9231C15.4941 23.5023 16.7865 21.2638 18.8837 20.0533L52.0463 0.907814C54.1436 -0.302605 56.7283 -0.302605 58.8255 0.907814L91.9881 20.0533C94.0854 21.2638 95.3777 23.5023 95.3777 25.9231V64.2162C95.3777 66.637 94.0854 68.8736 91.9881 70.086Z" fill="#FEEBFF"/>
<path d="M90.2277 67.3702L57.7819 85.7313C56.3175 86.5608 54.5254 86.5608 53.061 85.7313L20.6153 67.3702C19.2983 66.6247 18.4873 65.2464 18.4873 63.7554V26.771C18.4873 25.28 19.2983 23.9017 20.6153 23.1562L53.061 4.79508C54.5254 3.9656 56.3175 3.9656 57.7819 4.79508L90.2277 23.1562C91.5446 23.9017 92.3556 25.28 92.3556 26.771V63.7574C92.3556 65.2484 91.5446 66.6247 90.2277 67.3702Z" fill="#FFF1AC"/>
<path d="M55.702 90.3211C54.3523 90.3211 53.0006 89.973 51.7963 89.2787L19.5144 70.6595C17.1017 69.2689 15.6025 66.6739 15.6025 63.8865V26.6605C15.6025 23.8751 17.1017 21.2801 19.5144 19.8874L51.7943 1.26829C54.2028 -0.122356 57.1971 -0.120308 59.6057 1.26829L91.8876 19.8874C94.3003 21.2781 95.7995 23.873 95.7995 26.6605V63.8885C95.7995 66.6739 94.3003 69.2689 91.8876 70.6616L59.6077 89.2807C58.4034 89.973 57.0517 90.3211 55.702 90.3211ZM55.702 4.7316C55.1306 4.7316 54.5572 4.87907 54.0472 5.174L21.7673 23.7931C20.7453 24.383 20.1104 25.4828 20.1104 26.6625V63.8906C20.1104 65.0703 20.7453 66.1701 21.7673 66.7599L54.0472 85.3791C55.0671 85.9669 56.3369 85.9669 57.3569 85.3791L89.6367 66.7599C90.6587 66.1701 91.2937 65.0703 91.2937 63.8906V26.6605C91.2937 25.4808 90.6587 24.381 89.6367 23.7911L57.3569 5.17195C56.8448 4.87907 56.2734 4.7316 55.702 4.7316Z" fill="url(#paint9_linear_104_4797)"/>
<path d="M88.1938 65.8772L57.6814 83.1446C56.4505 83.8409 54.937 83.8409 53.7061 83.1446L23.1937 65.8772C21.9628 65.1808 21.207 63.8946 21.207 62.5019V27.965C21.207 26.5723 21.9648 25.2861 23.1937 24.5898L53.7061 7.32237C54.937 6.62602 56.4505 6.62602 57.6814 7.32237L88.1938 24.5898C89.4247 25.2861 90.1804 26.5723 90.1804 27.965V62.5019C90.1804 63.8946 89.4226 65.1808 88.1938 65.8772Z" fill="#FEEBFF"/>
<path d="M88.3983 65.5372L56.5506 83.9249C56.0426 84.2178 55.418 84.2178 54.9121 83.9249L23.0644 65.5372C22.5564 65.2443 22.2451 64.7036 22.2451 64.1178V27.3444C22.2451 26.7587 22.5585 26.218 23.0644 25.9251L54.9121 7.53741C55.42 7.24453 56.0447 7.24453 56.5506 7.53741L88.3983 25.9251C88.9062 26.218 89.2175 26.7587 89.2175 27.3444V64.1178C89.2175 64.7036 88.9042 65.2443 88.3983 65.5372Z" fill="url(#paint10_linear_104_4797)"/>
<g opacity="0.29">
<path opacity="0.29" d="M55.7449 83.6463L23.293 64.7281V26.9204L55.7449 8.00226L88.1968 26.9204V64.7281L55.7449 83.6463ZM26.5699 62.8459L55.7449 79.8532L84.9199 62.8459V28.8026L55.7449 11.7953L26.5699 28.8026V62.8459Z" fill="url(#paint11_linear_104_4797)"/>
</g>
<path d="M55.6535 85.6392C55.2684 85.6392 54.8834 85.5388 54.5393 85.3401L21.8314 66.3073C21.1514 65.912 20.7295 65.1767 20.7295 64.3903V26.3225C20.7295 25.536 21.1514 24.8008 21.8314 24.4055L54.5372 5.37467C55.2254 4.97529 56.0794 4.97529 56.7656 5.37467L89.4735 24.4075C90.1535 24.8028 90.5754 25.5381 90.5754 26.3245V64.3923C90.5754 65.1788 90.1535 65.9141 89.4735 66.3093L56.7676 85.3401C56.4256 85.5388 56.0385 85.6392 55.6535 85.6392ZM24.4181 63.5465L55.6555 81.7232L86.8929 63.5465V27.1684L55.6555 8.99159L24.4181 27.1684V63.5465Z" fill="url(#paint12_linear_104_4797)"/>
<path d="M56.1516 42.2076C56.1066 41.9372 56.2417 20.973 56.2417 20.973L47.6582 33.624L56.1516 42.2076Z" fill="url(#paint13_linear_104_4797)"/>
<path d="M56.2395 20.969L64.5158 33.5668L56.1494 42.2036L56.2395 20.969Z" fill="url(#paint14_linear_104_4797)"/>
<path d="M64.5012 33.5544L77.9756 37.075L56.1348 42.1932L64.5012 33.5544Z" fill="url(#paint15_linear_104_4797)"/>
<path d="M77.9911 37.0833L68.8956 48.9807L56.1523 42.1994L77.9911 37.0833Z" fill="url(#paint16_linear_104_4797)"/>
<path d="M47.7887 33.5462L34.3164 37.0669L56.1551 42.183L47.7887 33.5462Z" fill="url(#paint17_linear_104_4797)"/>
<path d="M34.3096 37.0688L43.4051 48.9662L56.1483 42.185L34.3096 37.0688Z" fill="url(#paint18_linear_104_4797)"/>
<path d="M43.4057 48.9662L42.8691 62.8993L56.1489 42.185L43.4057 48.9662Z" fill="url(#paint19_linear_104_4797)"/>
<path d="M56.1343 42.2158L55.9561 57.8693L42.8545 62.9301L56.1343 42.2158Z" fill="url(#paint20_linear_104_4797)"/>
<path d="M68.9912 49.0462L69.1878 63.0182L56.123 42.1666L68.9912 49.0462Z" fill="url(#paint21_linear_104_4797)"/>
<path d="M56.1406 42.1972L56.155 57.8528L69.2054 63.0488L56.1406 42.1972Z" fill="url(#paint22_linear_104_4797)"/>
<defs>
<linearGradient id="paint0_linear_104_4797" x1="14.2314" y1="20.7837" x2="41.0479" y2="107.785" gradientUnits="userSpaceOnUse">
<stop offset="0.1329" stop-color="#FED76E"/>
<stop offset="0.4209" stop-color="#D1994E"/>
<stop offset="0.556" stop-color="#D86F2B"/>
</linearGradient>
<linearGradient id="paint1_linear_104_4797" x1="18.9788" y1="25.2638" x2="5.02886" y2="113.854" gradientUnits="userSpaceOnUse">
<stop stop-color="#FED97A"/>
<stop offset="0.2516" stop-color="#EBA04C"/>
<stop offset="0.4498" stop-color="#EEB332"/>
</linearGradient>
<linearGradient id="paint2_linear_104_4797" x1="96.92" y1="19.8199" x2="70.1034" y2="106.821" gradientUnits="userSpaceOnUse">
<stop offset="0.1329" stop-color="#FED76E"/>
<stop offset="0.4209" stop-color="#D1994E"/>
<stop offset="0.556" stop-color="#D86F2B"/>
</linearGradient>
<linearGradient id="paint3_linear_104_4797" x1="92.1722" y1="24.3002" x2="106.122" y2="112.89" gradientUnits="userSpaceOnUse">
<stop stop-color="#FED97A"/>
<stop offset="0.317" stop-color="#EBA04C"/>
<stop offset="0.5771" stop-color="#EEB332"/>
</linearGradient>
<linearGradient id="paint4_linear_104_4797" x1="29.5519" y1="39.9787" x2="29.5519" y2="91.9825" gradientUnits="userSpaceOnUse">
<stop offset="0.6716" stop-color="#E47B2E"/>
<stop offset="0.7591" stop-color="#F19634"/>
<stop offset="0.8467" stop-color="#FBAA39"/>
<stop offset="0.9058" stop-color="#FFB13B"/>
</linearGradient>
<linearGradient id="paint5_linear_104_4797" x1="75.0397" y1="66.5264" x2="87.7189" y2="66.5264" gradientUnits="userSpaceOnUse">
<stop offset="0.5419" stop-color="#E47B2E"/>
<stop offset="0.678" stop-color="#F19634"/>
<stop offset="0.814" stop-color="#FBAA39"/>
<stop offset="0.9058" stop-color="#FFB13B"/>
</linearGradient>
<linearGradient id="paint6_linear_104_4797" x1="81.3266" y1="40.4717" x2="81.3266" y2="92.4755" gradientUnits="userSpaceOnUse">
<stop offset="0.5419" stop-color="#E47B2E"/>
<stop offset="0.678" stop-color="#F19634"/>
<stop offset="0.814" stop-color="#FBAA39"/>
<stop offset="0.9058" stop-color="#FFB13B"/>
</linearGradient>
<linearGradient id="paint7_linear_104_4797" x1="55.7406" y1="38.8349" x2="55.7406" y2="39.5728" gradientUnits="userSpaceOnUse">
<stop offset="0.254" stop-color="#771351"/>
<stop offset="0.6381" stop-color="#DD1936"/>
</linearGradient>
<linearGradient id="paint8_linear_104_4797" x1="55.5307" y1="44.2267" x2="55.5307" y2="105.171" gradientUnits="userSpaceOnUse">
<stop offset="0.6762" stop-color="#E47B2E"/>
<stop offset="0.762" stop-color="#F19634"/>
<stop offset="0.8479" stop-color="#FBAA39"/>
<stop offset="0.9058" stop-color="#FFB13B"/>
</linearGradient>
<linearGradient id="paint9_linear_104_4797" x1="35.662" y1="10.5653" x2="75.7402" y2="79.9827" gradientUnits="userSpaceOnUse">
<stop stop-color="#FCE881"/>
<stop offset="0.3128" stop-color="#FED65B"/>
<stop offset="0.6369" stop-color="#FCC552"/>
<stop offset="1" stop-color="#F8C043"/>
</linearGradient>
<linearGradient id="paint10_linear_104_4797" x1="52.1692" y1="16.6976" x2="60.3522" y2="83.3926" gradientUnits="userSpaceOnUse">
<stop stop-color="#FFEDB1"/>
<stop offset="0.2658" stop-color="#FEDF6B"/>
<stop offset="0.6225" stop-color="#FDC727"/>
<stop offset="0.9268" stop-color="#F39D50"/>
</linearGradient>
<linearGradient id="paint11_linear_104_4797" x1="23.2933" y1="45.8244" x2="88.1958" y2="45.8244" gradientUnits="userSpaceOnUse">
<stop stop-color="#FFC961"/>
<stop offset="1" stop-color="#FFE98B"/>
</linearGradient>
<linearGradient id="paint12_linear_104_4797" x1="38.0627" y1="14.8877" x2="73.2457" y2="75.8265" gradientUnits="userSpaceOnUse">
<stop stop-color="#F0B335"/>
<stop offset="0.2291" stop-color="#EEB854"/>
<stop offset="0.4497" stop-color="#EFB550"/>
<stop offset="0.7961" stop-color="#FFD06C"/>
<stop offset="1" stop-color="#FBEBBB"/>
</linearGradient>
<linearGradient id="paint13_linear_104_4797" x1="50.2835" y1="24.4125" x2="59.4558" y2="40.2993" gradientUnits="userSpaceOnUse">
<stop offset="0.2682" stop-color="#FFDB63"/>
<stop offset="0.3943" stop-color="#FFE176"/>
<stop offset="0.6467" stop-color="#FFEB97"/>
<stop offset="0.8577" stop-color="#FFF1AB"/>
<stop offset="1" stop-color="#FFF3B2"/>
</linearGradient>
<linearGradient id="paint14_linear_104_4797" x1="51.984" y1="23.4259" x2="61.1562" y2="39.3127" gradientUnits="userSpaceOnUse">
<stop offset="0.2682" stop-color="#F9D35A"/>
<stop offset="0.4563" stop-color="#F4C64B"/>
<stop offset="0.7806" stop-color="#EDB537"/>
<stop offset="1" stop-color="#EAAF30"/>
</linearGradient>
<linearGradient id="paint15_linear_104_4797" x1="67.5471" y1="32.2839" x2="66.2178" y2="52.1474" gradientUnits="userSpaceOnUse">
<stop stop-color="#F4BC46"/>
<stop offset="0.1296" stop-color="#F6C350"/>
<stop offset="0.4861" stop-color="#FBD267"/>
<stop offset="0.7095" stop-color="#FDD870"/>
<stop offset="0.726" stop-color="#FDDA76"/>
<stop offset="0.8271" stop-color="#FEE897"/>
<stop offset="0.9116" stop-color="#FFF0AB"/>
<stop offset="0.9687" stop-color="#FFF3B2"/>
</linearGradient>
<linearGradient id="paint16_linear_104_4797" x1="73.7472" y1="42.2622" x2="62.7455" y2="45.5243" gradientUnits="userSpaceOnUse">
<stop stop-color="#E9994A"/>
<stop offset="0.1549" stop-color="#EC9C47"/>
<stop offset="0.7095" stop-color="#F5A43F"/>
<stop offset="0.75" stop-color="#F4A63F"/>
<stop offset="1" stop-color="#EEAD3D"/>
</linearGradient>
<linearGradient id="paint17_linear_104_4797" x1="41.2594" y1="35.3934" x2="54.4206" y2="40.9426" gradientUnits="userSpaceOnUse">
<stop stop-color="#FFE0A1"/>
<stop offset="0.00757147" stop-color="#FFDFA0"/>
<stop offset="0.2649" stop-color="#F7CE7A"/>
<stop offset="0.4717" stop-color="#F2C363"/>
<stop offset="0.601" stop-color="#F0BF5A"/>
<stop offset="0.6705" stop-color="#F2BC51"/>
<stop offset="0.867" stop-color="#F6B63D"/>
<stop offset="1" stop-color="#F7B436"/>
</linearGradient>
<linearGradient id="paint18_linear_104_4797" x1="38.5528" y1="42.247" x2="49.5545" y2="45.5091" gradientUnits="userSpaceOnUse">
<stop stop-color="#F1A426"/>
<stop offset="0.026" stop-color="#F1A426"/>
<stop offset="0.7095" stop-color="#F3A81D"/>
<stop offset="1" stop-color="#F2A41C"/>
</linearGradient>
<linearGradient id="paint19_linear_104_4797" x1="44.6951" y1="49.761" x2="52.9574" y2="54.5343" gradientUnits="userSpaceOnUse">
<stop stop-color="#E1A31A"/>
<stop offset="0.2356" stop-color="#EAB639"/>
<stop offset="0.567" stop-color="#F6CE5F"/>
<stop offset="0.8335" stop-color="#FCDD76"/>
<stop offset="1" stop-color="#FFE27F"/>
</linearGradient>
<linearGradient id="paint20_linear_104_4797" x1="48.6128" y1="51.8563" x2="58.9177" y2="60.2315" gradientUnits="userSpaceOnUse">
<stop stop-color="#E19318"/>
<stop offset="0.4611" stop-color="#D97F21"/>
<stop offset="1" stop-color="#D16B29"/>
</linearGradient>
<linearGradient id="paint21_linear_104_4797" x1="67.6291" y1="49.7879" x2="59.1149" y2="54.5904" gradientUnits="userSpaceOnUse">
<stop stop-color="#F7CD43"/>
<stop offset="0.5411" stop-color="#FACA53"/>
<stop offset="1" stop-color="#FBC85C"/>
</linearGradient>
<linearGradient id="paint22_linear_104_4797" x1="63.5605" y1="51.9161" x2="53.1697" y2="60.1849" gradientUnits="userSpaceOnUse">
<stop stop-color="#EDAE3D"/>
<stop offset="0.2646" stop-color="#EDA636"/>
<stop offset="1" stop-color="#EE9227"/>
</linearGradient>
</defs>
</svg>
