<svg width="80" height="97" viewBox="0 0 80 97" fill="none" xmlns="http://www.w3.org/2000/svg">
<path d="M71.5153 96.7032L58.2613 87.0487L58.2383 37.9288L71.7241 37.9455L71.5153 96.7032Z" fill="#F1AD7D"/>
<path d="M70.9385 95.1707L58.977 86.6521L58.9561 39.3486L71.1181 39.3945L70.9385 95.1707Z" fill="url(#paint0_linear_103_4134)"/>
<path d="M9.11504 96.7032L22.3711 87.0487L22.3941 37.9288L8.90625 37.9455L9.11504 96.7032Z" fill="#F1AD7D"/>
<path d="M9.69125 95.1707L21.6549 86.6521L21.6758 39.3486L9.51172 39.3945L9.69125 95.1707Z" fill="url(#paint1_linear_103_4134)"/>
<path d="M75.7992 70.3894L43.9295 88.9571C41.4658 90.3936 38.4195 90.3936 35.9537 88.9571L4.08401 70.3894C1.64952 68.9696 0.150391 66.3639 0.150391 63.5453V26.2846C0.150391 23.4659 1.64743 20.8602 4.08401 19.4405L35.3002 1.25274C38.1689 -0.41758 41.7142 -0.41758 44.583 1.25274L75.7992 19.4405C78.2337 20.8602 79.7328 23.4659 79.7328 26.2846V63.5453C79.7307 66.3639 78.2337 68.9696 75.7992 70.3894Z" fill="#FEEBFF"/>
<path d="M74.6006 67.5457L42.0481 86.1364C40.7369 86.8859 39.1187 86.8859 37.8075 86.1364L5.25508 67.5457C3.94388 66.7962 3.13379 65.4119 3.13379 63.9128V26.7293C3.13379 25.2302 3.94179 23.8459 5.25508 23.0964L37.8075 4.50571C39.1187 3.75615 40.7369 3.75615 42.0481 4.50571L74.6006 23.0964C75.9118 23.8459 76.7219 25.2302 76.7219 26.7293V63.9128C76.7198 65.4098 75.9118 66.7962 74.6006 67.5457Z" fill="#FFFDF3"/>
<path d="M40.0021 90.2579C38.6554 90.2579 37.3087 89.9113 36.1082 89.2181L3.88974 70.6024C1.49074 69.216 0 66.6354 0 63.8647V26.6249C0 23.8543 1.49073 21.2737 3.88765 19.8873L36.1061 1.27157C38.5071 -0.116889 41.4908 -0.116889 43.8918 1.27157L76.1103 19.8873C78.5093 21.2737 80 23.8543 80 26.6249V63.8647C80 66.6354 78.5093 69.216 76.1124 70.6024L43.8939 89.2181C42.6934 89.9113 41.3467 90.2579 40.0021 90.2579ZM40.0021 4.82309C39.4509 4.82309 38.8997 4.96506 38.4069 5.24901L6.18852 23.8647C5.20511 24.4327 4.59547 25.4912 4.59547 26.6249V63.8647C4.59547 65.0006 5.20511 66.057 6.18852 66.625L38.4069 85.2407C39.3903 85.8086 40.6138 85.8086 41.5972 85.2407L73.8157 66.625C74.7991 66.057 75.4087 64.9985 75.4087 63.8647V26.6249C75.4087 25.4891 74.7991 24.4327 73.8157 23.8647L41.5972 5.24901C41.1045 4.96506 40.5533 4.82309 40.0021 4.82309Z" fill="url(#paint2_linear_103_4134)"/>
<path d="M73.9556 66.9277L42.2612 85.0277C40.9834 85.7564 39.4091 85.7564 38.1313 85.0277L6.43698 66.9277C5.15919 66.199 4.37207 64.8502 4.37207 63.3908V27.1887C4.37207 25.7292 5.15919 24.3804 6.43698 23.6518L38.1313 5.55176C39.4091 4.82308 40.9834 4.82308 42.2612 5.55176L73.9556 23.6518C75.2334 24.3804 76.0205 25.7292 76.0205 27.1887V63.3908C76.0205 64.8502 75.2334 66.199 73.9556 66.9277Z" fill="#FFCFB5"/>
<path d="M72.7658 65.7084L41.0778 84.1717C40.5579 84.4744 39.9148 84.4744 39.3949 84.1717L7.70682 65.7084C7.1932 65.4098 6.87793 64.8586 6.87793 64.2636V27.314C6.87793 26.7189 7.1932 26.1698 7.70682 25.8691L39.3949 7.40583C39.9148 7.10309 40.5579 7.10309 41.0778 7.40583L72.7658 25.8691C73.2795 26.1677 73.5947 26.7189 73.5947 27.314V64.2656C73.5947 64.8607 73.2795 65.4098 72.7658 65.7084Z" fill="url(#paint3_linear_103_4134)"/>
<g opacity="0.39">
<path opacity="0.39" d="M40.2486 82.8918C39.7809 82.8918 39.3153 82.7686 38.8978 82.5243L9.19318 65.0486C8.38308 64.5726 7.87988 63.6935 7.87988 62.754V27.7712C7.87988 26.8316 8.38308 25.9526 9.19318 25.4766L38.8978 8.00087C39.7308 7.51021 40.7643 7.51021 41.5974 8.00087L71.302 25.4766C72.1121 25.9526 72.6153 26.8316 72.6153 27.7712V62.754C72.6153 63.6935 72.1121 64.5726 71.302 65.0486L41.5974 82.5243C41.1819 82.7686 40.7163 82.8918 40.2486 82.8918ZM11.2226 62.3656L40.2486 79.4426L69.2746 62.3656V28.1595L40.2486 11.0826L11.2226 28.1595V62.3656Z" fill="url(#paint4_linear_103_4134)"/>
</g>
<path d="M40.0892 85.4307C39.6466 85.4307 39.2019 85.3179 38.8072 85.0904L6.0982 66.3222C5.30062 65.8629 4.80371 65.0089 4.80371 64.0881V26.5602C4.80371 25.6394 5.29853 24.7855 6.0982 24.3262L38.8093 5.55593C39.6006 5.10286 40.582 5.10286 41.3733 5.55593L74.0823 24.3241C74.8799 24.7813 75.3769 25.6374 75.3769 26.5581V64.084C75.3769 65.0047 74.882 65.8587 74.0823 66.318L41.3733 85.0862C40.9766 85.3179 40.534 85.4307 40.0892 85.4307ZM7.72677 63.8856L40.0892 82.4554L72.4517 63.8856V26.7607L40.0892 8.19086L7.72677 26.7607V63.8856Z" fill="url(#paint5_linear_103_4134)"/>
<path d="M25.9971 36.4339L56.0566 36.7638L40.5957 61.8708L25.9971 36.4339Z" fill="#EECFC0"/>
<path d="M26.7988 36.9517L55.2423 37.2628L40.6124 61.021L26.7988 36.9517Z" fill="#FEBB99"/>
<path d="M25.9972 36.4339L20.1406 33.4733L40.3765 67.5875L40.5958 61.8708L25.9972 36.4339Z" fill="url(#paint6_linear_103_4134)"/>
<path d="M56.0567 36.7638L61.7775 33.6674L20.1406 33.4733L25.9972 36.4339L56.0567 36.7638Z" fill="url(#paint7_linear_103_4134)"/>
<path d="M40.377 67.5875L61.7779 33.6674L56.0571 36.7638L40.5962 61.8708L40.377 67.5875Z" fill="url(#paint8_linear_103_4134)"/>
<defs>
<linearGradient id="paint0_linear_103_4134" x1="65.037" y1="39.3486" x2="65.037" y2="95.1714" gradientUnits="userSpaceOnUse">
<stop offset="0.5475" stop-color="#A05629"/>
<stop offset="0.6285" stop-color="#B16735"/>
<stop offset="0.7284" stop-color="#C1753F"/>
<stop offset="0.8904" stop-color="#D5874C"/>
<stop offset="1" stop-color="#DC8E51"/>
</linearGradient>
<linearGradient id="paint1_linear_103_4134" x1="15.5934" y1="39.3486" x2="15.5934" y2="95.1714" gradientUnits="userSpaceOnUse">
<stop offset="0.5475" stop-color="#A05629"/>
<stop offset="0.6285" stop-color="#B16735"/>
<stop offset="0.7284" stop-color="#C1753F"/>
<stop offset="0.8904" stop-color="#D5874C"/>
<stop offset="1" stop-color="#DC8E51"/>
</linearGradient>
<linearGradient id="paint2_linear_103_4134" x1="19.987" y1="10.5791" x2="60.0155" y2="79.9105" gradientUnits="userSpaceOnUse">
<stop stop-color="#F8B097"/>
<stop offset="0.3128" stop-color="#E99C79"/>
<stop offset="0.6369" stop-color="#D47B56"/>
<stop offset="1" stop-color="#B85C29"/>
</linearGradient>
<linearGradient id="paint3_linear_103_4134" x1="37.4477" y1="23.0698" x2="45.6726" y2="90.1069" gradientUnits="userSpaceOnUse">
<stop stop-color="#F3B785"/>
<stop offset="0.2658" stop-color="#ECA973"/>
<stop offset="0.6225" stop-color="#D58049"/>
<stop offset="1" stop-color="#D07741"/>
</linearGradient>
<linearGradient id="paint4_linear_103_4134" x1="40.2489" y1="7.63421" x2="40.2489" y2="82.8913" gradientUnits="userSpaceOnUse">
<stop stop-color="#E89E67"/>
<stop offset="0.7318" stop-color="#B95A2E"/>
<stop offset="1" stop-color="#B86434"/>
</linearGradient>
<linearGradient id="paint5_linear_103_4134" x1="22.4995" y1="14.8567" x2="57.6796" y2="75.7904" gradientUnits="userSpaceOnUse">
<stop stop-color="#CF7B55"/>
<stop offset="0.2291" stop-color="#E4895C"/>
<stop offset="0.4497" stop-color="#EB9565"/>
<stop offset="0.7961" stop-color="#F2A475"/>
<stop offset="1" stop-color="#FFC8A9"/>
</linearGradient>
<linearGradient id="paint6_linear_103_4134" x1="25.6646" y1="38.4899" x2="35.2196" y2="57.1416" gradientUnits="userSpaceOnUse">
<stop offset="0.1983" stop-color="#C06A43"/>
<stop offset="0.4722" stop-color="#D27A4E"/>
<stop offset="0.7458" stop-color="#DF8656"/>
<stop offset="0.8775" stop-color="#E8945F"/>
<stop offset="1" stop-color="#ED9B64"/>
</linearGradient>
<linearGradient id="paint7_linear_103_4134" x1="20.125" y1="34.7494" x2="61.7579" y2="35.2782" gradientUnits="userSpaceOnUse">
<stop offset="0.1983" stop-color="#FFE3CA"/>
<stop offset="0.5473" stop-color="#F9C5A9"/>
<stop offset="0.7458" stop-color="#F6B99C"/>
<stop offset="0.8849" stop-color="#F5AF8C"/>
<stop offset="1" stop-color="#F4AA85"/>
</linearGradient>
<linearGradient id="paint8_linear_103_4134" x1="54.8492" y1="40.6801" x2="45.1586" y2="59.4421" gradientUnits="userSpaceOnUse">
<stop offset="0.1983" stop-color="#D0804F"/>
<stop offset="0.3555" stop-color="#D58754"/>
<stop offset="0.7458" stop-color="#DF945F"/>
<stop offset="0.864" stop-color="#EA9E65"/>
<stop offset="1" stop-color="#F1A569"/>
</linearGradient>
</defs>
</svg>
