<svg width="314" height="318" viewBox="0 0 314 318" fill="none" xmlns="http://www.w3.org/2000/svg">
<path fill-rule="evenodd" clip-rule="evenodd" d="M313.48 124.381C312.351 151.634 285.827 169.857 276.732 195.558C265.447 227.45 278.163 268.747 254.028 292.389C229.814 316.109 189.077 323.094 156.707 313.133C125.254 303.454 113.349 266.173 90.7808 242.154C73.2042 223.448 52.7781 209.046 38.7139 187.559C21.6143 161.434 -3.60482 135.096 0.430653 104.116C4.47176 73.0941 34.0196 52.2124 58.8156 33.2441C80.952 16.3102 106.847 6.0231 134.351 1.67045C160.382 -2.44909 186.233 1.43862 211.465 9.08634C237.738 17.0492 264.678 26.1015 282.898 46.6938C301.705 67.9488 314.656 95.9943 313.48 124.381Z" fill="url(#paint0_linear_89_9649)"/>
<defs>
<linearGradient id="paint0_linear_89_9649" x1="156.777" y1="0" x2="156.777" y2="317.53" gradientUnits="userSpaceOnUse">
<stop stop-color="#A6DA41"/>
<stop offset="1" stop-color="#77C31C"/>
</linearGradient>
</defs>
</svg>
