<svg width="384" height="344" viewBox="0 0 384 344" fill="none" xmlns="http://www.w3.org/2000/svg">
<mask id="mask0_89_15625" style="mask-type:alpha" maskUnits="userSpaceOnUse" x="0" y="0" width="384" height="344">
<rect width="384" height="344" fill="url(#paint0_linear_89_15625)"/>
</mask>
<g mask="url(#mask0_89_15625)">
<path d="M282.65 289.993C280.82 292.492 278.279 294.639 275.108 296.384C270.832 298.735 265.456 300.342 264.271 298.991C263.844 298.507 263.958 297.82 264.603 296.938C264.712 296.791 264.835 296.635 264.977 296.474C265.356 296.038 265.721 295.582 266.053 295.132C271.154 288.178 269.869 280.403 268.931 274.728C268.338 271.13 267.869 268.291 269.083 266.636C269.429 266.167 269.903 265.807 270.5 265.574C276.62 263.166 282.19 267.632 284.328 273.06C286.793 279.284 286.206 285.144 282.65 289.993ZM265.238 297.398C264.868 297.905 264.721 298.313 264.859 298.474C265.47 299.176 269.988 298.299 274.729 295.696C277.801 294.013 280.251 291.937 282.015 289.533C285.404 284.911 285.954 279.313 283.603 273.344C282.01 269.3 277.123 263.806 270.789 266.3C268.523 267.191 268.997 270.305 269.708 274.596C270.666 280.408 271.979 288.372 266.684 295.592C266.338 296.066 265.963 296.531 265.565 296.986C265.446 297.128 265.333 297.27 265.238 297.398Z" fill="#21A36E"/>
<path d="M301.086 292.705C298.797 295.829 295.165 298.137 290.591 299.384C286.462 300.508 281.422 300.806 280.493 299.465C280.341 299.247 280.161 298.782 280.621 298.156C280.834 297.867 281.157 297.569 281.612 297.246C283.186 296.123 284.532 294.805 285.613 293.326C288.988 288.723 289.382 283.295 289.704 278.928C289.917 275.999 290.088 273.681 291.084 272.325C291.567 271.666 292.231 271.272 293.061 271.154C296.673 270.647 299.114 272.344 300.522 273.851C302.186 275.629 303.348 278.137 303.708 280.725C304.362 285.404 303.48 289.434 301.086 292.705ZM281.252 298.616C281.053 298.891 281.119 298.986 281.143 299.019C281.636 299.74 285.736 299.891 290.387 298.626C294.791 297.426 298.27 295.217 300.456 292.24C302.727 289.144 303.561 285.305 302.935 280.829C302.599 278.435 301.485 276.027 299.953 274.387C298.669 273.012 296.455 271.471 293.174 271.931C292.544 272.021 292.084 272.292 291.719 272.785C290.856 273.96 290.685 276.293 290.491 278.985C290.164 283.451 289.756 289.002 286.248 293.786C285.115 295.331 283.707 296.706 282.067 297.877C281.683 298.147 281.413 298.398 281.252 298.616Z" fill="#21A36E"/>
<path d="M217.04 310.639C216.395 311.516 214.84 310.904 214.333 310.7C204.624 306.879 196.627 311.283 190.786 314.502C186.515 316.858 183.14 318.717 180.959 316.209C176.925 311.568 178.456 305.865 181.239 302.072C181.94 301.119 182.727 300.257 183.59 299.512C191.919 292.274 201.756 292.629 210.569 300.494C214.546 304.049 218.178 309.084 217.04 310.639ZM181.864 302.537C179.267 306.083 177.816 311.402 181.547 315.697C183.31 317.726 186.287 316.086 190.407 313.82C196.38 310.525 204.563 306.017 214.617 309.975C215.727 310.411 216.272 310.368 216.409 310.179C217.007 309.363 214.395 304.964 210.047 301.082C206.032 297.498 195.461 290.23 184.097 300.1C183.282 300.816 182.533 301.631 181.864 302.537Z" fill="#21A36E"/>
<path d="M226.843 306.495C226.478 306.993 226.08 307.074 225.805 307.059C225.203 307.026 224.601 306.481 223.971 305.386C218.751 296.355 209.749 294.819 203.178 293.705C198.371 292.885 194.569 292.24 194.427 288.922C194.323 286.575 194.944 284.466 196.271 282.655C198.897 279.071 203.629 277.63 206.881 277.492C217.907 277.013 225.379 283.418 227.384 295.061C228.218 299.915 227.986 304.94 226.843 306.495ZM196.906 283.119C195.688 284.783 195.119 286.722 195.209 288.893C195.328 291.576 198.679 292.15 203.311 292.937C210.038 294.08 219.244 295.644 224.648 304.997C225.322 306.163 225.739 306.277 225.853 306.282C225.966 306.287 226.085 306.201 226.208 306.031C227.095 304.822 227.464 300.181 226.611 295.194C225.701 289.889 221.951 277.625 206.914 278.274C203.837 278.407 199.367 279.758 196.906 283.119Z" fill="#21A36E"/>
<path d="M239.956 301.176C239.008 302.471 238.169 303.03 237.467 302.831C236.813 302.646 236.429 301.864 236.311 300.451C235.443 290.055 227.958 284.831 222.487 281.019C218.491 278.227 215.329 276.023 216.609 272.96C216.94 272.183 217.343 271.457 217.817 270.813C221.34 266.01 228.029 265.954 232.75 267.935C242.928 272.206 246.953 281.185 243.796 292.572C242.891 295.848 241.383 299.228 239.956 301.176ZM218.453 271.273C218.017 271.87 217.642 272.538 217.334 273.264C216.291 275.743 219.078 277.687 222.937 280.379C228.531 284.281 236.192 289.628 237.093 300.389C237.192 301.541 237.458 302.02 237.681 302.082C237.927 302.153 238.505 301.835 239.326 300.717C240.7 298.839 242.165 295.559 243.052 292.359C244.488 287.173 246.332 274.477 232.452 268.656C228.005 266.783 221.728 266.807 218.453 271.273Z" fill="#21A36E"/>
<path d="M261.374 291.742C260.924 292.354 260.436 292.97 259.924 293.563C256.529 297.507 251.609 301.228 249.968 300.261C249.309 299.873 249.248 298.943 249.788 297.507C253.438 287.732 248.887 279.815 245.569 274.036C243.322 270.116 241.539 267.025 243.165 264.806C243.312 264.607 243.488 264.417 243.687 264.237C248.94 259.511 256.235 261.91 260.431 266.57C267.229 274.112 267.57 283.29 261.374 291.742ZM243.801 265.261C242.473 267.068 244.142 269.969 246.252 273.638C249.646 279.55 254.296 287.651 250.523 297.773C250.092 298.92 250.158 299.455 250.366 299.579C251.239 300.095 255.482 297.521 259.331 293.046C259.829 292.468 260.303 291.87 260.744 291.273C264.242 286.499 268.784 277.004 259.852 267.082C256.705 263.588 249.684 259.885 244.213 264.806C244.057 264.958 243.915 265.105 243.801 265.261Z" fill="#21A36E"/>
<path d="M278.962 298.649C240.349 294.866 215.945 309.842 209.886 314.09C210.436 314.203 210.868 314.625 210.934 315.261C217.016 311.027 240.956 296.497 278.805 300.209C317.067 303.964 349.152 325.946 349.474 326.169L350.365 324.884C350.043 324.661 317.641 302.442 278.962 298.649Z" fill="#21A36E"/>
<path d="M201.244 342.974C200.78 343.605 200.14 344.003 199.338 344.15C193.232 345.274 188.881 340.12 187.885 334.702C186.956 329.625 187.819 325.23 190.445 321.642C192.702 318.565 196.233 316.19 200.666 314.777C204.928 313.421 210.147 312.89 211.133 314.265C211.299 314.493 211.498 314.981 210.991 315.678C210.782 315.962 210.484 316.251 210.066 316.579C208.682 317.655 207.488 318.878 206.506 320.215C202.794 325.273 202.619 331.189 202.472 335.944C202.368 339.073 202.292 341.543 201.244 342.974ZM191.075 322.101C188.577 325.51 187.762 329.696 188.653 334.56C189.388 338.58 192.905 344.534 199.196 343.382C199.803 343.268 200.263 342.984 200.614 342.51C201.519 341.272 201.6 338.798 201.685 335.92C201.837 331.056 202.017 325.007 205.871 319.75C206.895 318.352 208.146 317.076 209.583 315.958C210.299 315.403 210.64 314.915 210.498 314.72C209.967 313.981 205.705 313.995 200.908 315.521C196.627 316.882 193.232 319.157 191.075 322.101Z" fill="#21A36E"/>
<path d="M115.292 290.775L115.136 290.704L115.226 290.519C115.192 290.415 115.169 290.306 115.145 290.197C106.655 292.999 92.428 298.161 85.4877 303.367C89.1902 296.256 92.8594 289.244 96.4243 282.47V282.475L96.8463 281.664C97.0406 281.294 97.235 280.924 97.4294 280.559C98.7852 279.621 112.983 271.77 123.996 267.651C123.797 267.276 123.626 266.897 123.512 266.489C114.548 269.855 103.265 275.662 98.5624 278.402C102.203 271.491 105.711 264.868 109.011 258.662C109.968 257.823 120.91 249.229 129.405 244.422C129.03 244.194 128.841 243.782 128.793 243.327C122.37 246.963 114.529 252.675 110.532 255.794C119.54 238.851 126.779 225.416 130.415 218.675L129.263 218.13C125.655 224.81 118.568 237.979 109.736 254.576C109.935 248.124 108.115 236.609 106.892 229.707C106.465 229.783 106.043 229.816 105.607 229.792C107.323 239.563 109.556 254.903 107.93 257.975H107.935C104.588 264.271 101.023 271.002 97.3251 278.023C96.192 270.41 91.5557 255.434 88.9579 247.385C88.9247 247.403 88.8962 247.418 88.863 247.432L88.5739 248.039L87.9149 247.726C87.8533 247.731 87.7869 247.721 87.7206 247.726C90.5317 256.463 95.8128 273.534 96.2726 280.024C93.6084 285.082 90.8826 290.278 88.1235 295.559C87 288.225 80.9367 275.956 77.1869 268.874C76.9262 269.054 76.6654 269.239 76.3857 269.386C76.2672 269.447 76.1582 269.452 76.0444 269.457C80.1213 277.175 86.9952 291.131 87.0332 297.64C79.0452 312.938 70.8297 328.862 63.1499 344.055L64.2829 344.629C70.6259 332.085 77.3339 319.039 83.9755 306.258L84.0371 306.315C89.1759 300.712 106.09 294.54 115.614 291.387C115.501 291.188 115.373 290.994 115.292 290.775Z" fill="#21A36E"/>
<path d="M129.846 219.059C126.082 217.272 124.465 212.759 126.252 208.995C128.04 205.226 132.553 203.614 136.321 205.402C140.09 207.189 141.697 211.702 139.915 215.471C138.128 219.235 133.614 220.846 129.846 219.059ZM135.956 206.17C132.614 204.586 128.604 206.013 127.02 209.36C125.437 212.702 126.869 216.713 130.211 218.296C133.553 219.879 137.563 218.448 139.147 215.106C140.73 211.763 139.298 207.753 135.956 206.17Z" fill="#21A36E"/>
<path d="M132.178 247.783C128.409 245.995 126.797 241.482 128.585 237.713C130.367 233.949 134.885 232.338 138.654 234.12C142.418 235.907 144.03 240.42 142.247 244.184C140.46 247.953 135.942 249.565 132.178 247.783ZM138.289 234.888C134.947 233.305 130.936 234.736 129.353 238.079C127.769 241.425 129.196 245.431 132.543 247.015C135.885 248.598 139.896 247.171 141.479 243.824C143.062 240.482 141.631 236.471 138.289 234.888Z" fill="#21A36E"/>
<path d="M127.096 272.04C123.327 270.253 121.716 265.74 123.503 261.976C125.29 258.207 129.803 256.596 133.572 258.383C137.336 260.165 138.948 264.683 137.165 268.452C135.378 272.216 130.86 273.828 127.096 272.04ZM133.207 259.151C129.865 257.567 125.854 258.994 124.271 262.341C122.687 265.683 124.119 269.689 127.461 271.277C130.803 272.861 134.814 271.429 136.397 268.092C137.981 264.745 136.549 260.734 133.207 259.151Z" fill="#21A36E"/>
<path d="M70.8058 269.732C67.0371 267.945 65.43 263.431 67.2125 259.663C68.9997 255.894 73.5127 254.282 77.2815 256.069C81.0503 257.852 82.6574 262.37 80.8749 266.138C79.0877 269.902 74.5699 271.514 70.8058 269.732ZM76.9165 256.837C73.5744 255.254 69.5638 256.686 67.9804 260.028C66.3971 263.37 67.8287 267.38 71.1709 268.964C74.513 270.547 78.5236 269.115 80.1069 265.773C81.6903 262.431 80.2587 258.421 76.9165 256.837Z" fill="#21A36E"/>
<path d="M118.871 295.497C115.107 293.71 113.495 289.197 115.278 285.433C117.06 281.669 121.578 280.057 125.342 281.839C129.106 283.627 130.718 288.14 128.936 291.904C127.153 295.672 122.635 297.284 118.871 295.497ZM124.982 282.607C121.64 281.024 117.629 282.456 116.046 285.798C114.462 289.14 115.894 293.15 119.236 294.734C122.578 296.317 126.589 294.886 128.172 291.543C129.756 288.201 128.324 284.191 124.982 282.607Z" fill="#21A36E"/>
<path d="M83.942 247.768C80.178 245.981 78.5662 241.468 80.3486 237.704C82.1358 233.935 86.6489 232.324 90.4177 234.111C94.1865 235.898 95.7983 240.411 94.0111 244.18C92.2239 247.939 87.7061 249.556 83.942 247.768ZM90.0527 234.874C86.7105 233.291 82.7 234.722 81.1166 238.064C79.5332 241.407 80.9649 245.417 84.3071 247.001C87.6492 248.584 91.6598 247.157 93.2431 243.81C94.8265 240.468 93.3948 236.462 90.0527 234.874Z" fill="#21A36E"/>
<path d="M102.649 229.93C98.8799 228.142 97.2681 223.629 99.0553 219.865C100.843 216.096 105.356 214.485 109.124 216.272C112.893 218.059 114.5 222.572 112.713 226.341C110.931 230.105 106.418 231.717 102.649 229.93ZM108.759 217.035C105.417 215.452 101.407 216.883 99.8233 220.226C98.2399 223.568 99.6716 227.578 103.014 229.162C106.356 230.745 110.366 229.318 111.95 225.976C113.533 222.629 112.106 218.618 108.759 217.035Z" fill="#21A36E"/>
<path d="M68.4119 186.87C70.9387 183.727 73.5555 180.48 73.7404 176.157C73.9822 170.643 72.2376 166.187 68.5589 162.911C62.4435 157.469 52.5593 156.768 45.3488 157.934C42.9026 158.327 40.6034 158.943 38.5223 159.759C31.5014 162.508 26.0497 166.438 22.3189 171.44C19.4555 175.28 18.6164 180.044 17.801 184.652C16.8245 190.194 15.9001 195.423 11.771 199.196C9.06881 201.666 5.57497 203.079 2.19491 204.449C1.46485 204.743 0.730056 205.041 0 205.354V206.506C0.862794 206.136 1.73033 205.781 2.59312 205.43C6.05852 204.027 9.64243 202.576 12.4868 199.978C16.8861 195.963 17.8864 190.307 18.8487 184.837C19.6404 180.352 20.4558 175.711 23.1674 172.075C26.7798 167.235 32.0751 163.419 38.9063 160.745C40.9163 159.958 43.1397 159.365 45.5147 158.981C52.4834 157.858 62.0121 158.507 67.8478 163.703C71.2753 166.756 72.9013 170.928 72.6738 176.109C72.4984 180.082 70.1091 183.054 67.5776 186.202C65.852 188.345 64.0743 190.563 63.055 193.123C61.3389 197.428 62.543 201.505 63.7092 205.449C64.0411 206.582 64.3919 207.753 64.6621 208.914C65.0603 210.602 65.5581 212.351 66.0369 214.034C67.9189 220.662 69.8673 227.517 66.985 233.978C64.975 238.486 60.3339 240.909 55.8398 243.246C50.5161 246.024 45.017 248.892 43.6374 255.24C42.6372 259.833 44.5429 264.958 46.0789 269.073L46.7757 270.936C49.3783 277.843 52.327 285.67 50.5493 292.79C48.2548 301.978 38.1999 307.809 30.8615 312.066C28.5623 313.398 26.3342 314.374 24.1772 315.318C20.5411 316.911 17.1042 318.413 13.8047 321.386C8.04484 326.577 4.89232 332.692 2.35609 337.608C1.52648 339.225 0.76324 340.704 0 341.96V343.875C1.10931 342.339 2.1475 340.329 3.29947 338.092C5.79304 333.251 8.89815 327.231 14.511 322.173C17.6873 319.314 21.0436 317.844 24.5991 316.285C26.7845 315.327 29.0458 314.341 31.3924 312.976C38.4749 308.87 49.1745 302.66 51.578 293.037C53.4363 285.599 50.426 277.606 47.7665 270.557L47.0697 268.698C45.5858 264.712 43.7417 259.748 44.6709 255.463C45.9414 249.598 50.9854 246.972 56.3281 244.185C60.9786 241.757 65.7951 239.25 67.9521 234.405C70.9908 227.588 68.9903 220.548 67.0514 213.736C66.5726 212.062 66.0843 210.332 65.6908 208.663C65.4111 207.468 65.0603 206.283 64.719 205.141C63.5528 201.197 62.453 197.471 64.0316 193.507C65.0034 191.109 66.7338 188.952 68.4119 186.87Z" fill="#21A36E"/>
<path d="M64.3778 163.76C64.0507 164.087 31.6391 196.731 18.7778 236.007C11.1596 259.288 4.53692 286.106 0.00488281 308.984V320.428C4.42314 295.616 11.9323 263.749 20.7973 236.666C33.4926 197.883 65.5535 165.58 65.8806 165.263L64.3778 163.76Z" fill="#21A36E"/>
<path d="M225.734 485.658C231.769 460.002 237.453 427.543 241.758 392.087C252.035 307.562 238.577 236.799 238.577 236.799C238.577 236.799 208.455 303.092 198.182 387.622C193.674 424.684 191.417 458.859 191.322 485.658H225.734Z" fill="#61CC78"/>
<path d="M167.922 485.658H201.22C199.798 464.429 196.944 439.356 192.687 412.647C180.916 338.732 152.411 282.195 152.411 282.195C152.411 282.195 143.001 345.506 154.781 419.422C158.654 443.708 163.196 466.311 167.922 485.658Z" fill="#61CC78"/>
<path d="M383.995 383.782C377.382 358.898 364.653 322.77 341.42 291.107C331.787 277.976 321.694 267.186 311.748 258.326C315.503 259.321 320.727 259.933 325.885 259.829C342.851 259.492 358.519 251.092 360.814 229.721C361.837 220.169 357.505 207.397 344.985 206.051C332.465 204.709 338.708 241.037 309.255 252.58C308.027 253.059 307.226 253.552 306.766 254.036C301.726 249.84 296.753 246.124 291.923 242.843C295.839 242.658 302.286 240.743 308.15 237.832C323.353 230.295 333.944 216.011 326.913 195.707C323.766 186.624 314.403 176.92 302.504 181.044C290.605 185.169 311.739 215.371 290.022 238.363C289.211 239.221 288.709 239.942 288.462 240.539C282.878 236.927 277.521 233.893 272.519 231.352C275.985 229.721 281.323 225.037 285.604 219.628C296.137 206.321 299.622 188.89 284.599 173.526C277.876 166.656 265.266 161.873 256.264 170.677C247.261 179.48 279.261 197.779 269.429 227.844C269.206 228.531 269.068 229.114 268.997 229.617C263.721 227.085 258.914 225.118 254.737 223.601C256.989 221.548 258.871 212.991 258.852 204.567C258.814 187.596 250.689 171.781 229.37 169.112C219.837 167.913 206.985 172.023 205.425 184.519C203.856 197.011 240.293 191.412 251.315 221.065C251.552 221.705 251.793 222.221 252.04 222.648C247.413 221.069 243.734 220.088 241.302 219.519C239.866 216.732 234.812 212.228 229.166 208.905C216.376 201.386 200.86 200.457 189.364 215.319C184.221 221.965 181.594 233.457 190.303 240.193C199.011 246.929 211.01 217.026 238.221 221.923C239.051 222.074 239.714 222.112 240.236 222.065C251.921 224.729 299.441 238.501 339.215 292.714C365.791 328.933 378.487 371.077 383.986 395.098V383.782H383.995Z" fill="#26638A"/>
<path d="M373.784 361.833C381.322 358.955 383.332 355.774 383.924 353.731C383.948 353.826 383.972 353.916 383.995 354.01V347.914C383.877 347.492 383.768 347.07 383.649 346.648C383.754 346.762 383.872 346.876 383.995 346.985V340.533C383.071 341.05 382.568 341.614 382.412 342.405C381.639 339.879 380.81 337.357 379.928 334.844C380.8 335.285 382.161 335.84 383.995 336.115V325.78C380.373 326.87 378.368 327.52 377.766 328.961C377.003 326.96 376.211 324.988 375.41 323.035C376.884 323.893 379.681 324.557 383.995 323.391V311.075C377.937 313.772 373.647 315.673 373.13 317.683C372.068 315.251 371.001 312.89 369.944 310.62C371.788 311.345 375.822 311.767 380.885 309.122C381.943 308.567 382.986 307.951 383.995 307.292V295.246C381.378 296.331 378.563 297.687 375.86 299.1C371.082 301.598 367.564 302.561 366.958 304.395C366.123 302.707 365.313 301.086 364.526 299.555C366.412 300.46 369.214 299.972 374.121 296.402C377.975 293.596 381.706 289.922 383.995 286.746V279.891C380.667 280 374.367 283.735 368.787 287.798C365.023 290.534 361.885 291.875 361.435 293.648C360.491 291.88 359.638 290.32 358.903 288.998C360.999 290.036 363.639 289.51 367.863 284.831C373.225 278.886 377.51 270.272 375.135 268.129C372.755 265.982 366.502 272.107 361.136 278.051C359.216 280.18 355.845 281.678 355.333 283.1C355.305 283.001 353.821 280.237 353.466 279.611C354.779 279.042 357.609 278.009 359.169 275.539C362.762 269.826 364.72 261.834 362.013 260.127C360.036 258.89 356.173 263.047 353.105 267.774C351.498 270.253 349.441 272.714 348.616 272.164C347.753 271.59 349.711 270.101 351.129 267.058C353.404 262.161 354.731 255.709 352.902 254.557C350.56 253.078 347.189 256.823 344.648 260.118C344.549 260.246 342.174 263.047 341.5 262.687C340.647 262.227 342.643 260.644 343.401 259.44C346.08 255.183 347.549 249.21 345.52 247.934C343.795 246.849 339.789 252.092 337.073 255.552C337.855 250.926 329.289 245.289 327.454 246.593C327.335 246.673 327.231 246.773 327.132 246.887C325.709 248.555 327.15 253.092 329.853 256.908C331.09 258.662 333.46 259.772 334.446 260.137C330.711 262.749 326.492 265.546 326.98 267.47C327.53 269.656 332.128 270.386 336.513 268.85C339.841 267.688 339.917 265.622 340.552 265.271C340.623 265.65 342.302 267.93 342.472 268.248C337.333 269.518 330.331 273.415 330.801 275.89C331.313 278.559 338.087 279.493 343.582 278.431C345.554 278.056 348.156 275.567 348.787 276.459C349.607 277.601 347.445 278.62 346.876 278.753C340.467 280.246 333.655 283.868 334.37 286.969C335.091 290.074 343.098 290.865 349.498 289.377C352.921 288.58 354.656 287.419 355.414 286.035C355.879 286.85 356.585 288.078 357.462 289.647C355.992 288.723 353.859 290.505 349.887 292.539C343.743 295.668 336.546 298.308 337.869 300.901C339.196 303.494 348.132 304.556 354.272 301.423C358.486 299.27 360.041 296.127 360.012 294.307C361.036 296.213 362.169 298.37 363.364 300.726C361.738 299.83 358.785 301.939 353.869 304.461C346.435 308.263 337.727 312.473 339.054 315.062C340.372 317.655 351.697 317.261 359.135 313.454C363.98 310.975 365.545 307.443 365.815 305.613C366.901 307.832 368.015 310.179 369.143 312.62C367.432 311.691 363.151 313.554 357.552 316.427C349.299 320.655 342.178 326.069 343.501 328.662C344.819 331.26 355.158 330.397 363.416 326.169C368.612 323.505 370.935 319.475 371.409 317.636C372.575 320.286 373.732 323.026 374.855 325.823C373.097 324.676 369.456 325.837 362.198 328.776C351.934 332.929 341.154 338.883 342.23 341.595C343.307 344.302 356.775 342.496 367.043 338.343C374.234 335.427 376.074 332.327 376.6 330.288C377.515 332.701 378.397 335.152 379.226 337.613C377.491 336.371 373.566 338.068 365.815 340.922C355.035 344.899 343.762 350.024 344.748 352.768C345.743 355.509 359.207 354.333 369.992 350.355C377.401 347.625 380.008 344.197 380.705 342.192C380.952 343.003 381.198 343.809 381.435 344.615C381.933 346.321 382.412 348.033 382.877 349.739C381.331 348.099 378.088 348.971 369.532 352.242C358.794 356.338 347.042 362.122 348.071 364.848C349.081 367.578 363.047 365.938 373.784 361.833Z" fill="#61CC78"/>
<path d="M130.694 280.479C115.496 266.745 84.5065 294.923 77.277 301.029C65.416 311.046 55.2189 306.927 42.7985 311.852C28.7473 317.432 9.08792 332.863 15.3076 353.181C18.0572 362.179 21.4846 371.622 12.1124 382.454C8.63756 386.474 4.23352 390.632 0.00488281 395.107V485.658H8.46216C17.749 476.205 35.7444 468.208 43.5665 468.317C67.4829 468.644 76.163 444.85 75.6273 418.369C75.3524 404.863 74.902 388.309 86.0662 377.837C93.9783 370.418 105.024 370.318 108.048 357.32C111.846 340.964 106.802 331.758 115.875 316.138C122.228 305.177 140.057 288.941 130.694 280.479Z" fill="#21A36E"/>
<path d="M122.299 283.499C121.853 283.864 77.4003 320.589 56.2619 358.5C38.0531 391.168 9.15429 452.781 0.00488281 484.875V485.658H2.47001C11.0316 455.716 38.0152 396.515 58.5184 359.751C79.4198 322.263 123.493 285.85 123.934 285.49L122.299 283.499Z" fill="#99E03D"/>
<path d="M232.94 309.842C234.836 311.065 237.576 311.212 238.681 311.184C236.069 315.194 233.059 319.579 234.291 321.258C235.69 323.173 240.449 322.073 244.118 318.854C246.906 316.417 246.166 314.374 246.645 313.782C246.863 314.123 249.395 315.683 249.684 315.924C245.176 319.181 239.89 325.728 241.321 327.951C242.867 330.345 249.831 328.596 254.766 325.406C256.539 324.263 258.094 320.821 259.061 321.438C260.308 322.229 258.601 324.073 258.103 324.424C252.452 328.397 247.238 334.602 249.153 337.338C251.078 340.078 259.184 337.708 264.835 333.735C267.859 331.616 269.092 329.805 269.286 328.155C270.059 328.767 271.23 329.682 272.7 330.872C270.908 330.544 269.528 333.119 266.456 336.665C261.701 342.126 255.733 347.525 258.037 349.531C260.35 351.531 269.471 349.057 274.217 343.591C277.473 339.836 277.753 336.167 277.009 334.408C278.758 335.863 280.707 337.518 282.797 339.338C280.858 339.106 278.815 342.325 275.018 346.71C269.272 353.337 262.446 360.856 264.754 362.857C267.058 364.867 277.929 360.031 283.679 353.404C287.419 349.085 287.557 345.032 287.102 343.145C289.031 344.875 291.036 346.724 293.094 348.658C291.065 348.426 287.628 351.925 283.3 356.921C276.924 364.283 272.117 372.352 274.425 374.357C276.729 376.372 286.462 371.466 292.838 364.103C296.848 359.467 297.531 354.627 297.266 352.65C299.441 354.774 301.646 356.983 303.836 359.268C301.674 358.846 298.583 361.406 292.672 367.118C284.309 375.196 276.146 385.232 278.265 387.446C280.379 389.655 292.786 382.606 301.153 374.528C307.008 368.863 307.586 365.118 307.292 362.932C309.136 364.923 310.952 366.962 312.729 369.034C310.553 368.507 307.391 371.703 300.973 377.529C292.037 385.635 283.072 395.06 285.111 397.34C287.154 399.615 299.807 393.182 308.747 385.071C314.891 379.501 316.086 375.139 315.972 372.911C316.536 373.604 317.091 374.296 317.641 374.988C318.793 376.453 319.935 377.932 321.059 379.411C318.906 378.42 316.095 380.539 309.046 387.095C300.2 395.301 291.027 405.551 293.099 407.802C295.165 410.059 308.122 402.972 316.963 394.756C323.173 388.992 323.884 385.104 323.657 382.881C325.377 385.204 327.065 387.555 328.715 389.907C326.567 388.92 323.732 391.77 316.693 398.312C307.851 406.522 298.692 416.051 300.759 418.308C302.826 420.555 315.332 413.818 324.178 405.603C330.099 400.104 331.374 395.918 331.341 393.699C333.038 396.188 334.707 398.696 336.333 401.194C334.204 400.298 330.322 403.507 323.263 409.476C314.043 417.269 305.367 426.025 307.33 428.367C309.292 430.714 322.201 424.508 331.412 416.719C337.438 411.623 338.855 407.57 339.007 405.361C340.519 407.75 342.003 410.14 343.439 412.515C341.363 411.524 338.357 414.487 331.55 420.242C322.784 427.651 313.867 436.066 315.835 438.413C317.797 440.759 330.237 435.393 339.007 427.978C344.534 423.309 345.824 419.014 346.047 416.866C347.554 419.417 349.019 421.958 350.441 424.47C348.417 423.423 345.61 425.712 339.301 431.046C331.189 437.901 323.007 446.168 324.974 448.515C326.937 450.861 338.722 445.87 346.833 439.015C351.674 434.928 352.74 431.159 353.044 429.126C354.48 431.728 355.869 434.307 357.211 436.834C355.22 435.274 352.565 437.389 345.539 443.324C337.404 450.193 329.094 458.167 331.061 460.513C333.024 462.865 344.52 457.925 352.645 451.046C357.827 446.671 359.116 442.736 359.216 440.66C360.69 443.49 362.098 446.268 363.435 448.956C361.468 448.339 358.889 450.511 353.314 454.393C344.923 460.243 336.082 467.724 337.822 470.236C339.561 472.754 350.759 469.16 359.159 463.306C363.615 460.191 365.635 456.749 366.341 454.891C367.716 457.74 369.01 460.485 370.214 463.088C368.332 462.016 366.099 464.007 360.202 468.117C352.252 473.654 343.671 480.557 345.411 483.079C347.151 485.591 357.765 481.22 365.715 475.679C370.181 472.569 372.106 470.274 372.632 468.411C373.68 470.739 374.637 472.929 375.519 474.972C373.746 474.181 371.352 476.366 366.782 479.556C363.966 481.514 361.169 483.652 358.974 485.667H374.557C376.581 484.06 377.733 482.685 378.273 481.472C378.918 483.031 379.487 484.43 379.985 485.667H381.767C380.682 482.946 379.193 479.324 377.325 474.986C378.676 475.991 380.686 476.247 384 475.058V463.898C383.351 464.197 382.701 464.495 382.066 464.799C377.562 466.951 375.031 467.169 374.756 469.103C373.504 466.302 372.139 463.296 370.65 460.115C372.352 461.547 376.794 463.192 382.369 460.537C382.919 460.272 383.464 459.987 383.995 459.679V447.197C381.639 448.221 379.146 449.411 376.756 450.549C371.215 453.199 368.318 453.052 368.346 455.261C367.242 452.957 366.085 450.577 364.862 448.131C366.749 448.795 370.612 449.563 375.51 447.225C378.572 445.765 381.53 443.746 383.995 441.627V431.487C380.122 432.586 375.064 434.848 370.423 437.066C365.322 439.498 362.098 439.617 361.539 441.56C360.392 439.332 359.211 437.062 357.974 434.762C359.96 435.53 364.924 436.241 370.565 433.553C376.126 430.899 381.16 426.703 383.995 423.115V416.274C380.174 416.07 372.419 419.104 365.241 422.536C359.116 425.456 355.196 426.727 354.793 428.884C353.494 426.518 352.148 424.124 350.763 421.707C352.83 422.351 357.111 423.029 362.89 420.265C372.684 415.596 381.909 406.508 380.463 403.46C379.013 400.435 366.882 405.451 357.083 410.125C350.531 413.259 347.786 413.667 347.369 415.88C346.156 413.813 344.904 411.737 343.629 409.656C345.776 410.694 350.436 411.012 357.386 406.342C367.005 399.881 375.519 389.148 373.642 386.356C371.764 383.568 360.264 390.452 350.64 396.913C344.037 401.355 340.77 402.645 340.709 404.967C339.206 402.588 337.67 400.203 336.101 397.828C338.352 398.719 343.245 398.691 350.389 393.462C360.302 386.199 368.967 374.68 366.981 371.963C364.995 369.247 353.357 377.173 343.439 384.436C336.679 389.38 333.052 390.817 332.986 393.187C331.545 391.063 330.071 388.949 328.573 386.844C330.853 387.925 335.257 388.148 342.52 381.975C351.887 374.016 360.183 361.572 358.007 359.007C355.836 356.442 344.169 364.653 334.797 372.608C328.274 378.15 325.453 380.411 325.652 382.786C323.998 380.534 322.31 378.297 320.599 376.078C322.874 377.159 327.278 376.86 334.541 370.698C343.904 362.738 352.209 350.815 350.033 348.251C347.853 345.686 336.598 354.504 327.231 362.468C320.333 368.332 317.271 370.029 317.726 372.433C315.982 370.276 314.18 368.142 312.336 366.042C314.616 366.232 319.447 366.047 325.102 361.245C334.133 353.57 341.391 341.31 339.211 338.746C337.035 336.186 326.226 344.302 317.186 351.977C311.274 356.992 307.937 358.86 307.913 361.164C306.382 359.519 304.836 357.903 303.291 356.319C305.552 356.651 309.79 355.831 315.067 350.365C322.855 342.311 328.867 330.407 326.444 328.07C324.031 325.733 315.318 332.649 307.529 340.704C302.385 346.027 298.669 349.758 298.972 352.005C296.981 350.057 295.014 348.175 293.094 346.378C295.175 346.359 299.271 345.188 303.158 340.618C309.506 333.171 313.365 322.405 310.8 320.215C308.24 318.034 300.674 325.391 294.326 332.834C290.652 337.143 287.609 339.462 287.737 341.491C286.263 340.173 284.836 338.912 283.466 337.731C285.66 337.873 288.197 336.295 291.572 330.891C296.431 323.111 299.74 312.658 296.886 310.88C294.032 309.098 287.846 316.83 282.992 324.609C280.403 328.748 277.872 331.293 278.132 333.194C276.516 331.839 275.075 330.663 273.842 329.658C276.288 329.848 278.654 328.293 280.929 322.082C283.816 314.189 284.603 304.115 281.446 302.963C278.289 301.807 274.601 310.231 271.709 318.124C270.675 320.949 267.983 323.737 268.044 325.325C267.978 325.235 265.446 323.13 264.854 322.661C265.911 321.594 268.262 319.47 268.808 316.455C270.064 309.482 268.831 300.925 265.522 300.328C263.109 299.896 260.981 305.467 259.853 311.279C259.265 314.327 258.222 317.531 257.203 317.318C256.141 317.095 257.463 314.877 257.643 311.359C257.937 305.699 256.691 298.891 254.458 298.488C251.594 297.972 249.783 302.94 248.603 307.149C248.556 307.315 247.342 310.975 246.55 310.89C245.541 310.776 246.863 308.453 247.124 306.979C248.058 301.778 247.143 295.388 244.668 294.942C242.559 294.568 240.724 301.243 239.435 305.68C238.377 300.863 227.82 298.744 226.545 300.735C226.464 300.863 226.398 301.001 226.346 301.148C225.625 303.338 228.811 307.187 232.94 309.842Z" fill="#99E03D"/>
<path d="M383.995 198.371C382.938 202.41 381.886 205.748 381.085 206.212C380.999 206.264 380.867 206.297 380.701 206.312C379.112 206.459 374.979 204.88 369.74 202.879C360.434 199.319 346.374 193.939 332.635 192.881C326.795 192.431 322.22 187.762 320.722 183.377C319.547 179.94 320.229 176.735 322.59 174.597C323.638 173.649 325.074 173.099 326.989 172.919C329.009 172.729 331.232 172.995 333.015 173.208L333.626 173.279C334.1 173.336 334.797 173.478 335.603 173.644C337.485 174.033 340.064 174.564 341.974 174.384C343.013 174.284 343.757 174 344.245 173.502C345.056 172.677 345.355 171.724 345.127 170.657C344.065 165.741 331.597 159.953 329.345 159.095C327.852 158.526 326.33 157.986 324.719 157.412C317.181 154.734 308.634 151.7 303.746 145.257C301.058 141.711 300.323 137.374 301.836 133.932C303.125 130.993 305.879 129.186 309.582 128.836C309.876 128.807 310.179 128.788 310.487 128.779C311.383 128.75 313.09 129.092 315.071 129.485C318.082 130.082 321.827 130.827 324.42 130.58C326.785 130.357 327.928 129.343 327.819 127.57C327.421 121.108 315.892 116.14 310.354 113.756L309.331 113.31C308.904 113.125 308.453 112.931 307.989 112.732C301.864 110.096 292.601 106.114 291.795 98.9745C291.596 97.192 292.013 95.6418 293.046 94.3761C294.587 92.4798 297.56 91.1999 301.205 90.8538C303.5 90.6357 305.846 90.8206 307.643 91.3563C307.875 91.4274 308.079 91.508 308.269 91.5886C308.828 91.8161 309.392 92.0057 310.08 91.764C310.226 91.7118 310.326 91.5696 310.321 91.4132C310.245 88.967 309.61 85.9994 308.728 84.032C307.273 80.7989 304.855 78.1726 302.509 75.7549C302.025 75.2571 301.414 74.6551 300.717 73.9677C296.047 69.374 287.353 60.8267 288.951 55.6499C289.572 53.6351 291.776 52.2793 295.502 51.6062C300.764 50.6628 307.008 52.4215 312.402 56.3468C314.687 58.006 316.873 60.0919 319.281 62.9125C319.722 63.4293 320.258 64.311 320.822 65.2497C322.353 67.7812 324.259 70.9242 326.515 70.7156C327.16 70.654 327.79 70.3174 328.383 69.7106C329.857 68.2031 330.094 66.1504 330.322 64.1688C330.668 61.1538 330.995 58.5749 335.489 58.409C340.538 58.2241 345.473 61.4667 347.772 66.4728C349.621 70.4975 350.527 75.0817 351.399 79.5095C351.745 81.2777 352.11 83.1029 352.522 84.8474C353.03 86.9949 353.982 90.0526 355.642 92.4514C356.623 93.8736 357.595 94.5183 358.605 94.4235C360.013 94.2907 361.15 92.7595 362.35 91.143C363.241 89.9388 364.165 88.7015 365.151 88.1374C367.593 86.7626 370.266 86.5351 372.722 87.5069C378.833 89.9294 380.881 97.7277 380.776 103.668C380.691 108.66 378.932 113.329 377.235 117.847C376.42 120.013 375.581 122.251 374.922 124.512C374.121 127.276 372.784 135.913 375.576 139.284C376.78 140.735 378.582 141.043 380.89 140.161C381.943 139.763 382.976 139.222 383.991 138.653V137.824C382.891 138.454 381.762 139.061 380.634 139.488C378.624 140.251 377.14 140.038 376.135 138.824C373.561 135.71 374.874 127.271 375.619 124.711C376.268 122.478 377.102 120.25 377.913 118.098C379.634 113.519 381.412 108.792 381.502 103.677C381.611 97.5049 379.444 89.3889 372.988 86.8337C370.328 85.7813 367.427 86.0231 364.791 87.5069C363.668 88.1421 362.7 89.4458 361.762 90.7068C360.709 92.129 359.614 93.5939 358.529 93.6982C357.799 93.7645 357.045 93.2241 356.225 92.0342C354.632 89.7303 353.707 86.7579 353.214 84.6768C352.807 82.9464 352.446 81.126 352.096 79.3672C351.214 74.8968 350.304 70.2747 348.417 66.1694C345.994 60.9025 340.785 57.494 335.451 57.6884C330.294 57.878 329.943 61.0353 329.592 64.0882C329.379 65.9513 329.156 67.8807 327.857 69.2081C327.388 69.6869 326.909 69.9524 326.435 69.9998C324.629 70.1704 322.856 67.236 321.429 64.8799C320.822 63.8796 320.3 63.0121 319.822 62.4527C317.375 59.5894 315.147 57.4656 312.82 55.7732C307.268 51.7389 300.816 49.9327 295.369 50.9093C291.354 51.6299 288.96 53.1563 288.254 55.4461C286.523 61.04 295.422 69.7912 300.205 74.4892C300.897 75.1718 301.508 75.7691 301.987 76.2621C304.291 78.6325 306.657 81.2066 308.065 84.3307C308.875 86.1416 309.473 88.8438 309.582 91.1477C309.236 91.1951 308.928 91.0766 308.534 90.9201C308.321 90.8348 308.098 90.7448 307.837 90.6642C305.955 90.1048 303.509 89.9151 301.124 90.1379C298.868 90.3513 294.744 91.124 292.473 93.921C291.316 95.3479 290.842 97.0735 291.065 99.0551C291.913 106.612 301.409 110.693 307.69 113.395C308.155 113.595 308.6 113.789 309.027 113.974L310.056 114.419C315.465 116.747 326.719 121.597 327.089 127.617C327.141 128.466 326.913 129.623 324.339 129.864C321.85 130.097 318.162 129.367 315.199 128.779C313.18 128.381 311.431 128.03 310.454 128.063C305.955 128.2 302.675 130.21 301.167 133.643C299.551 137.321 300.314 141.939 303.163 145.693C308.183 152.311 316.835 155.383 324.467 158.09C326.074 158.664 327.596 159.199 329.08 159.768C332.19 160.958 343.487 166.519 344.411 170.809C344.591 171.629 344.364 172.345 343.724 172.995C343.363 173.36 342.747 173.582 341.899 173.663C340.092 173.834 337.575 173.317 335.741 172.938C334.92 172.767 334.209 172.62 333.702 172.563L333.095 172.492C331.275 172.274 329.009 172.004 326.913 172.198C324.842 172.393 323.263 173.004 322.097 174.061C319.509 176.403 318.755 179.887 320.03 183.614C321.604 188.217 326.416 193.128 332.574 193.602C346.203 194.654 360.207 200.011 369.475 203.557C375.002 205.672 378.999 207.203 380.757 207.037C381.032 207.013 381.255 206.947 381.435 206.843C382.232 206.378 383.047 204.349 383.981 201.106V198.371H383.995Z" fill="#21A36E"/>
<path d="M383.995 211.943C380.686 201.86 377.003 191.677 372.964 181.466C375.121 172.843 379.643 163.987 383.995 156.819V155.44C379.591 162.57 374.884 171.53 372.509 180.338C367.536 167.832 362.051 155.288 356.078 142.825C358.95 133.586 370.93 94.7126 371.053 94.3096L370.361 94.0963C370.238 94.4898 358.837 131.495 355.613 141.877C353.328 137.132 350.986 132.396 348.564 127.684C344.705 120.174 340.808 113.291 336.963 107.005C338.632 96.0163 336.627 65.2638 336.608 64.9462L335.887 64.9936C335.906 65.3018 337.807 94.4613 336.371 106.028C314.905 71.2038 295.35 55.19 295.118 55.0051L294.212 56.1287C294.468 56.3372 318.906 76.3711 343.093 120.473C332.289 111.438 300.432 99.567 298.906 98.9981L298.654 99.676C299.048 99.823 335.532 113.419 344.155 122.422C345.198 124.356 346.241 126.314 347.279 128.338C352.622 138.744 357.637 149.239 362.302 159.754C351.527 150.799 311.933 139.071 310.07 138.521L309.866 139.213C310.34 139.35 354.788 152.515 363.004 161.356C367.787 172.227 372.186 183.111 376.183 193.939C359.993 182.661 327.548 180.096 327.217 180.072L327.16 180.793C327.501 180.817 360.956 183.476 376.633 195.171C379.269 202.367 381.724 209.531 383.995 216.641V211.943V211.943Z" fill="#21A36E"/>
<path d="M72.9346 -6.48517C73.6789 -6.28606 91.2382 -1.56914 96.2111 2.63579C101.16 6.81702 112.543 23.4329 113.021 24.1345C113.111 24.2625 113.102 24.4379 113.002 24.5564C112.903 24.6749 112.737 24.7176 112.595 24.656C112.002 24.4047 98.1121 18.5121 95.1112 16.5163C92.1009 14.5205 73.3802 -5.07246 72.5838 -5.90681C72.4748 -6.02059 72.4558 -6.19125 72.5364 -6.32873C72.5648 -6.37614 72.6075 -6.4188 72.6502 -6.44725C72.7402 -6.49465 72.8398 -6.51361 72.9346 -6.48517ZM95.756 3.17148C91.6506 -0.3034 78.1398 -4.29501 73.9823 -5.46594C77.8174 -1.46959 92.9258 14.2219 95.5047 15.9332C97.9651 17.5687 108.314 22.0534 111.756 23.5325C109.162 19.7968 99.9467 6.70798 95.756 3.17148Z" fill="#21A36E"/>
<path d="M67.459 -20.8729C68.3503 -20.8587 89.4555 -20.4652 96.3294 -17.1895C103.175 -13.9232 121.128 1.33215 121.891 1.97688C122.014 2.07643 122.047 2.24709 121.986 2.38931C121.919 2.53153 121.768 2.61211 121.611 2.59315C120.872 2.47938 103.488 -0.222774 99.5104 -1.6023C95.5235 -2.98182 68.4214 -19.5171 67.2694 -20.2235C67.1319 -20.3041 67.0703 -20.47 67.113 -20.6217C67.1367 -20.707 67.1888 -20.7781 67.2599 -20.8208C67.3215 -20.854 67.3879 -20.8777 67.459 -20.8729ZM96.026 -16.559C90.2614 -19.3085 73.5744 -19.9959 68.758 -20.1381C74.0437 -16.924 96.2773 -3.46537 99.7379 -2.26599C103.052 -1.11876 116.325 1.04297 120.473 1.70192C116.577 -1.57385 101.895 -13.7573 96.026 -16.559Z" fill="#21A36E"/>
<path d="M73.9443 -1.12376C74.0629 -1.17591 74.1956 -1.16169 74.2999 -1.08584C74.4042 -1.00999 74.4563 -0.881991 74.4374 -0.753994C74.3283 -0.00497574 71.7305 17.6681 68.5495 22.238C65.6672 26.3813 53.1046 35.1088 49.99 37.0857C49.3263 37.5076 49.241 37.5218 49.1746 37.536C49.0087 37.5739 48.8285 37.4839 48.7669 37.3227C48.4919 36.659 59.8031 18.8532 59.9168 18.6731C64.2545 11.8466 71.83 0.203611 73.7974 -1.04317C73.8495 -1.07162 73.9017 -1.10006 73.9443 -1.12376ZM67.9759 21.8351C70.6638 17.9762 73.0247 3.78278 73.6078 0.0471722C69.4502 4.32322 52.9623 30.7095 49.9094 36.2987C53.3369 34.0849 65.2785 25.7129 67.9759 21.8351Z" fill="#21A36E"/>
<path d="M68.2225 -17.6638C68.341 -17.7207 68.4785 -17.7065 68.5828 -17.6259C68.6871 -17.55 68.7392 -17.422 68.7202 -17.294C68.5875 -16.3554 65.4208 5.7928 61.4955 11.4958C57.8974 16.7294 42.1159 27.7703 38.4087 30.117C37.6976 30.5673 37.6075 30.5863 37.5364 30.6005C37.3705 30.6384 37.1903 30.5436 37.1287 30.3872C36.8158 29.6334 50.7722 7.31455 50.9145 7.087C56.2808 -1.46509 65.6436 -16.0425 68.0566 -17.5737C68.1182 -17.6069 68.1703 -17.6354 68.2225 -17.6638ZM60.9219 11.0976C64.3209 6.15309 67.2601 -12.2832 67.9001 -16.5213C63.022 -11.6859 41.5896 23.0392 38.2333 29.4011C42.8269 26.4524 57.6224 15.8998 60.9219 11.0976Z" fill="#21A36E"/>
<path d="M62.2301 -31.9993C62.3486 -32.0514 62.4861 -32.0372 62.5857 -31.9613C62.69 -31.8855 62.7421 -31.7575 62.7279 -31.6295C62.5952 -30.6908 59.4284 -8.54265 55.5032 -2.83493C51.9051 2.39871 36.1235 13.4396 32.4116 15.7862C31.7053 16.2366 31.6152 16.2556 31.5441 16.2698C31.3782 16.3077 31.198 16.2129 31.1316 16.0565C30.8188 15.3027 44.7799 -7.02091 44.9174 -7.24372C50.2838 -15.7958 59.6465 -30.378 62.0595 -31.9044C62.1211 -31.9424 62.178 -31.9708 62.2301 -31.9993ZM54.9248 -3.23314C58.3239 -8.17762 61.2631 -26.6139 61.903 -30.852C57.0249 -26.0166 35.5926 8.70849 32.2362 15.0704C36.8346 12.117 51.6254 1.56437 54.9248 -3.23314Z" fill="#21A36E"/>
<path d="M54.1757 -49.2978C54.2943 -49.3546 54.427 -49.3404 54.5313 -49.2646C54.6356 -49.1887 54.6877 -49.0655 54.6735 -48.9375C54.5313 -47.8898 51.1797 -23.2338 46.9226 -16.9003C42.9168 -10.9366 24.9688 1.71136 21.6077 3.8399C20.9961 4.22863 20.906 4.24759 20.8397 4.26181C20.6738 4.29974 20.4936 4.20493 20.4272 4.04848C20.0954 3.24732 35.2464 -21.5888 35.3981 -21.8353C41.2244 -31.345 51.3977 -47.5532 54.0051 -49.2077C54.0667 -49.2409 54.1236 -49.2693 54.1757 -49.2978ZM46.3395 -17.2891C50.0656 -22.8356 53.2134 -43.6706 53.8534 -48.1695C51.502 -45.8655 45.216 -36.4838 36.2989 -21.9538C29.4249 -10.7565 23.2242 -0.123267 21.5413 3.05295C26.0781 0.113765 42.6845 -11.8516 46.3395 -17.2891Z" fill="#21A36E"/>
<path d="M44.69 -68.9951H42.2817C46.828 -60.7038 51.3363 -52.0806 56.0343 -42.6704C67.1368 -20.4274 73.4893 -1.32746 75.9544 6.76005C76.2246 6.6842 76.4948 6.58939 76.765 6.48509C76.8409 6.43294 76.931 6.39976 77.021 6.38554C77.3244 6.25754 77.5899 6.72686 77.8838 6.58464C75.3523 -1.69249 69.0094 -21.4087 57.9258 -43.6138C53.4032 -52.6684 49.0608 -60.9929 44.69 -68.9951Z" fill="#21A36E"/>
<path d="M76.4142 4.72648C76.5564 4.68856 76.7081 4.75019 76.7887 4.8687C77.6325 6.09178 87.1327 22.8831 87.09 27.0927C87.0616 29.8328 86.744 41.125 86.5544 47.8709C86.469 50.995 86.4027 53.2468 86.4027 53.4269C86.4027 53.5122 86.4027 53.7777 86.1893 53.9152C86.0898 53.9768 85.9049 53.9863 85.7959 53.9342C84.2362 53.2136 74.7881 28.0551 74.5606 26.4054C74.205 23.8596 76.0728 5.79786 76.1487 5.02988C76.1629 4.92085 76.2198 4.82604 76.3099 4.76915C76.3431 4.75019 76.3762 4.73596 76.4142 4.72648ZM85.8527 47.8519C86.0424 41.1108 86.36 29.8233 86.3884 27.088C86.4216 23.7032 79.0073 9.96013 76.746 6.13445C76.3478 10.0929 74.9588 24.1915 75.2575 26.3153C75.6035 28.7709 83.6199 48.8285 85.72 52.6969C85.739 51.7819 85.7864 50.0753 85.8527 47.8519Z" fill="#21A36E"/>
<path d="M211.052 -46.2592C211.209 -46.2876 211.365 -46.2165 211.436 -46.0743C211.972 -45.0219 224.539 -20.2711 225.473 -16.6967C226.403 -13.1317 227.573 2.2042 227.621 2.8584C227.635 3.01485 227.54 3.1618 227.393 3.21395C227.246 3.27084 227.08 3.21869 226.986 3.09069C226.474 2.38434 214.399 -14.3121 212.02 -20.5034C209.625 -26.7231 210.725 -45.1499 210.773 -45.9321C210.777 -45.9842 210.792 -46.0364 210.815 -46.0838C210.868 -46.1739 210.953 -46.2402 211.052 -46.2592ZM224.791 -16.5213C223.994 -19.5837 213.973 -39.4991 211.408 -44.581C211.199 -40.1675 210.702 -25.8982 212.678 -20.7594C214.693 -15.521 224.108 -2.15244 226.824 1.64954C226.516 -2.17614 225.554 -13.6058 224.791 -16.5213Z" fill="#21A36E"/>
<path d="M222.525 -35.9436C222.629 -36.0574 222.795 -36.0906 222.932 -36.0242C224.293 -35.3984 241.383 -25.8034 243.881 -22.2574C245.503 -19.9487 252.04 -10.3395 255.946 -4.59859C257.79 -1.88696 259.122 0.0709201 259.231 0.22262C259.293 0.312692 259.464 0.549724 259.331 0.786755C259.274 0.886309 259.137 0.971639 259.028 0.985861C257.586 1.15178 235.282 -15.5874 234.182 -16.7962C232.39 -18.7636 222.895 -34.8438 222.492 -35.5312C222.425 -35.6402 222.425 -35.7729 222.487 -35.882C222.492 -35.9009 222.506 -35.9246 222.525 -35.9436ZM255.363 -4.20512C251.461 -9.94602 244.924 -19.5505 243.303 -21.8545C241.26 -24.7605 227.891 -32.5683 223.715 -34.8295C225.91 -31.1319 233.21 -18.9011 234.694 -17.2703C236.396 -15.3977 253.855 -2.7213 258.117 -0.156624C257.544 -1.00046 256.562 -2.44635 255.363 -4.20512Z" fill="#21A36E"/>
<path d="M182.741 350.635C180.129 345.809 173.796 344.174 157.242 353.134C144.731 359.903 136.715 370.693 133.543 375.561C129.907 377.742 125.105 380.71 119.445 384.407C121.971 380.349 127.466 370.11 126.959 358.405C126.309 343.254 121.696 339.585 116.212 339.822C110.727 340.059 106.446 344.107 107.095 359.258C107.655 372.29 115.463 382.876 117.638 385.588C110.352 390.395 101.767 396.335 92.4847 403.304C94.0444 398.463 97.0832 386.498 93.9449 374.187C89.8727 358.22 84.5252 355.253 79.2063 356.613C73.8873 357.969 70.6115 363.136 74.6837 379.103C78.0638 392.362 87.5545 401.839 90.6738 404.669C68.9428 421.128 43.6421 443.077 22.1054 469.231C24.0444 464.628 27.3391 454.886 25.9359 444.291C23.9875 429.609 19.6166 426.386 14.8428 427.021C10.0643 427.651 6.68894 431.904 8.63734 446.585C10.325 459.295 18.2181 469.061 20.304 471.45C16.5826 476.058 12.9797 480.799 9.53806 485.653H12.5626C15.6772 481.315 18.9197 477.072 22.2619 472.934C23.3522 474.347 28.6238 480.855 36.9009 485.653H65.4822C66.2881 481.372 63.2873 476.873 50.2458 472.64C37.8348 468.606 25.4049 471.692 22.6269 472.479C29.7189 463.732 37.2517 455.45 44.9458 447.681C47.1644 451.274 54.6878 462.263 67.0134 467.942C81.88 474.797 87.5308 472.502 89.83 467.515C92.1292 462.528 90.2093 456.745 75.3379 449.89C63.785 444.561 51.4262 445.471 46.4817 446.14C53.2798 439.356 60.1869 432.97 67.0229 427.021C67.0323 427.045 74.6695 441.489 89.1995 448.193C103.748 454.9 109.314 452.568 111.613 447.581C113.912 442.594 112.068 436.848 97.5193 430.14C82.9988 423.442 67.0703 427.007 67.0229 427.021C75.6176 419.535 84.0986 412.733 92.0913 406.679C94.1487 410.035 101.8 421.399 114.462 427.239C129.428 434.137 135.098 431.852 137.397 426.864C139.697 421.882 137.748 416.084 122.782 409.182C111.22 403.853 98.8751 404.693 93.8548 405.347C102.649 398.743 110.812 393.069 117.838 388.409C120.146 391.646 127.983 401.564 139.91 405.631C154.269 410.524 159.356 407.561 161.129 402.365C162.902 397.169 160.683 391.713 146.324 386.82C136.563 383.492 126.579 384.943 121.184 386.214C126.224 382.928 130.561 380.236 133.975 378.178C139.109 378.273 153.411 377.808 166.694 370.622C183.258 361.662 185.354 355.466 182.741 350.635Z" fill="#99E03D"/>
<path d="M271.216 485.658H273.439C274.416 469.834 274.577 451.388 273.292 429.851C269.675 369.47 276.677 341.586 276.748 341.311L274.601 340.751C274.529 341.031 267.437 369.19 271.078 429.979C272.363 451.483 272.197 469.881 271.216 485.658Z" fill="#99E03D"/>
<path d="M293.895 324.595C292.283 322.974 288.263 324.24 284.053 327.406C284.494 322.277 283.466 318.304 281.28 317.788C279.047 317.257 276.288 320.48 274.383 325.42C272.098 320.485 269.04 317.366 266.812 318.072C264.048 318.949 263.626 325.406 265.868 332.493C268.115 339.585 273.7 347.374 281.925 342.709C284.172 341.434 286.229 339.628 288.05 337.817C293.326 332.569 295.943 326.653 293.895 324.595Z" fill="white"/>
</g>
<defs>
<linearGradient id="paint0_linear_89_15625" x1="-5.00679e-06" y1="344" x2="395.859" y2="329.764" gradientUnits="userSpaceOnUse">
<stop stop-color="#82C824"/>
<stop offset="1" stop-color="#A5D940"/>
</linearGradient>
</defs>
</svg>
