<svg width="320" height="96" viewBox="0 0 320 96" fill="none" xmlns="http://www.w3.org/2000/svg">
<path d="M118.942 91V22.6364H133.396V79.0831H162.704V91H118.942ZM186.73 22.6364V91H172.276V22.6364H186.73ZM255.803 22.6364V91H243.318L213.576 47.9723H213.075V91H198.621V22.6364H211.306L240.815 65.6307H241.415V22.6364H255.803ZM267.744 91V22.6364H313.81V34.5533H282.198V50.843H311.44V62.7599H282.198V79.0831H313.943V91H267.744Z" fill="#9DD53A"/>
<rect y="18.5264" width="107" height="74.4736" rx="12" fill="url(#paint0_linear_81_11273)"/>
<path d="M38.1875 67.7666V73.6729H17.0234V67.7666H38.1875ZM19.3203 33.8604V73.6729H11.8008V33.8604H19.3203ZM35.4258 50.2939V56.0635H17.0234V50.2939H35.4258ZM38.1055 33.8604V39.7939H17.0234V33.8604H38.1055ZM54.457 68.5322C55.4779 68.5322 56.3893 68.3317 57.1914 67.9307C57.9935 67.5296 58.6315 66.9645 59.1055 66.2354C59.5977 65.5062 59.862 64.6585 59.8984 63.6924H66.707C66.6706 65.6976 66.1055 67.4932 65.0117 69.0791C63.918 70.665 62.4596 71.9229 60.6367 72.8525C58.832 73.764 56.8086 74.2197 54.5664 74.2197C52.2878 74.2197 50.3008 73.8369 48.6055 73.0713C46.9102 72.3057 45.4974 71.2393 44.3672 69.8721C43.2552 68.5049 42.4167 66.9189 41.8516 65.1143C41.3047 63.3096 41.0312 61.3773 41.0312 59.3174V58.4424C41.0312 56.3825 41.3047 54.4502 41.8516 52.6455C42.4167 50.8408 43.2552 49.2549 44.3672 47.8877C45.4974 46.5205 46.9102 45.4541 48.6055 44.6885C50.3008 43.9229 52.2786 43.54 54.5391 43.54C56.9271 43.54 59.0234 44.0049 60.8281 44.9346C62.651 45.8643 64.0729 47.1768 65.0938 48.8721C66.1328 50.5674 66.6706 52.5635 66.707 54.8604H59.8984C59.862 53.8031 59.625 52.8551 59.1875 52.0166C58.75 51.1781 58.1302 50.5036 57.3281 49.9932C56.526 49.4827 55.5508 49.2275 54.4023 49.2275C53.181 49.2275 52.1602 49.4827 51.3398 49.9932C50.5378 50.5036 49.9089 51.2054 49.4531 52.0986C49.0156 52.9736 48.7057 53.958 48.5234 55.0518C48.3594 56.1273 48.2773 57.2575 48.2773 58.4424V59.3174C48.2773 60.5205 48.3594 61.6689 48.5234 62.7627C48.7057 63.8564 49.0156 64.8408 49.4531 65.7158C49.9089 66.5726 50.5378 67.2562 51.3398 67.7666C52.1602 68.277 53.1992 68.5322 54.457 68.5322ZM70.2344 59.1807V58.6064C70.2344 56.4372 70.5443 54.4411 71.1641 52.6182C71.7839 50.777 72.6862 49.182 73.8711 47.833C75.056 46.484 76.5052 45.4359 78.2188 44.6885C79.9323 43.9229 81.8828 43.54 84.0703 43.54C86.2943 43.54 88.263 43.9229 89.9766 44.6885C91.7083 45.4359 93.1667 46.484 94.3516 47.833C95.5365 49.182 96.4388 50.777 97.0586 52.6182C97.6784 54.4411 97.9883 56.4372 97.9883 58.6064V59.1807C97.9883 61.3317 97.6784 63.3278 97.0586 65.1689C96.4388 66.9919 95.5365 68.5869 94.3516 69.9541C93.1667 71.3031 91.7174 72.3512 90.0039 73.0986C88.2904 73.846 86.3307 74.2197 84.125 74.2197C81.9375 74.2197 79.9779 73.846 78.2461 73.0986C76.5143 72.3512 75.056 71.3031 73.8711 69.9541C72.6862 68.5869 71.7839 66.9919 71.1641 65.1689C70.5443 63.3278 70.2344 61.3317 70.2344 59.1807ZM77.4531 58.6064V59.1807C77.4531 60.4749 77.5807 61.6872 77.8359 62.8174C78.0911 63.9476 78.4831 64.9411 79.0117 65.7979C79.5404 66.6546 80.224 67.3291 81.0625 67.8213C81.9193 68.2952 82.9401 68.5322 84.125 68.5322C85.2917 68.5322 86.2943 68.2952 87.1328 67.8213C87.9714 67.3291 88.6549 66.6546 89.1836 65.7979C89.7305 64.9411 90.1315 63.9476 90.3867 62.8174C90.6419 61.6872 90.7695 60.4749 90.7695 59.1807V58.6064C90.7695 57.3304 90.6419 56.1364 90.3867 55.0244C90.1315 53.8942 89.7305 52.9007 89.1836 52.0439C88.6549 51.1689 87.9622 50.4854 87.1055 49.9932C86.2669 49.4827 85.2552 49.2275 84.0703 49.2275C82.9036 49.2275 81.901 49.4827 81.0625 49.9932C80.224 50.4854 79.5404 51.1689 79.0117 52.0439C78.4831 52.9007 78.0911 53.8942 77.8359 55.0244C77.5807 56.1364 77.4531 57.3304 77.4531 58.6064Z" fill="white"/>
<defs>
<linearGradient id="paint0_linear_81_11273" x1="53.5" y1="18.5264" x2="53.5" y2="93" gradientUnits="userSpaceOnUse">
<stop stop-color="#A6DA41"/>
<stop offset="1" stop-color="#77C31C"/>
</linearGradient>
</defs>
</svg>
