<svg width="245" height="144" viewBox="0 0 245 144" fill="none" xmlns="http://www.w3.org/2000/svg">
<path d="M241.015 143.529L234.428 110.557V110.518L212.549 0.853882L0 0.892392L28.4272 143.568L68.7953 143.529H69.1805H114.364H114.518H159.508H159.816H204.691H205.115H241.015Z" fill="#1D3F77"/>
<path d="M244.636 140.717H32.0865L3.62085 0.892392L216.208 0.853882L244.636 140.717Z" fill="#2A4E96"/>
<path d="M72.878 140.717H72.4543L44.0657 1.23901H44.4894L72.878 140.717Z" fill="#C0D8FB"/>
<path d="M118.177 140.717H117.753L89.3645 1.23901H89.7882L118.177 140.717Z" fill="#C0D8FB"/>
<path d="M163.476 140.717H163.052L134.663 1.23907H135.087L163.476 140.717Z" fill="#C0D8FB"/>
<path d="M208.774 140.717H208.351L179.962 1.23907H180.386L208.774 140.717Z" fill="#C0D8FB"/>
<path d="M222.949 34.0575H10.3617L10.2847 33.7108L222.872 33.6723L222.949 34.0575Z" fill="#C0D8FB"/>
<path d="M230.499 71.2285L17.9498 71.267L17.8728 70.8818L230.422 70.8433L230.499 71.2285Z" fill="#C0D8FB"/>
<path d="M238.087 108.4L25.4997 108.438L25.4226 108.053L238.01 108.014L238.087 108.4Z" fill="#C0D8FB"/>
<path d="M51.7696 37.9862L46.531 33.8647L50.0748 29.7816L55.2749 33.8647L51.7696 37.9862Z" fill="#C0D8FB"/>
<path d="M59.3581 75.3501L54.158 71.267L57.7017 67.1454L62.9018 71.2285L59.3581 75.3501Z" fill="#C0D8FB"/>
<path d="M97.2609 37.9863L92.0608 33.8648L95.5661 29.7432L100.805 33.8648L97.2609 37.9863Z" fill="#C0D8FB"/>
<path d="M104.849 75.3501L99.6492 71.2285L103.193 67.1454L108.393 71.2285L104.849 75.3501Z" fill="#C0D8FB"/>
<path d="M142.559 37.9863L137.359 33.8648L140.865 29.7432L146.103 33.8648L142.559 37.9863Z" fill="#C0D8FB"/>
<path d="M187.434 37.9863L182.234 33.8648L185.778 29.7432L190.978 33.8648L187.434 37.9863Z" fill="#C0D8FB"/>
<path d="M66.8693 112.329L61.6692 108.245L65.213 104.124L70.4131 108.245L66.8693 112.329Z" fill="#C0D8FB"/>
<path d="M112.399 112.329L107.16 108.245L110.704 104.124L115.943 108.245L112.399 112.329Z" fill="#C0D8FB"/>
<path d="M157.697 112.329L152.459 108.207L156.003 104.124L161.241 108.207L157.697 112.329Z" fill="#C0D8FB"/>
<path d="M202.572 112.329L197.372 108.207L200.916 104.124L206.116 108.207L202.572 112.329Z" fill="#C0D8FB"/>
<path d="M195.061 75.35L189.823 71.2285L193.367 67.1069L198.605 71.2285L195.061 75.35Z" fill="#C0D8FB"/>
<path d="M150.148 75.35L144.948 71.2285L148.492 67.1069L153.692 71.2285L150.148 75.35Z" fill="#C0D8FB"/>
</svg>
