<svg width="285" height="281" viewBox="0 0 285 281" fill="none" xmlns="http://www.w3.org/2000/svg">
<path d="M140.441 135.279L189.284 37.8644L208.274 0L211.471 1.34817L197.45 41.4852L174.492 107.276L147.953 139.401L140.441 135.279Z" fill="#83AFFC"/>
<path d="M189.284 37.8644L208.274 0L211.471 1.34817L197.45 41.4852L189.284 37.8644Z" fill="#F99746"/>
<path d="M137.09 141.866L143.446 136.088L220.947 215.785L248.95 244.597L246.639 247.178L214.63 221.794L158.738 177.458L137.09 141.866Z" fill="#83AFFC"/>
<path d="M214.629 221.794L220.947 215.785L248.95 244.597L246.639 247.178L214.629 221.794Z" fill="#F99746"/>
<path d="M0 193.405L48.3416 169.022L100.188 142.906L141.597 138.245L144.139 146.412L54.7358 177.843L1.34817 196.564L0 193.405Z" fill="#83AFFC"/>
<path d="M0 193.405L50.075 168.175L54.7358 177.843L1.34817 196.564L0 193.405Z" fill="#F99746"/>
<path d="M144.909 147.259C148.8 145.911 150.803 141.674 149.455 137.783C148.106 133.893 143.869 131.89 139.979 133.238C136.089 134.586 134.086 138.823 135.434 142.714C136.782 146.604 141.019 148.646 144.909 147.259Z" fill="#2B478B"/>
</svg>
