<svg width="175" height="156" viewBox="0 0 175 156" fill="none" xmlns="http://www.w3.org/2000/svg">
<path opacity="0.5" d="M173.998 77.0764L142.186 80.8819L110.372 84.7645L90.8444 80.0872C90.3744 80.969 89.5602 81.5783 88.5939 81.9551L87.9998 82C85.9998 82 87.9998 82 86.4998 82L85.6155 81.538L42.1187 123.884L24.5625 140.487L23.1099 139.203L38.4516 120.346L63.5668 89.4793L82.9272 78.015C82.8509 77.9373 82.8508 77.9373 82.8512 77.8988C82.8592 76.9744 83.2133 76.13 83.6815 75.4407L59.6093 22.1106L50.1614 1.227L51.8649 0.24034L64.1337 20.1085L85.5568 54.7715L89.5464 74.3363L173.823 75.0718L173.998 77.0764Z" fill="#AEC3FF"/>
</svg>
