<svg width="240" height="218" viewBox="0 0 240 218" fill="none" xmlns="http://www.w3.org/2000/svg">
<path d="M120.215 113.324L55.1946 168.984L29.926 190.593L28 188.667L50.3797 163.861L87.05 123.223L115.978 108.046L120.215 113.324Z" fill="#7FAAF7"/>
<path d="M55.1946 168.984L29.926 190.593L28 188.667L50.3797 163.861L55.1946 168.984Z" fill="#F99746"/>
<path d="M124.606 109.549L118.289 111.821L86.3949 30.5457L74.8777 1.15558L77.3429 0L92.7891 28.119L119.791 77.231L124.606 109.549Z" fill="#7FAAF7"/>
<path d="M92.7891 28.119L86.3949 30.5457L74.8777 1.15558L77.3429 0L92.7891 28.119Z" fill="#F99746"/>
<path d="M239.547 113.94L197.138 116.906L151.647 120.026L120.253 110.82L120.87 104.117L195.212 108.586L239.509 111.244L239.547 113.94Z" fill="#7FAAF7"/>
<path d="M239.548 113.94L195.636 116.983L195.212 108.586L239.509 111.244L239.548 113.94Z" fill="#F99746"/>
<path d="M120.6 103.27C117.365 103.077 114.63 105.543 114.437 108.74C114.245 111.975 116.71 114.71 119.907 114.903C123.143 115.095 125.878 112.63 126.07 109.433C126.263 106.236 123.836 103.463 120.6 103.27Z" fill="#2B478B"/>
</svg>
