<svg width="1624" height="805" viewBox="0 0 1624 805" fill="none" xmlns="http://www.w3.org/2000/svg">
<path d="M1848.92 605.699V606.021C1848.41 615.832 1847.12 625.043 1845.19 633.748C1834.96 679.76 1808.37 709.191 1801.73 716.33C1800.81 717.298 1800.3 717.85 1800.21 717.989C1771.36 717.989 1584.82 718.035 1372.29 717.942C1315.01 717.942 1255.8 717.896 1197.32 717.85C1170.78 717.85 1144.32 717.804 1118.29 717.804C1099.35 717.804 1080.55 717.758 1062.11 717.758C992.023 717.712 926.218 717.62 869.768 717.528C839.538 717.482 812.027 717.39 787.972 717.344C723.872 717.159 684.38 716.929 684.287 716.653L684.241 716.423C684.241 716.423 684.195 716.376 684.195 716.284C684.195 716.192 684.103 716.146 684.103 716.146C683.919 715.732 647.007 664.699 636.039 594.691C633.505 578.433 632.353 561.207 633.367 543.336V543.06C637.191 477.105 670.601 402.813 772.719 339.714C870.275 279.378 766.544 239.538 844.146 172.339C933.315 95.2377 1030.69 180.583 1129.85 145.579C1147.32 139.361 1164.92 129.459 1182.57 114.214C1192.48 105.647 1203.31 98.0933 1214.92 91.6452C1216.72 90.5859 1218.47 89.6187 1220.31 88.6975C1227.32 85.0589 1234.51 81.7888 1241.97 78.8411C1246.95 76.8606 1252.02 75.0643 1257.23 73.4062C1265.47 70.6888 1273.91 68.3859 1282.52 66.4975C1294.74 63.688 1307.41 61.6614 1320.27 60.2797C1325.84 59.6349 1331.51 59.1743 1337.27 58.8058C1442.25 52.1735 1559.66 87.1315 1626.48 139.684C1630.17 142.585 1633.72 145.579 1637.13 148.573C1638.51 149.817 1640.44 151.659 1642.75 154.008C1658.32 170.082 1690.07 210.936 1676.99 266.205C1675.88 270.903 1674.41 275.739 1672.61 280.667C1670.03 287.714 1666.67 294.945 1662.47 302.361C1655.97 313.875 1656.94 325.206 1662.84 336.674L1662.89 336.72C1663.21 337.319 1663.53 337.964 1663.9 338.562C1665.14 340.727 1666.53 342.892 1668.09 345.057C1668.97 346.3 1669.94 347.544 1670.9 348.787C1671.13 349.11 1671.41 349.386 1671.64 349.708C1672.15 350.353 1672.66 350.952 1673.21 351.551C1673.62 352.057 1674.08 352.518 1674.5 353.025C1674.91 353.531 1675.37 354.038 1675.84 354.544C1676.3 355.051 1676.76 355.512 1677.22 356.018C1677.68 356.525 1678.14 357.032 1678.65 357.538C1679.11 358.045 1679.61 358.552 1680.12 359.012C1680.63 359.519 1681.09 360.025 1681.6 360.486C1690.03 368.869 1692.33 379.416 1694.54 391.713C1695.42 396.503 1696.25 401.616 1697.4 406.913C1697.45 407.143 1697.49 407.373 1697.54 407.603C1698.55 412.071 1699.8 416.723 1701.5 421.559C1701.6 421.789 1701.69 422.02 1701.73 422.296C1703.25 426.487 1705.1 430.771 1707.45 435.192C1707.68 435.607 1707.86 436.021 1708.09 436.436C1708.28 436.758 1708.46 437.08 1708.65 437.403C1708.78 437.633 1708.92 437.863 1709.06 438.094C1709.29 438.508 1709.52 438.923 1709.75 439.291C1709.84 439.475 1709.94 439.614 1710.07 439.798C1711.73 442.607 1713.67 445.417 1715.79 448.319C1716.71 449.562 1717.72 450.852 1718.74 452.141C1724.27 458.958 1731.18 466.005 1739.89 473.19C1751.41 482.678 1766.11 492.488 1784.91 502.529C1787.91 504.141 1790.81 505.753 1793.58 507.365C1819.75 522.794 1836.15 539.974 1842.01 559.365C1842.84 562.082 1844.22 567.471 1845.6 573.873C1847.44 583.868 1849.43 596.257 1848.92 605.699Z" fill="#F8FCFF"/>
<path fill-rule="evenodd" clip-rule="evenodd" d="M402.851 -219.711C476.186 -221.473 549.204 -215.696 613.87 -188.045C685.929 -157.233 768.745 -119.433 786.335 -55.7353C803.792 7.4833 730.978 60.9409 699.06 120.457C670.921 172.927 668.944 238.776 610.651 271.855C552.498 304.856 474.017 284.32 402.851 288.549C323.838 293.244 243.863 323.298 171.273 297.965C91.7238 270.204 6.08144 217.154 0.230829 148.041C-5.72319 77.7059 105.138 39.8748 144.068 -23.41C174.487 -72.8612 150.829 -140.165 200.868 -178.122C252.524 -217.306 331.605 -217.999 402.851 -219.711Z" fill="#F8FCFF"/>
<path d="M1671.58 624.299C1671.58 624.415 1671.58 624.492 1671.62 624.607C1671.19 632.812 1670.11 640.516 1668.5 647.796L1625.2 654.575L1616.26 655.962L1611.18 656.771L1575.93 662.279L1572.78 662.78L1565.69 663.897L1563.84 664.205C1563.84 664.205 1562.34 664.397 1559.68 664.629C1559.45 664.667 1559.22 664.667 1558.99 664.706C1557.25 664.86 1555.06 665.052 1552.55 665.245C1551.63 665.322 1550.63 665.399 1549.63 665.438C1549.43 665.438 1549.24 665.476 1549.05 665.476C1547.62 665.592 1546.12 665.669 1544.54 665.746C1541.31 665.938 1537.84 666.054 1534.22 666.169C1532.79 666.208 1531.37 666.246 1529.94 666.246C1529.17 666.246 1528.44 666.246 1527.67 666.246C1526.74 666.246 1525.82 666.246 1524.93 666.246C1523.59 666.246 1522.2 666.208 1520.85 666.169C1519.85 666.131 1518.85 666.131 1517.85 666.092C1516.46 666.054 1515.07 665.977 1513.69 665.9C1513.49 665.9 1513.26 665.861 1513.03 665.861C1512.38 665.823 1511.76 665.784 1511.11 665.746C1507.95 665.515 1504.83 665.168 1501.9 664.744C1501.4 664.667 1500.9 664.59 1500.44 664.513C1489.34 662.703 1480.71 659.236 1478.71 653.073C1476.9 647.411 1480.83 639.36 1493.73 628.112C1495.89 626.263 1498.13 624.453 1500.44 622.758C1515.42 611.742 1533.87 603.922 1553.21 598.414C1554.02 598.183 1554.83 597.952 1555.63 597.721C1555.75 597.682 1555.87 597.644 1556.02 597.605C1556.25 597.567 1556.44 597.49 1556.67 597.413C1557.1 597.297 1557.56 597.181 1557.98 597.066C1558.75 596.873 1559.52 596.681 1560.26 596.488C1564.11 595.487 1568 594.601 1571.89 593.792C1572.85 593.599 1573.85 593.368 1574.82 593.175C1575.28 593.098 1575.74 592.983 1576.2 592.906C1576.51 592.829 1576.82 592.79 1577.17 592.713C1577.67 592.636 1578.13 592.521 1578.63 592.444C1594.81 589.401 1610.83 587.629 1625.24 586.666C1641.46 585.587 1655.67 585.472 1665.72 585.664C1666.88 588.476 1667.88 592.752 1668.73 597.798C1670 605.733 1670.92 615.478 1671.58 624.299Z" fill="#A8D29F"/>
<path d="M1218.1 360.751C1218.1 360.751 1205.39 338.949 1175 344.341C1144.64 349.734 1152.69 384.825 1135.9 401.311C1119.11 417.798 1104.43 432.512 1111.67 455.816C1118.87 479.12 1080.55 484.089 1080.66 519.296C1080.78 554.502 1088.94 575.226 1136.05 577.96C1183.16 580.695 1258.51 568.254 1268.71 554.04C1278.92 539.865 1277.19 508.703 1251.57 468.913C1225.96 429.161 1249.38 425.578 1232.24 402.544C1215.17 379.548 1227.23 370.226 1218.1 360.751Z" fill="#79B27F"/>
<path d="M1185.46 260.215C1185.46 260.215 1197.91 234.446 1227.72 237.335C1227.72 237.335 1270.98 194.386 1317.08 231.596C1317.08 231.596 1366.12 222.39 1402.4 239.569C1426.59 251.048 1434.61 263.066 1434.61 263.066L1185.46 260.215Z" fill="#E2F3FF"/>
<path d="M1141.86 489.405C1141.86 489.405 1158.69 460.246 1198.91 463.481C1198.91 463.481 1257.3 414.87 1319.55 457.01C1319.55 457.01 1385.73 446.571 1434.76 466.062C1467.43 479.043 1478.25 492.679 1478.25 492.679L1141.86 489.405Z" fill="#E2F3FF"/>
<path d="M757 324.35C757 324.35 768.055 305.167 794.518 307.324C794.518 307.324 832.921 275.353 873.867 303.049C873.867 303.049 917.394 296.192 949.596 308.981C971.09 317.532 978.177 326.468 978.177 326.468L757 324.35Z" fill="#E2F3FF"/>
<path d="M577 425.592C577 425.592 588.055 406.409 614.518 408.566C614.518 408.566 652.921 376.595 693.867 404.291C693.867 404.291 737.394 397.434 769.596 410.223C791.09 418.774 798.177 427.71 798.177 427.71L577 425.592Z" fill="#E2F3FF"/>
<path d="M1179 198.352C1179 198.352 1170.25 183.431 1149.32 185.108C1149.32 185.108 1118.93 160.239 1086.53 181.783C1086.53 181.783 1052.09 176.449 1026.61 186.397C1009.61 193.049 1004 200 1004 200L1179 198.352Z" fill="#E2F3FF"/>
<path d="M1342 113.84C1342 113.84 1348.45 103.34 1363.88 104.521C1363.88 104.521 1386.28 87.0202 1410.16 102.18C1410.16 102.18 1435.55 98.4272 1454.33 105.427C1466.87 110.108 1471 115 1471 115L1342 113.84Z" fill="#E2F3FF"/>
<path d="M863 222.84C863 222.84 858.252 212.34 846.885 213.521C846.885 213.521 830.39 196.02 812.803 211.18C812.803 211.18 794.108 207.427 780.276 214.427C771.044 219.108 768 224 768 224L863 222.84Z" fill="#E2F3FF"/>
<path d="M1083.49 654.151H1074.56L1076.48 400.695H1081.03L1083.49 654.151Z" fill="#739AF0"/>
<path d="M1078.22 402.324L1013.19 457.984L987.926 479.593L986 477.667L1008.38 452.861L1045.05 412.223L1073.98 397.046L1078.22 402.324Z" fill="#7FAAF7"/>
<path d="M1013.19 457.984L987.926 479.593L986 477.667L1008.38 452.861L1013.19 457.984Z" fill="#F99746"/>
<path d="M1082.61 398.549L1076.29 400.821L1044.39 319.546L1032.88 290.156L1035.34 289L1050.79 317.119L1077.79 366.231L1082.61 398.549Z" fill="#7FAAF7"/>
<path d="M1050.79 317.119L1044.39 319.546L1032.88 290.156L1035.34 289L1050.79 317.119Z" fill="#F99746"/>
<path d="M1197.55 402.94L1155.14 405.906L1109.65 409.026L1078.25 399.82L1078.87 393.117L1153.21 397.586L1197.51 400.244L1197.55 402.94Z" fill="#7FAAF7"/>
<path d="M1197.55 402.94L1153.64 405.983L1153.21 397.586L1197.51 400.244L1197.55 402.94Z" fill="#F99746"/>
<path d="M1078.6 392.27C1075.36 392.077 1072.63 394.543 1072.44 397.74C1072.24 400.975 1074.71 403.71 1077.91 403.903C1081.14 404.095 1083.88 401.63 1084.07 398.433C1084.26 395.236 1081.84 392.463 1078.6 392.27Z" fill="#2B478B"/>
<path d="M783.084 717H1053.18L1165.8 716.906H1369.43C1369.43 716.906 1369.57 716.717 1369.76 716.293C1369.9 716.01 1370.13 715.585 1370.42 715.114L1370.51 714.973C1370.51 714.973 1370.51 714.973 1370.51 714.878C1370.51 714.878 1370.6 714.784 1370.6 714.737C1371.07 714.124 1371.4 713.464 1371.83 712.662C1372.06 712.285 1372.3 711.814 1372.63 711.389C1372.63 711.295 1372.63 711.295 1372.63 711.248C1372.72 711.154 1372.72 711.154 1372.72 711.154C1374.27 708.466 1376.15 705.025 1378.37 700.782C1378.55 700.404 1378.79 700.027 1378.98 699.603C1380.06 696.444 1381.28 692.861 1382.6 688.948C1385.66 679.424 1389.18 667.826 1392.62 654.719C1393.98 649.533 1395.3 644.159 1396.57 638.548C1397.32 635.295 1398.07 631.948 1398.78 628.506C1398.97 627.516 1399.2 626.526 1399.39 625.489C1400.71 619.124 1401.98 612.523 1403.06 605.782C1405.27 592.628 1407.01 578.908 1408 565C1320.55 569.526 1151.97 581.407 1025.15 609.789C846.211 649.863 801.994 656.322 726.214 663.489C683.832 667.638 732.235 694.322 783.084 717Z" fill="#D4DFFF"/>
<path d="M989.055 681.192C989.055 681.192 1226.37 608.93 1286.12 603.691C1345.86 598.453 1288.62 610.702 1288.62 610.702C1288.62 610.702 1126.22 652.957 1088.47 670.984C1008.62 709.041 989.055 681.192 989.055 681.192Z" fill="#D4DFFF"/>
<path d="M1060.74 714.588C1060.74 714.588 1258.5 623.76 1312.04 609.007C1365.54 594.254 1315.51 614.862 1315.51 614.862C1315.51 614.862 1159.35 696.291 1126.65 716.861C1121.87 719.827 1060.74 714.588 1060.74 714.588Z" fill="#D4DFFF"/>
<path d="M1343.44 277.279L1392.28 179.864L1411.27 142L1414.47 143.348L1400.45 183.485L1377.49 249.276L1350.95 281.401L1343.44 277.279Z" fill="#83AFFC"/>
<path d="M1392.28 179.864L1411.27 142L1414.47 143.348L1400.45 183.485L1392.28 179.864Z" fill="#F99746"/>
<path d="M1340.09 283.866L1346.45 278.088L1423.95 357.785L1451.95 386.597L1449.64 389.178L1417.63 363.794L1361.74 319.458L1340.09 283.866Z" fill="#83AFFC"/>
<path d="M1417.63 363.794L1423.95 357.785L1451.95 386.597L1449.64 389.178L1417.63 363.794Z" fill="#F99746"/>
<path d="M1203 335.405L1251.34 311.022L1303.19 284.906L1344.6 280.245L1347.14 288.412L1257.74 319.843L1204.35 338.564L1203 335.405Z" fill="#83AFFC"/>
<path d="M1203 335.405L1253.07 310.175L1257.74 319.843L1204.35 338.564L1203 335.405Z" fill="#F99746"/>
<path d="M1347.91 289.259C1351.8 287.911 1353.8 283.674 1352.45 279.783C1351.11 275.893 1346.87 273.89 1342.98 275.238C1339.09 276.586 1337.09 280.823 1338.43 284.714C1339.78 288.604 1344.02 290.646 1347.91 289.259Z" fill="#2B478B"/>
<rect x="1347" y="284" width="3" height="3" transform="rotate(-180 1347 284)" fill="#D9D9D9"/>


<path d="M1350.57 492.833H1190.06V717.901H1350.57V492.833Z" fill="#F9DDBF"/>
<path d="M1475.33 498.803V717.862H1350.61V492.794H1469.9C1471.75 494.759 1473.56 496.762 1475.33 498.803Z" fill="#FFF3E9"/>
<path d="M1381.69 419.3L1369.02 445.416L1363.39 456.933L1363.2 457.395L1362.97 457.819L1362.78 458.166L1362.47 458.743L1362.35 459.052L1356.81 470.453L1356.5 471.031L1355.81 472.533L1345.95 492.794L1343.67 497.532L1340.48 504.081L1338.78 507.586H1179L1190.06 493.257L1190.4 492.794L1262.24 399.809L1262.32 399.732H1268.64L1366.09 399.385C1369.52 405.972 1374.95 412.636 1381.69 419.3Z" fill="#ED9F4A"/>
<path d="M1350.61 506.507V525.228L1190.06 532.007V507.586H1185.32L1268.64 399.693L1350.61 506.507Z" fill="#F9DDBF"/>
<path d="M1270.06 453.466H1266.71C1255.31 453.466 1246.06 462.711 1246.06 474.113V526.576H1290.05V473.458C1290.05 462.403 1281.08 453.466 1270.06 453.466Z" fill="#EFCDAF"/>
<path d="M1489.97 513.595H1347.64L1340.48 504.081L1332 492.794L1265.32 403.931L1262.24 399.77L1261.9 399.308H1404.19L1404.53 399.77L1407.65 403.931L1474.29 492.794L1482.77 504.081L1489.97 513.595Z" fill="#F99746"/>
<path d="M1251.23 537.823L1213.75 614.939H1100L1159.32 538.132L1251.23 537.823Z" fill="#ED9F4A"/>
<path d="M1254.62 537.823L1217.18 614.939H1103.43L1162.71 538.132L1254.62 537.823Z" fill="#F9DDBF"/>
<path d="M1216.94 614.939V717.67L1103.43 717.901V614.939H1216.94Z" fill="#F9DDBF"/>
<path d="M1313.05 614.939H1216.94V717.67H1313.05V614.939Z" fill="#FFF3E9"/>
<path d="M1323.6 619.484H1220.33L1159.32 538.132H1190.06H1260.82L1323.6 619.484Z" fill="#F99746"/>
<path d="M1153.97 580.926C1153.97 577.96 1156.35 575.572 1159.32 575.572C1162.29 575.572 1164.67 577.96 1164.67 580.926C1164.67 583.892 1162.29 586.281 1159.32 586.281C1156.35 586.281 1153.97 583.892 1153.97 580.926Z" fill="#EFCDAF"/>
<path d="M1323.6 619.484H1304L1190.06 538.132H1260.82L1323.6 619.484Z" fill="#E88338"/>
<path d="M1374.95 495.992H1453.07L1411.85 445.416H1333.73L1374.95 495.992Z" fill="#2B478B"/>
<path d="M1344.37 458.743H1422.48L1422.02 458.166H1343.9L1344.37 458.743Z" fill="#AEC3FF"/>
<path d="M1393.52 445.416L1434.69 495.992H1435.31L1394.09 445.416H1393.52Z" fill="#AEC3FF"/>
<path d="M1372.79 445.416L1414.01 495.992H1414.59L1373.41 445.416H1372.79Z" fill="#AEC3FF"/>
<path d="M1352.88 445.416L1394.09 495.992H1394.67L1353.46 445.416H1352.88Z" fill="#AEC3FF"/>
<path d="M1354.57 470.993H1432.73L1432.23 470.415H1354.11L1354.57 470.993Z" fill="#AEC3FF"/>
<path d="M1365.36 484.205H1443.48L1443.01 483.627H1364.9L1365.36 484.205Z" fill="#AEC3FF"/>
<path d="M1406.5 460.939L1406.96 458.474L1402.53 456.047L1402.07 458.474L1406.5 460.939Z" fill="#AEC3FF"/>
<path d="M1386.01 460.939L1386.47 458.474L1382.04 456.047L1381.61 458.474L1386.01 460.939Z" fill="#AEC3FF"/>
<path d="M1365.82 460.939L1366.24 458.474L1361.85 456.047L1361.39 458.474L1365.82 460.939Z" fill="#AEC3FF"/>
<path d="M1416.47 473.15L1416.9 470.684L1412.51 468.258L1412.04 470.684L1416.47 473.15Z" fill="#AEC3FF"/>
<path d="M1395.98 473.15L1396.44 470.684L1392.01 468.258L1391.55 470.684L1395.98 473.15Z" fill="#AEC3FF"/>
<path d="M1375.76 473.15L1376.22 470.684L1371.79 468.258L1371.37 470.684L1375.76 473.15Z" fill="#AEC3FF"/>
<path d="M1427.26 486.362L1427.68 483.935L1423.25 481.47L1422.83 483.935L1427.26 486.362Z" fill="#AEC3FF"/>
<path d="M1406.77 486.362L1407.23 483.935L1402.8 481.47L1402.34 483.935L1406.77 486.362Z" fill="#AEC3FF"/>
<path d="M1386.54 486.362L1387.01 483.935L1382.58 481.47L1382.11 483.935L1386.54 486.362Z" fill="#AEC3FF"/>
<path d="M1227.5 603.807H1298.26L1260.93 558.008H1190.13L1227.5 603.807Z" fill="#2B478B"/>
<path d="M1199.76 570.064H1270.56L1270.14 569.525H1199.34L1199.76 570.064Z" fill="#AEC3FF"/>
<path d="M1244.29 558.008L1281.62 603.807H1282.16L1244.83 558.008H1244.29Z" fill="#AEC3FF"/>
<path d="M1225.53 558.008L1262.86 603.807H1263.4L1226.07 558.008H1225.53Z" fill="#AEC3FF"/>
<path d="M1207.47 558.008L1244.83 603.807H1245.37L1208.01 558.008H1207.47Z" fill="#AEC3FF"/>
<path d="M1209.05 581.196H1279.81L1279.38 580.657H1208.58L1209.05 581.196Z" fill="#AEC3FF"/>
<path d="M1218.79 593.176H1289.59L1289.17 592.636H1218.37L1218.79 593.176Z" fill="#AEC3FF"/>
<path d="M1256.08 572.067L1256.47 569.833L1252.46 567.637L1252.07 569.833L1256.08 572.067Z" fill="#AEC3FF"/>
<path d="M1237.51 572.067L1237.94 569.833L1233.93 567.637L1233.51 569.833L1237.51 572.067Z" fill="#AEC3FF"/>
<path d="M1219.22 572.067L1219.6 569.833L1215.6 567.637L1215.21 569.833L1219.22 572.067Z" fill="#AEC3FF"/>
<path d="M1265.09 583.122L1265.52 580.926L1261.51 578.731L1261.09 580.926L1265.09 583.122Z" fill="#AEC3FF"/>
<path d="M1246.53 583.122L1246.95 580.926L1242.94 578.731L1242.52 580.926L1246.53 583.122Z" fill="#AEC3FF"/>
<path d="M1228.23 583.122L1228.62 580.926L1224.61 578.731L1224.22 580.926L1228.23 583.122Z" fill="#AEC3FF"/>
<path d="M1274.88 595.101L1275.26 592.906L1271.26 590.71L1270.87 592.906L1274.88 595.101Z" fill="#AEC3FF"/>
<path d="M1256.31 595.101L1256.73 592.906L1252.73 590.71L1252.3 592.906L1256.31 595.101Z" fill="#AEC3FF"/>
<path d="M1237.98 595.101L1238.4 592.906L1234.39 590.71L1234.01 592.906L1237.98 595.101Z" fill="#AEC3FF"/>
<path d="M702.508 717C690.785 716.9 684.443 716.793 684.405 716.679L684.357 716.434C684.357 716.434 684.308 716.385 684.308 716.288C684.308 716.19 684.211 716.141 684.211 716.141C684.202 716.119 684.098 715.966 683.908 715.687C680.865 711.205 655.688 674.134 641 621.1C647.61 618.562 669.521 611.241 700.159 612.064C701.417 612.1 702.674 612.137 703.968 612.209C715.432 612.753 728.045 614.459 741.449 617.942C741.655 617.99 741.862 618.045 742.071 618.101C742.336 618.172 742.606 618.244 742.887 618.305C742.958 618.323 743.021 618.341 743.084 618.359C743.147 618.377 743.21 618.396 743.282 618.414C743.445 618.458 743.61 618.503 743.775 618.547C744.555 618.758 745.35 618.973 746.121 619.212C747.199 619.502 748.277 619.829 749.355 620.156C749.553 620.21 749.741 620.273 749.93 620.337C750.119 620.4 750.307 620.464 750.505 620.518C751.942 620.954 753.38 621.425 754.817 621.933C771.707 627.666 782.164 633.835 789.459 639.822C789.51 639.86 789.561 639.903 789.613 639.947C789.709 640.028 789.81 640.114 789.927 640.185C793.412 643.124 796.179 645.99 798.551 648.712C798.747 648.943 798.943 649.17 799.137 649.395C799.583 649.913 800.019 650.419 800.42 650.925C801.175 651.832 801.893 652.703 802.576 653.574L802.941 654.02C805.171 656.752 807.237 659.283 809.691 661.52C816.735 668.015 826.689 671.934 851.125 670.954C855.51 670.773 859.714 670.737 863.703 670.809C916.349 671.934 936.329 694.721 928.28 716.818C928.244 716.891 928.244 716.927 928.208 717H702.508Z" fill="#A8D29F"/>
<path d="M1784 576.016C1768.3 572.906 1743.74 569.09 1713.33 568.21C1694.52 567.623 1673.43 568.21 1650.81 570.675C1649.99 570.734 1649.23 570.851 1648.41 570.91C1646.07 571.204 1643.66 571.497 1641.26 571.79C1636.05 572.495 1630.77 573.258 1625.38 574.197C1623.8 574.49 1622.22 574.725 1620.58 575.019C1618.88 575.312 1617.12 575.664 1615.42 575.958C1611.73 576.662 1607.98 577.425 1604.23 578.305C1602.59 578.658 1600.89 579.069 1599.25 579.421C1597.61 579.773 1595.91 580.184 1594.27 580.595C1592.22 581.123 1590.22 581.592 1588.17 582.121C1587.53 582.297 1586.88 582.473 1586.24 582.649C1584.36 583.177 1582.49 583.647 1580.61 584.234C1573 586.405 1565.32 588.812 1557.59 591.512C1544.87 595.914 1533.62 600.198 1523.54 604.424C1510.77 609.766 1499.87 614.931 1490.49 619.802C1481.23 624.615 1473.32 629.193 1466.41 633.419C1428.97 656.486 1419.71 670.69 1368.67 666.699C1364.1 666.347 1359.77 666.229 1355.6 666.288C1341.89 666.464 1330.23 668.695 1320.27 672.099C1300.29 678.907 1287.28 690.588 1279.43 700.331C1272.93 708.372 1269.88 715.063 1269.18 716.648C1269.06 716.883 1269 717 1269 717H1279.43H1320.27H1466.47H1523.6H1538.19H1548.44H1674.25H1684.5H1713.39H1724C1732.44 707.902 1766.3 670.455 1779.25 611.761C1781.71 600.668 1783.36 588.87 1784 576.427V576.016Z" fill="#A8D29F"/>
<path d="M895 516.556C895 516.556 901.471 504.5 916.879 505.809C916.879 505.809 939.297 485.664 963.179 503.113C963.179 503.113 988.602 498.799 1007.4 506.849C1019.96 512.242 1024.08 517.866 1024.08 517.866L895 516.556Z" fill="#F8FCFF"/>
<path d="M1473 364.522C1473 364.522 1478.35 353.044 1491.14 354.315C1491.14 354.315 1509.71 335.171 1529.51 351.773C1529.51 351.773 1550.54 347.651 1566.14 355.316C1576.54 360.439 1579.97 365.794 1579.97 365.794L1473 364.522Z" fill="#F8FCFF"/>
<path d="M763.162 716.119L778.415 715.927L814.046 567.435L798.792 567.628L763.162 716.119Z" fill="#1D3F77"/>
<path d="M737.97 719.432H806.38C806.38 715.426 803.145 712.19 799.139 712.19H745.212C741.206 712.152 737.97 715.426 737.97 719.432Z" fill="#1D3F77"/>
<path d="M896.015 650.675L889.428 617.703V617.664L867.549 508L655 508.039L683.427 650.714L723.795 650.675H724.181H769.364H769.518H814.508H814.816H859.691H860.115H896.015Z" fill="#1D3F77"/>
<path d="M899.635 647.863H687.086L658.621 508.039L871.208 508L899.635 647.863Z" fill="#2A4E96"/>
<path d="M727.878 647.863H727.455L699.066 508.385H699.49L727.878 647.863Z" fill="#C0D8FB"/>
<path d="M773.177 647.863H772.753L744.365 508.385H744.788L773.177 647.863Z" fill="#C0D8FB"/>
<path d="M818.476 647.863H818.052L789.663 508.385H790.087L818.476 647.863Z" fill="#C0D8FB"/>
<path d="M863.774 647.863H863.351L834.962 508.385H835.386L863.774 647.863Z" fill="#C0D8FB"/>
<path d="M877.949 541.204H665.362L665.285 540.857L877.872 540.818L877.949 541.204Z" fill="#C0D8FB"/>
<path d="M885.499 578.375L672.95 578.413L672.873 578.028L885.422 577.989L885.499 578.375Z" fill="#C0D8FB"/>
<path d="M893.087 615.546L680.5 615.584L680.423 615.199L893.01 615.161L893.087 615.546Z" fill="#C0D8FB"/>
<path d="M706.769 545.132L701.531 541.011L705.075 536.928L710.275 541.011L706.769 545.132Z" fill="#C0D8FB"/>
<path d="M714.358 582.496L709.158 578.413L712.701 574.292L717.902 578.375L714.358 582.496Z" fill="#C0D8FB"/>
<path d="M752.261 545.132L747.061 541.011L750.566 536.889L755.804 541.011L752.261 545.132Z" fill="#C0D8FB"/>
<path d="M759.849 582.496L754.649 578.375L758.193 574.292L763.393 578.375L759.849 582.496Z" fill="#C0D8FB"/>
<path d="M797.559 545.132L792.359 541.011L795.865 536.889L801.103 541.011L797.559 545.132Z" fill="#C0D8FB"/>
<path d="M842.434 545.132L837.234 541.011L840.778 536.889L845.978 541.011L842.434 545.132Z" fill="#C0D8FB"/>
<path d="M721.869 619.475L716.669 615.392L720.213 611.27L725.413 615.392L721.869 619.475Z" fill="#C0D8FB"/>
<path d="M767.399 619.475L762.16 615.392L765.704 611.27L770.943 615.392L767.399 619.475Z" fill="#C0D8FB"/>
<path d="M812.697 619.475L807.458 615.353L811.002 611.27L816.241 615.353L812.697 619.475Z" fill="#C0D8FB"/>
<path d="M857.572 619.475L852.372 615.353L855.916 611.27L861.116 615.353L857.572 619.475Z" fill="#C0D8FB"/>
<path d="M850.061 582.496L844.823 578.375L848.366 574.253L853.605 578.375L850.061 582.496Z" fill="#C0D8FB"/>
<path d="M805.148 582.496L799.948 578.375L803.492 574.253L808.692 578.375L805.148 582.496Z" fill="#C0D8FB"/>
<path d="M897.927 647.675L901.587 644.863L895 644.825L897.927 647.675Z" fill="#1D3F77"/>
<path d="M981.303 716.013L991.742 715.859L1016.24 613.937L1005.76 614.053L981.303 716.013Z" fill="#1D3F77"/>
<path d="M963.97 718.286H1010.96C1010.96 715.551 1008.73 713.317 1005.99 713.317H968.939C966.204 713.278 963.97 715.513 963.97 718.286Z" fill="#1D3F77"/>
<path d="M1072.48 671.061L1067.97 648.451V648.412L1052.95 573.107L907 573.146L926.568 671.1H954.263H954.533L985.541 671.061H985.656H1016.55H1016.74H1047.56H1047.86H1072.48Z" fill="#1D3F77"/>
<path d="M1074.98 669.136H929.033L909.503 573.146L1055.45 573.107L1074.98 669.136Z" fill="#2A4E96"/>
<path d="M957.036 669.135H956.767L937.276 573.377H937.584L957.036 669.135Z" fill="#C0D8FB"/>
<path d="M988.16 669.135H987.89L968.4 573.377H968.669L988.16 669.135Z" fill="#C0D8FB"/>
<path d="M1019.24 669.135H1018.98L999.484 573.377H999.754L1019.24 669.135Z" fill="#C0D8FB"/>
<path d="M1050.37 669.135H1050.06L1030.57 573.377H1030.88L1050.37 669.135Z" fill="#C0D8FB"/>
<path d="M1060.11 595.91H914.164L914.087 595.679L1060.04 595.641L1060.11 595.91Z" fill="#C0D8FB"/>
<path d="M1065.28 621.449H919.326L919.288 621.179H1065.24L1065.28 621.449Z" fill="#C0D8FB"/>
<path d="M1070.48 646.948L924.526 646.987L924.488 646.717L1070.44 646.679L1070.48 646.948Z" fill="#C0D8FB"/>
<path d="M942.553 598.607L938.971 595.795L941.397 592.983L944.98 595.795L942.553 598.607Z" fill="#C0D8FB"/>
<path d="M947.792 624.261L944.209 621.449L946.636 618.637L950.218 621.449L947.792 624.261Z" fill="#C0D8FB"/>
<path d="M973.792 598.607L970.21 595.795L972.637 592.944L976.219 595.795L973.792 598.607Z" fill="#C0D8FB"/>
<path d="M979.031 624.261L975.449 621.449L977.875 618.637L981.458 621.449L979.031 624.261Z" fill="#C0D8FB"/>
<path d="M1004.92 598.607L1001.33 595.795L1003.76 592.944L1007.34 595.795L1004.92 598.607Z" fill="#C0D8FB"/>
<path d="M1035.73 598.607L1032.15 595.795L1034.58 592.944L1038.16 595.795L1035.73 598.607Z" fill="#C0D8FB"/>
<path d="M952.953 649.683L949.371 646.833L951.798 644.021L955.38 646.833L952.953 649.683Z" fill="#C0D8FB"/>
<path d="M984.192 649.645L980.61 646.833L983.037 644.021L986.619 646.833L984.192 649.645Z" fill="#C0D8FB"/>
<path d="M1015.28 649.645L1011.7 646.833L1014.12 644.021L1017.7 646.833L1015.28 649.645Z" fill="#C0D8FB"/>
<path d="M1046.09 649.645L1042.55 646.833L1044.98 644.021L1048.56 646.833L1046.09 649.645Z" fill="#C0D8FB"/>
<path d="M1040.93 624.261L1037.35 621.449L1039.78 618.598L1043.36 621.449L1040.93 624.261Z" fill="#C0D8FB"/>
<path d="M1010.12 624.261L1006.53 621.449L1008.96 618.598L1012.54 621.449L1010.12 624.261Z" fill="#C0D8FB"/>
<path d="M1072.82 671.061L1075.32 669.135H1067L1072.82 671.061Z" fill="#1D3F77"/>
<path d="M1203.29 681.731L1206.75 681.038C1206.75 681.038 1198.47 648.22 1199.59 645.485C1200.51 643.251 1210.07 641.594 1214.77 637.665C1215.77 636.818 1216.54 635.893 1216.96 634.853C1219.47 628.767 1215.38 624.222 1215.38 624.222C1215.38 624.222 1206.87 626.187 1199.17 629.499C1193.66 631.849 1188.57 634.93 1187.15 638.474C1183.76 647.102 1203.29 681.731 1203.29 681.731Z" fill="#E8945B"/>
<path d="M1193.81 686.816C1193.85 686.469 1194.08 686.161 1194.43 685.968C1195.24 685.506 1196.93 684.851 1198.2 683.156C1198.93 682.193 1201.86 679.381 1201.86 679.381C1201.94 679.381 1202.32 679.381 1204.17 680.113C1205.14 680.499 1206.14 678.688 1206.14 678.688C1206.14 678.688 1206.45 678.804 1206.72 679.112C1206.95 679.343 1207.14 679.69 1207.18 680.19C1207.22 680.884 1207.95 682.001 1208.49 682.771C1208.8 683.233 1209.07 683.542 1209.07 683.542C1209.07 683.542 1209.26 683.927 1207.64 684.543L1205.68 685.044C1204.98 685.121 1204.48 685.082 1203.79 685.159C1202.75 685.313 1202.36 685.814 1202.29 685.891V685.93L1193.97 688.087C1193.7 687.971 1193.73 687.316 1193.81 686.816Z" fill="#415DA5"/>
<path d="M1177.48 688.125C1178.33 688.125 1179.02 687.432 1179.02 686.585C1179.02 667.364 1163.38 651.725 1144.16 651.725C1139.73 651.725 1135.38 652.534 1131.3 654.151C1130.49 654.46 1130.1 655.384 1130.41 656.154C1130.72 656.963 1131.6 657.349 1132.41 657.04C1136.15 655.577 1140.08 654.806 1144.12 654.806C1161.65 654.806 1175.9 669.058 1175.9 686.585C1175.94 687.432 1176.63 688.125 1177.48 688.125Z" fill="#2C3A64"/>
<path d="M1149.44 686.546C1149.44 683.696 1147.13 681.384 1144.28 681.384C1141.43 681.384 1139.11 683.696 1139.11 686.546C1139.11 689.396 1141.43 691.708 1144.28 691.708C1147.13 691.708 1149.44 689.396 1149.44 686.546Z" fill="#415DA5"/>
<path d="M1152.94 661.74L1144.18 686.139L1144.84 686.374L1153.59 661.975L1152.94 661.74Z" fill="#415DA5"/>
<path d="M1168.97 697.563L1169.24 696.908L1144.51 686.276L1128.21 663.011L1127.64 663.435L1144.04 686.854L1144.12 686.893L1168.97 697.563Z" fill="#415DA5"/>
<path d="M1154.1 713.433L1154.75 713.201C1154.56 712.662 1145.01 687.471 1144.58 686.431L1144.35 685.776L1128.95 710.158L1129.52 710.544L1144.2 687.316C1147.7 696.561 1153.94 713.047 1154.1 713.433Z" fill="#415DA5"/>
<path d="M1171.65 679.696L1144.17 684.423L1144.29 685.106L1171.77 680.379L1171.65 679.696Z" fill="#415DA5"/>
<path d="M1134.78 660.334L1134.12 660.553L1142.18 684.706L1142.84 684.486L1134.78 660.334Z" fill="#415DA5"/>
<path d="M1144.31 686.931L1144.43 686.854L1169.62 674.104L1169.31 673.488L1144.2 686.199L1117.2 681.654L1117.08 682.348L1144.31 686.931Z" fill="#415DA5"/>
<path d="M1134.11 712.585C1134.26 712.161 1140.73 696.214 1144.35 687.316L1158.33 709.311L1158.91 708.926L1144.2 685.776L1143.93 686.392C1143.51 687.432 1133.61 711.776 1133.41 712.315L1134.11 712.585Z" fill="#415DA5"/>
<path d="M1144.33 686.203L1144.23 686.889L1171.35 690.909L1171.46 690.223L1144.33 686.203Z" fill="#415DA5"/>
<path d="M1160.41 665.18L1145.35 682.511L1145.88 682.965L1160.93 665.635L1160.41 665.18Z" fill="#415DA5"/>
<path d="M1143.74 688.467L1143.05 688.525L1145.15 713.899L1145.85 713.842L1143.74 688.467Z" fill="#415DA5"/>
<path d="M1145.27 684.951L1121.3 701.566L1121.7 702.136L1145.66 685.521L1145.27 684.951Z" fill="#415DA5"/>
<path d="M1164.15 705.343L1164.65 704.881L1144.62 684.659V658.389H1143.93V684.967L1164.15 705.343Z" fill="#415DA5"/>
<path d="M1168.85 668.904C1168.31 668.134 1167.7 667.363 1167.08 666.67C1164.69 663.935 1161.84 661.624 1158.61 659.891C1157.22 659.12 1155.72 658.466 1154.21 657.965C1151.09 656.886 1147.74 656.308 1144.28 656.308C1143.2 656.308 1142.12 656.347 1141.08 656.462C1134.8 657.117 1129.06 659.737 1124.55 663.627C1118.12 669.174 1114 677.417 1114 686.546C1114 689.319 1114.39 692.054 1115.12 694.712C1115.77 697.1 1116.73 699.411 1117.97 701.568C1118.01 701.646 1118.04 701.723 1118.08 701.761C1120.7 706.268 1124.44 710.043 1128.95 712.662C1132.49 714.742 1136.38 716.052 1140.42 716.591C1141.7 716.745 1142.97 716.822 1144.24 716.822C1145.55 716.822 1146.86 716.745 1148.13 716.591C1163 714.665 1174.51 701.954 1174.51 686.546C1174.55 679.959 1172.43 673.873 1168.85 668.904ZM1168.35 696.522C1168.27 696.754 1168.16 696.946 1168.08 697.177C1166.96 699.643 1165.5 701.915 1163.69 703.918C1163.54 704.111 1163.38 704.265 1163.23 704.419C1161.84 705.921 1160.26 707.231 1158.53 708.348C1158.34 708.463 1158.14 708.617 1157.95 708.733C1156.64 709.542 1155.29 710.235 1153.83 710.813C1153.6 710.89 1153.41 710.967 1153.17 711.083C1150.82 711.93 1148.32 712.469 1145.74 712.624C1145.51 712.624 1145.28 712.662 1145.05 712.662C1144.78 712.662 1144.55 712.662 1144.28 712.662C1141 712.662 1137.8 712.046 1134.8 710.89C1134.57 710.813 1134.38 710.736 1134.15 710.621C1133.11 710.158 1132.07 709.658 1131.1 709.08C1130.95 709.003 1130.79 708.887 1130.64 708.81C1130.45 708.695 1130.26 708.579 1130.06 708.425C1127.37 706.692 1125.06 704.457 1123.17 701.838C1123.05 701.684 1122.94 701.491 1122.82 701.337C1122.71 701.145 1122.55 700.952 1122.44 700.76C1122.2 700.413 1121.97 700.028 1121.74 699.681C1120.47 697.485 1119.51 695.136 1118.93 692.671C1118.47 690.706 1118.2 688.626 1118.2 686.585C1118.2 685.236 1118.31 683.888 1118.51 682.617C1118.55 682.386 1118.58 682.155 1118.62 681.924C1119.85 675.183 1123.71 669.289 1129.06 665.437C1129.25 665.283 1129.45 665.168 1129.64 665.052C1131.22 663.974 1132.91 663.049 1134.72 662.356C1134.95 662.279 1135.15 662.202 1135.38 662.125C1138.07 661.162 1140.92 660.584 1143.93 660.546C1144.04 660.546 1144.16 660.546 1144.28 660.546C1144.39 660.546 1144.51 660.546 1144.62 660.546C1147.43 660.584 1150.13 661.046 1152.63 661.932C1152.71 661.971 1152.75 661.971 1152.83 662.009C1153.06 662.086 1153.25 662.163 1153.48 662.24C1154.64 662.664 1155.72 663.203 1156.79 663.781C1157.91 664.397 1158.95 665.052 1159.95 665.823C1160.15 665.977 1160.34 666.092 1160.49 666.246C1161.46 667.017 1162.38 667.864 1163.23 668.789C1164.08 669.675 1164.85 670.638 1165.54 671.601C1166.19 672.525 1166.81 673.527 1167.35 674.528C1167.46 674.721 1167.58 674.952 1167.66 675.144C1168.43 676.724 1169.08 678.418 1169.51 680.152C1169.54 680.383 1169.62 680.614 1169.66 680.845C1170.08 682.694 1170.32 684.62 1170.32 686.623C1170.32 687.817 1170.24 688.973 1170.08 690.09C1170.05 690.321 1170.01 690.552 1169.97 690.783C1169.7 692.748 1169.12 694.712 1168.35 696.522Z" fill="#202E51"/>
<path d="M1217.53 634.605L1199.74 690.263L1202.75 691.225L1220.54 635.567L1217.53 634.605Z" fill="#739CF3"/>
<path d="M1204.25 691.399L1246.24 687.74L1168.35 635.084L1172.82 644.213L1237.11 685.39L1203.98 688.241L1204.25 691.399Z" fill="#739CF3"/>
<path d="M1198.59 688.934L1201.25 687.239L1168.93 635.47L1165.15 639.36L1198.59 688.934Z" fill="#739CF3"/>
<path d="M1146.78 685.159L1164.77 646.64L1162.34 645.677C1160.76 645.061 1158.99 645.831 1158.37 647.372L1143.85 683.965L1146.78 685.159Z" fill="#415DA5"/>
<path d="M1164.77 646.64C1167.39 639.899 1171.7 629.268 1171.66 629.384L1169.04 627.65C1168.93 627.843 1168.81 627.958 1161.99 645.677L1164.77 646.64Z" fill="#415DA5"/>
<path d="M1179.87 633.081C1180.91 631.656 1180.56 629.653 1179.14 628.613C1177.71 627.573 1175.71 627.92 1174.67 629.345C1173.63 630.77 1173.97 632.773 1175.4 633.813C1176.82 634.853 1178.83 634.507 1179.87 633.081Z" fill="#415DA5"/>
<path d="M1167.77 624.723C1168.81 623.298 1168.47 621.295 1167.04 620.255C1165.62 619.215 1163.61 619.561 1162.57 620.986C1161.53 622.412 1161.88 624.415 1163.3 625.455C1164.77 626.456 1166.73 626.148 1167.77 624.723Z" fill="#415DA5"/>
<path d="M1164.65 625.84L1176.86 633.621L1178.56 630.27L1166.35 622.527L1164.65 625.84Z" fill="#415DA5"/>
<path d="M1184.76 698.795H1191.58C1192.39 698.795 1193.04 698.14 1193.04 697.331C1193.04 696.523 1192.39 695.868 1191.58 695.868H1184.76C1183.95 695.868 1183.3 696.523 1183.3 697.331C1183.3 698.14 1183.95 698.795 1184.76 698.795Z" fill="#415DA5"/>
<path d="M1201.42 689.632L1187.61 695.926L1188.12 697.047L1201.93 690.754L1201.42 689.632Z" fill="#415DA5"/>
<path d="M1246.85 686.546C1246.85 683.696 1244.54 681.384 1241.69 681.384C1238.84 681.384 1236.53 683.696 1236.53 686.546C1236.53 689.396 1238.84 691.708 1241.69 691.708C1244.54 691.708 1246.85 689.396 1246.85 686.546Z" fill="#415DA5"/>
<path d="M1250.36 661.75L1241.61 686.149L1242.26 686.384L1251.02 661.984L1250.36 661.75Z" fill="#415DA5"/>
<path d="M1266.38 697.563L1266.69 696.908L1241.92 686.276L1225.63 663.011L1225.05 663.435L1241.46 686.854L1241.54 686.893L1266.38 697.563Z" fill="#415DA5"/>
<path d="M1251.51 713.432L1252.17 713.201C1251.98 712.662 1242.42 687.47 1242 686.43L1241.77 685.776L1226.36 710.158L1226.94 710.543L1241.61 687.316C1245.12 696.561 1251.36 713.047 1251.51 713.432Z" fill="#415DA5"/>
<path d="M1269.1 679.689L1241.62 684.417L1241.74 685.1L1269.22 680.373L1269.1 679.689Z" fill="#415DA5"/>
<path d="M1232.2 660.32L1231.54 660.54L1239.6 684.692L1240.26 684.473L1232.2 660.32Z" fill="#415DA5"/>
<path d="M1241.73 686.931L1241.84 686.854L1267.04 674.104L1266.73 673.488L1241.61 686.199L1214.61 681.654L1214.5 682.347L1241.73 686.931Z" fill="#415DA5"/>
<path d="M1231.52 712.585C1231.68 712.161 1238.15 696.214 1241.77 687.316L1255.75 709.311L1256.33 708.926L1241.61 685.776L1241.34 686.392C1240.92 687.432 1231.02 711.776 1230.83 712.315L1231.52 712.585Z" fill="#415DA5"/>
<path d="M1241.74 686.233L1241.64 686.918L1268.77 690.953L1268.87 690.267L1241.74 686.233Z" fill="#415DA5"/>
<path d="M1257.85 665.159L1242.8 682.49L1243.32 682.944L1258.38 665.614L1257.85 665.159Z" fill="#415DA5"/>
<path d="M1241.16 688.47L1240.47 688.527L1242.58 713.902L1243.27 713.845L1241.16 688.47Z" fill="#415DA5"/>
<path d="M1242.72 684.936L1218.76 701.551L1219.15 702.121L1243.11 685.506L1242.72 684.936Z" fill="#415DA5"/>
<path d="M1261.57 705.343L1262.07 704.881L1242.04 684.659V658.388H1241.34V684.967L1261.57 705.343Z" fill="#415DA5"/>
<path d="M1241.69 656.27C1237.07 656.27 1232.68 657.31 1228.75 659.197C1224.32 661.316 1220.47 664.436 1217.54 668.327C1216.77 669.328 1216.08 670.407 1215.46 671.485C1212.92 675.915 1211.45 681.076 1211.45 686.546C1211.45 686.893 1211.45 687.239 1211.45 687.586C1211.49 688.626 1211.57 689.705 1211.72 690.706C1212.26 694.597 1213.57 698.333 1215.54 701.723C1218 705.998 1221.51 709.581 1225.71 712.2C1225.94 712.354 1226.17 712.508 1226.4 712.624C1229.9 714.665 1233.76 716.013 1237.8 716.514C1239.11 716.668 1240.42 716.784 1241.73 716.784C1243.08 716.784 1244.39 716.707 1245.66 716.514C1260.49 714.588 1272.01 701.838 1272.01 686.508C1271.97 669.867 1258.37 656.27 1241.69 656.27ZM1265.77 696.523C1265.69 696.754 1265.57 696.946 1265.5 697.177C1264.38 699.643 1262.92 701.915 1261.1 703.918C1260.95 704.111 1260.8 704.265 1260.64 704.419C1259.26 705.921 1257.68 707.231 1255.94 708.348C1255.75 708.464 1255.56 708.618 1255.37 708.733C1254.06 709.542 1252.71 710.235 1251.24 710.813C1251.01 710.89 1250.82 710.967 1250.59 711.083C1248.24 711.93 1245.74 712.47 1243.12 712.624C1242.89 712.624 1242.65 712.662 1242.42 712.662C1242.15 712.662 1241.92 712.662 1241.65 712.662C1238.38 712.662 1235.18 712.046 1232.18 710.89C1231.95 710.813 1231.75 710.736 1231.52 710.621C1230.48 710.158 1229.44 709.658 1228.48 709.08C1228.33 709.003 1228.17 708.887 1228.02 708.81C1227.82 708.695 1227.63 708.579 1227.44 708.425C1224.59 706.576 1222.12 704.149 1220.2 701.376C1220.08 701.183 1219.93 700.991 1219.81 700.798C1219.58 700.452 1219.35 700.066 1219.12 699.72C1217.46 696.869 1216.35 693.711 1215.88 690.437C1215.73 689.397 1215.65 688.357 1215.61 687.278C1215.61 687.047 1215.61 686.816 1215.61 686.585C1215.61 685.236 1215.73 683.888 1215.92 682.617C1215.96 682.386 1216 682.155 1216.04 681.924C1216.58 679.035 1217.58 676.261 1219 673.796C1219.62 672.718 1220.27 671.678 1221.04 670.715C1222.59 668.712 1224.43 666.94 1226.48 665.438C1226.67 665.284 1226.86 665.168 1227.05 665.052C1228.63 663.974 1230.33 663.049 1232.14 662.356C1232.37 662.279 1232.56 662.202 1232.79 662.125C1234.41 661.547 1236.11 661.085 1237.88 660.854C1238.99 660.7 1240.15 660.584 1241.34 660.584C1241.46 660.584 1241.58 660.584 1241.69 660.584C1241.81 660.584 1241.92 660.584 1242.04 660.584C1244.93 660.623 1247.66 661.123 1250.24 662.048C1250.47 662.125 1250.67 662.202 1250.9 662.279C1253.21 663.165 1255.4 664.359 1257.33 665.861C1257.52 666.015 1257.72 666.131 1257.87 666.285C1260.68 668.519 1263.03 671.37 1264.73 674.567C1264.84 674.759 1264.96 674.99 1265.03 675.183C1265.8 676.762 1266.46 678.457 1266.88 680.19C1266.92 680.422 1267 680.653 1267.04 680.884C1267.46 682.733 1267.69 684.659 1267.69 686.662C1267.69 687.856 1267.61 689.011 1267.46 690.128C1267.42 690.36 1267.38 690.591 1267.34 690.822C1267.11 692.748 1266.54 694.712 1265.77 696.523Z" fill="#202E51"/>
<path d="M1217 655.5C1217.46 655.654 1217.92 655.615 1218.35 655.345C1232.52 646.794 1252.13 649.991 1257.79 651.185C1258.1 651.262 1258.41 651.031 1258.41 650.685V649.568C1258.41 648.72 1257.79 647.988 1256.94 647.873C1253.86 647.41 1246.7 646.448 1242.69 646.409C1242.58 646.409 1242.46 646.409 1242.38 646.409C1233.41 646.409 1225.67 648.027 1219.31 651.185C1218 651.84 1216.5 651.917 1215.15 651.455L1213.42 650.839C1212.42 650.492 1211.34 651.031 1210.99 651.994C1210.76 652.649 1211.11 653.342 1211.76 653.574L1217 655.5Z" fill="#F99746"/>
<path d="M1230.17 633.929C1230.17 633.929 1230.75 631.348 1229.13 631.156C1227.52 630.963 1221.62 632.234 1220.04 632.08C1218.46 631.887 1210.26 630.539 1208.8 631.964C1207.37 633.351 1207.95 634.584 1210.84 634.853C1213.73 635.123 1217.58 635.585 1218.66 636.51C1219.74 637.434 1227.67 640.131 1230.17 633.929Z" fill="#F99746"/>
<path d="M1201.25 698.603C1205.59 698.603 1209.1 695.085 1209.1 690.745C1209.1 686.405 1205.59 682.887 1201.25 682.887C1196.91 682.887 1193.39 686.405 1193.39 690.745C1193.39 695.085 1196.91 698.603 1201.25 698.603Z" fill="#2C3A64"/>
<path d="M1173.82 623.991C1173.82 623.991 1171.24 620.717 1169.81 621.14C1167.39 621.834 1167.2 624.068 1167.23 624.53C1167.27 624.992 1167.27 626.764 1168.35 627.149C1169.43 627.535 1170.55 627.072 1171.05 626.649C1171.55 626.225 1173.82 623.991 1173.82 623.991Z" fill="#E8945B"/>
<path d="M1169.43 621.372C1169.43 621.372 1169.78 623.413 1172.24 624.068C1174.71 624.723 1189.96 618.29 1193.58 616.518C1195.54 615.555 1198.36 610.124 1200.51 605.386C1201.01 604.231 1201.52 603.113 1201.94 602.112C1203.02 599.608 1203.71 597.759 1203.71 597.759C1203.71 595.256 1200.98 596.257 1198.47 597.374C1197.7 597.721 1193.73 596.064 1192.69 598.067C1192.19 599.03 1191.58 598.915 1191.08 599.955C1189.15 604.192 1187.38 609.007 1186.99 610.162C1186.38 612.204 1169.43 621.372 1169.43 621.372Z" fill="#E8945B"/>
<path d="M1175.71 625.917C1175.71 625.917 1173.13 622.681 1171.7 623.066C1168.35 623.914 1168.81 626.302 1168.85 626.764C1168.93 627.227 1169.16 628.69 1170.24 629.075C1171.32 629.461 1172.43 628.998 1172.93 628.575C1173.47 628.112 1175.71 625.917 1175.71 625.917Z" fill="#FFB27D"/>
<path d="M1205.21 593.676L1196.51 596.873C1195.39 595.795 1194.27 594.061 1193.39 592.521C1192.27 590.556 1191.5 588.861 1191.5 588.861L1197.59 584.586L1199.51 583.238C1199.63 587.128 1205.21 593.676 1205.21 593.676Z" fill="#FFB27D"/>
<path d="M1199.94 585.318C1199.94 585.318 1198.2 590.672 1193.35 592.482C1192.23 590.518 1191.46 588.823 1191.46 588.823L1197.55 584.547L1199.94 585.318Z" fill="#E8945B"/>
<path d="M1188.77 588.707C1188.77 588.707 1199.51 590.402 1200.48 583.661C1201.44 576.959 1203.44 572.645 1196.62 571.258C1189.81 569.91 1188.11 572.26 1187.22 574.455C1186.34 576.612 1185.99 588.091 1188.77 588.707Z" fill="#FFB27D"/>
<path d="M1202.86 570.064C1202.86 570.064 1202.36 570.18 1201.98 570.565C1201.94 569.101 1200.51 567.637 1200.51 567.637C1201.21 568.485 1200.98 570.103 1200.98 570.103C1198.93 566.636 1189.07 569.371 1188.15 569.602C1187.22 569.833 1186.57 568.446 1186.57 568.446C1185.11 569.717 1184.57 572.799 1185.76 574.84C1186.96 576.882 1190.88 579.848 1192.04 579.27C1193.16 578.692 1193.16 579.886 1193.12 581.504C1193.08 583.122 1195.89 585.895 1197.93 586.319C1199.55 586.627 1199.67 585.549 1200.13 584.817C1200.24 584.624 1200.36 584.47 1200.51 584.355C1202.71 582.352 1203.94 578.384 1203.44 574.494C1203.25 572.953 1202.59 571.643 1202.25 570.988C1202.36 570.719 1202.67 570.257 1202.86 570.064Z" fill="#2C3A64"/>
<path d="M1199.17 629.538C1199.28 630.038 1200.48 634.044 1203.56 635.084C1205.56 635.778 1210.45 637.434 1214.77 637.742C1215.77 636.895 1216.54 635.97 1216.96 634.93C1219.47 628.844 1215.38 624.299 1215.38 624.299C1215.38 624.299 1206.87 626.225 1199.17 629.538Z" fill="#2C3A64"/>
<path d="M1223.59 615.401C1223.59 615.401 1232.29 625.455 1224.32 636.741C1216.35 648.027 1203.29 657.156 1202.56 661.162C1201.17 668.943 1192.85 685.044 1188.92 693.017L1185.53 691.708C1185.53 691.708 1191.89 653.959 1194.16 649.452C1196.43 644.945 1208.1 623.798 1208.1 623.798L1223.59 615.401Z" fill="#FFB27D"/>
<path d="M1191.04 599.493C1191.89 599.762 1193.93 600.533 1194.47 601.457C1195.04 602.382 1201.01 599.801 1201.71 597.374C1200.01 595.487 1197.09 593.907 1195.35 594.447C1194.31 594.716 1192.69 596.873 1191.04 599.493Z" fill="#5885D6"/>
<path d="M1225.36 618.483C1225.36 618.483 1214.03 626.533 1206.48 626.109C1206.48 626.109 1201.52 634.584 1200.4 637.357C1200.4 637.357 1213.26 643.79 1219.97 642.596C1219.97 642.596 1228.67 634.121 1228.17 628.189C1227.67 622.258 1225.36 618.483 1225.36 618.483Z" fill="#35488B"/>
<path d="M1194.31 603.306L1197.01 607.158L1197.24 607.659L1202.86 620.524L1205.75 627.072C1207.68 627.535 1211.26 627.226 1212.84 626.649C1221.58 623.683 1225.36 618.444 1225.36 618.444C1220.27 605.193 1213.26 596.141 1211.84 594.524C1209.33 591.827 1202.82 589.593 1202.82 589.593C1201.05 591.442 1194.66 594.678 1194.66 594.678C1193.23 595.833 1194.31 603.306 1194.31 603.306Z" fill="#739AF0"/>
<path d="M1197.24 607.659L1202.86 620.524C1207.14 611.896 1204.44 599.339 1204.44 599.339C1204.44 599.339 1197.55 605.309 1197.32 605.771C1197.28 605.848 1197.24 606.542 1197.24 607.659Z" fill="#5885D6"/>
<path d="M1171.35 623.259C1171.35 623.259 1171.7 625.301 1174.17 625.955C1176.63 626.61 1191.89 620.177 1195.51 618.406C1197.47 617.443 1200.28 612.011 1202.44 607.274C1202.94 606.118 1203.44 605.001 1203.86 603.999C1204.94 601.496 1205.64 599.647 1205.64 599.647C1205.64 597.143 1199.74 593.753 1197.28 594.909C1196.51 595.256 1195.51 596.796 1194.47 598.838C1193.97 599.801 1193.5 600.802 1193 601.881C1191.08 606.118 1189.3 610.933 1188.92 612.088C1188.26 614.13 1171.35 623.259 1171.35 623.259Z" fill="#FFB27D"/>
<path d="M1193.04 601.881C1195.31 602.921 1199.4 604.924 1202.48 607.274C1202.98 606.118 1203.48 605.001 1203.9 603.999C1204.98 601.496 1205.68 599.647 1205.68 599.647C1205.68 597.143 1199.78 593.753 1197.32 594.909C1196.55 595.256 1195.55 596.796 1194.51 598.838C1194 599.801 1193.5 600.841 1193.04 601.881Z" fill="#739AF0"/>
<path d="M1190.23 696.099H1188.19C1187.49 696.022 1186.99 695.829 1186.3 695.752C1185.26 695.637 1184.76 696.022 1184.64 696.099H1176.02C1175.78 695.829 1176.02 695.174 1176.21 694.712C1176.36 694.404 1176.63 694.173 1177.02 694.057C1177.94 693.826 1179.71 693.634 1181.37 692.285C1182.29 691.554 1185.84 689.551 1185.84 689.551C1185.92 689.551 1186.3 689.666 1187.92 690.86C1188.77 691.477 1190.19 689.974 1190.19 689.974C1190.19 689.974 1190.46 690.167 1190.65 690.552C1190.81 690.822 1190.92 691.245 1190.85 691.708C1190.73 692.401 1191.12 693.672 1191.46 694.52C1191.65 695.059 1191.85 695.405 1191.85 695.405C1191.85 695.405 1191.96 695.906 1190.23 696.099Z" fill="#739CF3"/>
<path d="M1190.73 690.591C1190.23 690.899 1189.23 691.477 1188.53 691.554C1187.61 691.669 1185.92 689.589 1185.92 689.589C1185.99 689.589 1186.38 689.705 1188 690.899C1188.84 691.515 1190.27 690.013 1190.27 690.013C1190.27 690.013 1190.5 690.205 1190.73 690.591Z" fill="#415DA5"/>
<path d="M1190.23 696.099H1188.19C1187.49 696.022 1186.99 695.829 1186.3 695.752C1185.26 695.637 1184.76 696.022 1184.64 696.099H1176.02C1175.78 695.829 1176.02 695.174 1176.21 694.712C1176.48 694.52 1176.55 695.598 1176.67 695.791C1176.82 695.983 1183.68 695.868 1184.1 695.598C1184.49 695.328 1185.68 694.905 1187.34 695.251C1188.8 695.56 1190.92 694.789 1191.46 694.558C1191.65 695.097 1191.85 695.444 1191.85 695.444C1191.85 695.444 1191.96 695.906 1190.23 696.099Z" fill="#415DA5"/>
<path d="M1444.32 690.321C1445.05 690.321 1445.67 689.705 1445.67 688.973C1445.67 672.294 1432.11 658.735 1415.43 658.735C1411.58 658.735 1407.84 659.467 1404.3 660.854C1403.6 661.123 1403.26 661.894 1403.53 662.587C1403.79 663.28 1404.57 663.627 1405.26 663.358C1408.49 662.086 1411.88 661.432 1415.43 661.432C1430.6 661.432 1442.97 673.796 1442.97 688.973C1442.97 689.705 1443.59 690.321 1444.32 690.321Z" fill="#2C3A64"/>
<path d="M1468.58 625.108C1468.58 625.108 1466.54 629.384 1463.96 635.277C1461.07 641.902 1457.49 650.608 1455.33 657.657C1454.22 661.393 1453.48 664.667 1453.48 666.978C1453.48 667.749 1456.49 670.946 1457.37 672.14C1462.88 679.805 1470.39 690.013 1470.39 690.013L1472.44 689.512C1472.44 689.512 1469.55 676.724 1465.39 670.329C1464.58 669.058 1462.23 667.556 1462.34 667.402C1462.69 666.94 1463.61 665.823 1464.85 664.205C1468.24 659.737 1474.13 651.609 1478.1 644.021C1478.33 643.559 1478.6 643.096 1478.83 642.596C1480.91 638.359 1482.3 634.391 1482.14 631.464L1468.58 625.108Z" fill="#E8945B"/>
<path d="M1474.25 690.013L1472.82 690.899C1472.32 691.13 1471.86 691.207 1471.36 691.438C1470.55 691.823 1470.39 692.324 1470.39 692.44V692.478L1464.39 696.291C1464.12 696.176 1463.92 695.598 1463.85 695.136C1463.77 694.828 1463.88 694.52 1464.08 694.25C1464.58 693.672 1465.73 692.709 1466.23 690.937C1466.5 689.936 1468.01 686.816 1468.01 686.816C1468.04 686.777 1468.35 686.7 1470.09 686.931C1470.97 687.047 1471.2 685.236 1471.2 685.236C1471.2 685.236 1471.47 685.275 1471.82 685.468C1472.09 685.622 1472.36 685.891 1472.51 686.315C1472.78 686.931 1473.71 687.74 1474.36 688.279C1474.75 688.588 1475.06 688.819 1475.06 688.819C1475.06 688.819 1475.36 689.088 1474.25 690.013Z" fill="#B84C42"/>
<path d="M1471.82 685.468C1471.63 685.93 1471.2 686.854 1470.78 687.201C1470.2 687.702 1467.97 686.816 1467.97 686.816C1468.01 686.777 1468.31 686.7 1470.05 686.931C1470.93 687.047 1471.16 685.236 1471.16 685.236C1471.16 685.236 1471.51 685.275 1471.82 685.468Z" fill="#AA3E39"/>
<path d="M1474.25 690.013L1472.82 690.899C1472.32 691.13 1471.86 691.207 1471.36 691.438C1470.55 691.823 1470.39 692.324 1470.39 692.44V692.478L1464.39 696.291C1464.12 696.176 1463.92 695.598 1463.85 695.136C1463.92 694.866 1464.54 695.675 1464.73 695.752C1464.92 695.829 1469.66 692.709 1469.82 692.324C1469.97 691.939 1470.59 691.053 1471.9 690.629C1473.05 690.244 1474.17 688.665 1474.4 688.279C1474.79 688.588 1475.09 688.819 1475.09 688.819C1475.09 688.819 1475.36 689.088 1474.25 690.013Z" fill="#AA3E39"/>
<path d="M1480.22 642.499L1464.1 692.911L1466.82 693.778L1482.93 643.367L1480.22 642.499Z" fill="#F99746"/>
<path d="M1468.2 693.942L1506.22 690.629L1435.69 642.942L1439.73 651.224L1497.97 688.472L1467.93 691.091L1468.2 693.942Z" fill="#F99746"/>
<path d="M1463.08 691.708L1465.46 690.167L1436.19 643.289L1432.8 646.794L1463.08 691.708Z" fill="#F99746"/>
<path d="M1459.07 685.005L1453.72 688.087C1453.1 688.434 1452.87 689.243 1453.21 689.897C1453.56 690.514 1454.37 690.745 1455.02 690.398L1460.38 687.317C1461 686.97 1461.23 686.122 1460.88 685.506C1460.49 684.89 1459.69 684.659 1459.07 685.005Z" fill="#415DA5"/>
<path d="M1457.99 687.008L1464.77 694.481L1465.39 693.942L1458.65 686.469L1457.99 687.008Z" fill="#415DA5"/>
<path d="M1479.75 661.432C1480.14 661.586 1480.6 661.509 1480.95 661.316C1493.78 653.574 1511.53 656.463 1516.66 657.541C1516.93 657.618 1517.19 657.387 1517.19 657.079V656.077C1517.19 655.307 1516.62 654.652 1515.89 654.537C1513.11 654.113 1506.6 653.227 1502.98 653.227C1502.87 653.227 1502.79 653.227 1502.67 653.227C1494.55 653.227 1487.54 654.691 1481.8 657.541C1480.6 658.119 1479.25 658.196 1478.02 657.772L1476.44 657.233C1475.56 656.925 1474.55 657.387 1474.25 658.311C1474.05 658.889 1474.36 659.544 1474.94 659.737L1479.75 661.432Z" fill="#35488B"/>
<path d="M1491.66 641.902C1491.66 641.902 1492.16 639.553 1490.69 639.399C1489.23 639.244 1483.88 640.4 1482.45 640.246C1481.03 640.092 1473.59 638.859 1472.28 640.13C1470.97 641.402 1471.51 642.519 1474.13 642.75C1476.75 642.981 1480.22 643.405 1481.22 644.252C1482.26 645.061 1489.42 647.526 1491.66 641.902Z" fill="#415DA5"/>
<path d="M1470.5 698.416C1473.28 695.634 1473.28 691.122 1470.5 688.339C1467.71 685.556 1463.2 685.556 1460.42 688.339C1457.64 691.122 1457.64 695.634 1460.42 698.416C1463.2 701.199 1467.71 701.199 1470.5 698.416Z" fill="#415DA5"/>
<path d="M1511.66 667.163L1503.74 689.241L1504.32 689.45L1512.24 667.371L1511.66 667.163Z" fill="#415DA5"/>
<path d="M1526.17 699.566L1526.4 698.988L1503.98 689.358L1489.27 668.288L1488.73 668.673L1503.56 689.859L1503.67 689.897L1526.17 699.566Z" fill="#415DA5"/>
<path d="M1512.69 713.972L1513.3 713.779C1513.15 713.317 1504.48 690.475 1504.1 689.512L1503.87 688.934L1489.88 711.006L1490.42 711.353L1503.71 690.321C1506.87 698.68 1512.53 713.587 1512.69 713.972Z" fill="#415DA5"/>
<path d="M1528.57 683.421L1503.7 687.698L1503.81 688.305L1528.67 684.028L1528.57 683.421Z" fill="#415DA5"/>
<path d="M1495.2 665.932L1494.61 666.127L1501.91 688.016L1502.49 687.821L1495.2 665.932Z" fill="#415DA5"/>
<path d="M1503.83 689.936L1503.94 689.897L1526.75 678.342L1526.48 677.764L1503.71 689.281L1479.25 685.198L1479.18 685.814L1503.83 689.936Z" fill="#415DA5"/>
<path d="M1494.58 713.163C1494.74 712.778 1500.59 698.372 1503.87 690.283L1516.54 710.197L1517.08 709.85L1503.75 688.896L1503.52 689.474C1503.14 690.398 1494.16 712.47 1494.01 712.932L1494.58 713.163Z" fill="#415DA5"/>
<path d="M1503.88 689.377L1503.79 689.986L1528.36 693.644L1528.45 693.034L1503.88 689.377Z" fill="#415DA5"/>
<path d="M1518.43 670.25L1504.79 685.952L1505.25 686.356L1518.9 670.654L1518.43 670.25Z" fill="#415DA5"/>
<path d="M1503.3 691.338L1502.69 691.389L1504.59 714.383L1505.21 714.333L1503.3 691.338Z" fill="#415DA5"/>
<path d="M1504.74 688.139L1483.02 703.196L1483.38 703.702L1505.09 688.646L1504.74 688.139Z" fill="#415DA5"/>
<path d="M1521.78 706.653L1522.24 706.191L1504.1 687.894V664.089H1503.48V688.164L1521.78 706.653Z" fill="#415DA5"/>
<path d="M1503.79 694.288C1506.36 694.288 1508.45 692.202 1508.45 689.628C1508.45 687.054 1506.36 684.967 1503.79 684.967C1501.22 684.967 1499.13 687.054 1499.13 689.628C1499.13 692.202 1501.22 694.288 1503.79 694.288Z" fill="#2C3A64"/>
<path d="M1526.17 673.796C1521.2 666.786 1513.03 662.202 1503.79 662.202C1494.55 662.202 1486.34 666.824 1481.37 673.835C1480.72 674.759 1480.14 675.722 1479.6 676.724C1477.56 680.576 1476.36 684.967 1476.36 689.628C1476.36 689.859 1476.36 690.128 1476.36 690.398C1476.4 691.361 1476.48 692.286 1476.6 693.249C1477.06 696.831 1478.25 700.298 1480.06 703.418C1482.45 707.501 1485.84 710.89 1489.88 713.279C1493.12 715.166 1496.7 716.399 1500.4 716.822C1500.44 716.822 1500.48 716.822 1500.52 716.822C1501.59 716.938 1502.67 717.015 1503.75 717.015C1504.87 717.015 1505.95 716.938 1507.03 716.822C1507.06 716.822 1507.1 716.822 1507.14 716.822C1514.96 715.859 1521.78 711.584 1526.13 705.459C1529.33 700.991 1531.18 695.521 1531.18 689.628C1531.22 683.734 1529.33 678.265 1526.17 673.796ZM1527.09 693.403C1526.9 694.712 1526.55 695.945 1526.17 697.178C1526.02 697.678 1525.82 698.179 1525.63 698.641C1525.55 698.834 1525.48 699.026 1525.36 699.219C1524.36 701.453 1523.01 703.533 1521.39 705.344C1521.24 705.498 1521.12 705.652 1520.97 705.806C1519.7 707.154 1518.27 708.348 1516.73 709.35C1516.54 709.465 1516.39 709.581 1516.19 709.696C1515 710.428 1513.77 711.044 1512.46 711.584C1512.26 711.661 1512.07 711.738 1511.88 711.815C1509.76 712.585 1507.49 713.086 1505.14 713.202C1504.95 713.202 1504.71 713.24 1504.52 713.24C1504.29 713.24 1504.06 713.24 1503.83 713.24C1500.86 713.24 1497.97 712.701 1495.24 711.622C1495.05 711.545 1494.85 711.468 1494.66 711.391C1493.7 711.006 1492.77 710.544 1491.89 710.004C1491.73 709.927 1491.62 709.85 1491.46 709.773C1491.27 709.658 1491.12 709.542 1490.92 709.427C1488.34 707.732 1486.11 705.575 1484.38 703.032C1484.26 702.84 1484.15 702.686 1484.03 702.493C1483.8 702.185 1483.61 701.838 1483.41 701.492C1481.87 698.834 1480.87 695.906 1480.45 692.902C1480.33 691.977 1480.25 691.014 1480.22 690.051C1480.22 689.897 1480.22 689.782 1480.22 689.628C1480.22 688.395 1480.29 687.201 1480.49 686.045C1480.52 685.853 1480.56 685.622 1480.6 685.429C1481.03 683.079 1481.8 680.884 1482.87 678.804C1483.37 677.841 1483.95 676.878 1484.61 675.992C1486.11 673.873 1487.96 672.024 1490.08 670.484C1490.27 670.368 1490.42 670.253 1490.58 670.137C1492 669.174 1493.54 668.327 1495.2 667.672C1495.39 667.595 1495.59 667.518 1495.78 667.441C1498.2 666.555 1500.82 666.054 1503.52 666.015C1503.64 666.015 1503.71 666.015 1503.83 666.015C1503.94 666.015 1504.02 666.015 1504.14 666.015C1506.76 666.054 1509.26 666.516 1511.57 667.325C1511.76 667.402 1511.96 667.479 1512.15 667.556C1514.27 668.365 1516.23 669.444 1518 670.792C1518.16 670.907 1518.35 671.061 1518.5 671.177C1521.05 673.219 1523.2 675.761 1524.71 678.688C1524.82 678.881 1524.9 679.073 1525.01 679.266C1525.48 680.191 1525.86 681.115 1526.17 682.117C1526.36 682.694 1526.52 683.234 1526.67 683.85C1526.71 684.042 1526.79 684.274 1526.82 684.466C1527.21 686.161 1527.4 687.894 1527.4 689.705C1527.4 690.783 1527.33 691.823 1527.17 692.863C1527.17 692.979 1527.13 693.172 1527.09 693.403Z" fill="#202E51"/>
<path d="M1527.09 684.351C1527.06 684.158 1526.98 683.927 1526.94 683.734C1526.71 682.887 1526.44 682.039 1526.13 681.231C1525.86 680.499 1525.55 679.805 1525.21 679.112C1525.13 678.919 1525.01 678.727 1524.9 678.534C1523.36 675.607 1521.2 673.026 1518.62 670.946C1518.47 670.83 1518.27 670.676 1518.12 670.561C1514.19 667.556 1509.34 665.746 1504.06 665.63C1503.87 665.63 1503.71 665.63 1503.52 665.63H1503.41C1500.63 665.63 1497.97 666.131 1495.51 666.978C1495.32 667.055 1495.12 667.132 1494.93 667.21C1493.24 667.864 1491.66 668.673 1490.15 669.675C1489.96 669.79 1489.81 669.906 1489.62 670.021C1487.42 671.562 1485.49 673.45 1483.95 675.607C1483.3 676.493 1482.72 677.456 1482.18 678.419C1481.06 680.537 1480.22 682.848 1479.75 685.275C1479.72 685.468 1479.68 685.699 1479.64 685.891C1479.45 687.162 1479.33 688.434 1479.33 689.782C1479.33 689.897 1479.33 690.013 1479.33 690.09C1479.33 691.053 1479.41 692.016 1479.52 692.94C1479.99 696.6 1481.29 699.951 1483.22 702.917C1483.34 703.109 1483.45 703.264 1483.57 703.456C1485.38 706.075 1487.69 708.348 1490.39 710.081C1490.58 710.197 1490.73 710.313 1490.92 710.428C1491.96 711.083 1493.08 711.622 1494.24 712.123C1494.43 712.2 1494.62 712.277 1494.82 712.354C1497.51 713.394 1500.44 713.972 1503.48 713.972C1503.79 713.972 1504.14 713.972 1504.45 713.972C1504.64 713.972 1504.87 713.972 1505.1 713.933C1507.53 713.779 1509.84 713.24 1511.99 712.431C1512.19 712.354 1512.38 712.277 1512.57 712.2C1513.92 711.661 1515.19 711.006 1516.39 710.235C1516.58 710.12 1516.73 710.004 1516.93 709.889C1518.5 708.849 1519.93 707.578 1521.2 706.229C1521.36 706.075 1521.51 705.921 1521.62 705.767C1523.28 703.88 1524.63 701.761 1525.63 699.45C1525.71 699.257 1525.78 699.065 1525.86 698.872C1525.94 698.718 1525.98 698.564 1526.05 698.41C1526.63 696.869 1527.09 695.213 1527.36 693.518C1527.4 693.326 1527.44 693.094 1527.44 692.902C1527.56 691.9 1527.63 690.899 1527.63 689.859C1527.71 687.894 1527.52 686.084 1527.09 684.351ZM1526.48 693.287C1526.4 693.865 1526.29 694.443 1526.13 694.982C1525.86 696.137 1525.52 697.293 1525.05 698.41C1524.98 698.603 1524.9 698.795 1524.82 698.988C1523.86 701.183 1522.59 703.186 1521.05 704.997C1520.89 705.151 1520.78 705.305 1520.62 705.459C1519.39 706.807 1518 708.001 1516.5 709.003C1516.31 709.118 1516.15 709.234 1515.96 709.35C1514.81 710.081 1513.61 710.698 1512.34 711.237C1512.15 711.314 1511.96 711.391 1511.76 711.468C1509.68 712.239 1507.45 712.739 1505.1 712.893C1504.91 712.932 1504.68 712.932 1504.45 712.932C1504.14 712.932 1503.87 712.97 1503.56 712.97C1500.63 712.97 1497.86 712.431 1495.28 711.43C1495.08 711.353 1494.89 711.275 1494.7 711.198C1493.58 710.736 1492.54 710.197 1491.54 709.581C1491.35 709.465 1491.19 709.35 1491 709.234C1488.42 707.578 1486.23 705.421 1484.49 702.878C1484.38 702.686 1484.26 702.532 1484.15 702.339C1482.34 699.527 1481.1 696.292 1480.64 692.825C1480.52 691.9 1480.45 690.937 1480.45 689.974C1480.45 689.897 1480.45 689.82 1480.45 689.743C1480.45 688.472 1480.56 687.24 1480.76 686.045C1480.79 685.853 1480.83 685.622 1480.87 685.429C1481.3 683.118 1482.07 680.961 1483.14 678.958C1483.64 677.995 1484.26 677.032 1484.88 676.146C1486.38 674.066 1488.23 672.294 1490.31 670.792C1490.5 670.676 1490.66 670.561 1490.85 670.445C1492.23 669.521 1493.78 668.712 1495.35 668.095C1495.55 668.018 1495.74 667.941 1495.93 667.864C1498.32 667.017 1500.86 666.555 1503.52 666.555H1503.64C1503.83 666.555 1503.98 666.555 1504.18 666.555C1506.72 666.593 1509.14 667.094 1511.42 667.864C1511.61 667.941 1511.8 668.018 1511.99 668.095C1514.04 668.866 1515.89 669.944 1517.62 671.216C1517.77 671.331 1517.97 671.485 1518.12 671.601C1520.62 673.604 1522.66 676.069 1524.17 678.881C1524.28 679.073 1524.36 679.266 1524.48 679.459C1525.17 680.845 1525.71 682.309 1526.09 683.811C1526.13 684.004 1526.21 684.235 1526.25 684.428V684.466C1526.63 686.161 1526.82 687.894 1526.82 689.705C1526.82 690.668 1526.75 691.669 1526.63 692.594C1526.56 692.902 1526.52 693.094 1526.48 693.287Z" fill="#B84C42"/>
<path d="M1422.23 667.172L1414.3 689.251L1414.88 689.459L1422.81 667.38L1422.23 667.172Z" fill="#415DA5"/>
<path d="M1436.77 699.566L1437 698.988L1414.58 689.358L1399.83 668.288L1399.33 668.673L1414.16 689.859L1414.23 689.897L1436.77 699.566Z" fill="#415DA5"/>
<path d="M1423.25 713.972L1423.86 713.779C1423.71 713.317 1415.04 690.475 1414.66 689.512L1414.43 688.934L1400.44 711.006L1400.98 711.353L1414.27 690.321C1417.47 698.68 1423.13 713.587 1423.25 713.972Z" fill="#415DA5"/>
<path d="M1439.17 683.417L1414.3 687.694L1414.41 688.301L1439.27 684.025L1439.17 683.417Z" fill="#415DA5"/>
<path d="M1405.79 665.926L1405.21 666.121L1412.5 688.01L1413.09 687.815L1405.79 665.926Z" fill="#415DA5"/>
<path d="M1414.43 689.936L1414.5 689.897L1437.35 678.342L1437.04 677.764L1414.31 689.281L1389.85 685.198L1389.74 685.814L1414.43 689.936Z" fill="#415DA5"/>
<path d="M1405.14 713.163C1405.3 712.778 1411.15 698.372 1414.43 690.283L1427.1 710.197L1427.64 709.85L1414.31 688.896L1414.08 689.474C1413.69 690.398 1404.72 712.47 1404.57 712.932L1405.14 713.163Z" fill="#415DA5"/>
<path d="M1414.46 689.365L1414.37 689.975L1438.95 693.632L1439.04 693.022L1414.46 689.365Z" fill="#415DA5"/>
<path d="M1429.02 670.239L1415.38 685.942L1415.85 686.346L1429.49 670.644L1429.02 670.239Z" fill="#415DA5"/>
<path d="M1413.87 691.343L1413.25 691.394L1415.15 714.388L1415.77 714.337L1413.87 691.343Z" fill="#415DA5"/>
<path d="M1415.3 688.143L1393.58 703.199L1393.94 703.706L1415.65 688.649L1415.3 688.143Z" fill="#415DA5"/>
<path d="M1432.38 706.653L1432.84 706.191L1414.7 687.894V664.089H1414.04V688.164L1432.38 706.653Z" fill="#415DA5"/>
<path d="M1414.39 694.288C1416.96 694.288 1419.05 692.202 1419.05 689.628C1419.05 687.054 1416.96 684.967 1414.39 684.967C1411.81 684.967 1409.73 687.054 1409.73 689.628C1409.73 692.202 1411.81 694.288 1414.39 694.288Z" fill="#2C3A64"/>
<path d="M1428.72 666.246C1428.02 665.784 1427.25 665.399 1426.52 665.014C1425.37 664.436 1424.17 663.935 1422.94 663.55C1420.24 662.664 1417.39 662.202 1414.43 662.202C1410.34 662.202 1406.45 663.088 1402.95 664.706C1402.45 664.937 1401.95 665.168 1401.48 665.438C1392.85 670.06 1387 679.15 1387 689.628C1387 694.481 1388.27 699.219 1390.7 703.418C1393.09 707.501 1396.48 710.89 1400.52 713.278C1400.83 713.471 1401.14 713.625 1401.44 713.818C1404.41 715.436 1407.68 716.437 1411.04 716.861C1411.07 716.861 1411.11 716.861 1411.15 716.861C1412.23 716.976 1413.31 717.053 1414.39 717.053C1415.5 717.053 1416.58 716.976 1417.66 716.861C1417.7 716.861 1417.74 716.861 1417.78 716.861C1431.3 715.204 1441.81 703.61 1441.81 689.666C1441.77 679.728 1436.54 671.061 1428.72 666.246ZM1437.69 693.403C1437.38 695.251 1436.88 696.985 1436.19 698.641C1436.11 698.834 1436.03 699.026 1435.96 699.219C1434.96 701.453 1433.61 703.533 1431.99 705.343C1431.84 705.498 1431.72 705.652 1431.57 705.806C1430.3 707.154 1428.87 708.348 1427.33 709.349C1427.14 709.465 1426.98 709.581 1426.79 709.696C1425.6 710.428 1424.36 711.044 1423.05 711.584C1422.86 711.661 1422.67 711.738 1422.48 711.815C1420.36 712.585 1418.09 713.086 1415.74 713.201C1415.54 713.201 1415.31 713.24 1415.12 713.24C1414.89 713.24 1414.66 713.24 1414.43 713.24C1411.46 713.24 1408.57 712.701 1405.84 711.622C1405.64 711.545 1405.45 711.468 1405.26 711.391C1404.3 711.006 1403.37 710.544 1402.48 710.004C1402.33 709.927 1402.22 709.85 1402.06 709.773C1401.87 709.658 1401.71 709.542 1401.52 709.427C1401.52 709.427 1401.48 709.427 1401.48 709.388C1398.9 707.693 1396.71 705.536 1394.97 703.032C1394.86 702.84 1394.74 702.686 1394.63 702.493C1394.4 702.185 1394.2 701.838 1394.01 701.492C1391.93 697.909 1390.81 693.788 1390.81 689.628C1390.81 688.395 1390.89 687.201 1391.08 686.045C1391.12 685.853 1391.16 685.622 1391.2 685.429C1392.32 679.304 1395.78 673.989 1400.64 670.484C1400.79 670.368 1400.98 670.252 1401.14 670.137C1401.25 670.06 1401.37 669.983 1401.48 669.906C1402.83 669.02 1404.26 668.288 1405.76 667.672C1405.95 667.595 1406.14 667.518 1406.34 667.441C1408.76 666.555 1411.38 666.054 1414.08 666.015C1414.19 666.015 1414.27 666.015 1414.39 666.015C1414.5 666.015 1414.62 666.015 1414.7 666.015C1417.05 666.054 1419.36 666.439 1421.51 667.094C1421.74 667.171 1421.94 667.248 1422.17 667.286C1422.36 667.364 1422.55 667.441 1422.75 667.518C1423.52 667.787 1424.25 668.134 1424.98 668.481C1426.25 669.135 1427.48 669.867 1428.6 670.753C1428.75 670.869 1428.95 671.023 1429.1 671.138C1431.64 673.18 1433.8 675.722 1435.3 678.65C1435.42 678.842 1435.5 679.035 1435.57 679.227C1436.27 680.653 1436.84 682.193 1437.27 683.773C1437.31 683.965 1437.38 684.196 1437.42 684.389C1437.81 686.084 1438 687.817 1438 689.628C1438 690.706 1437.92 691.746 1437.77 692.786C1437.73 692.979 1437.73 693.171 1437.69 693.403Z" fill="#1D2A4C"/>
<path d="M1437.69 684.351C1437.65 684.158 1437.58 683.927 1437.54 683.734C1437.11 682.116 1436.54 680.576 1435.8 679.112C1435.73 678.919 1435.61 678.727 1435.5 678.534C1433.96 675.607 1431.8 673.026 1429.22 670.946C1429.06 670.83 1428.87 670.676 1428.72 670.561C1427.56 669.675 1426.33 668.904 1425.02 668.249C1423.9 667.672 1422.75 667.209 1421.55 666.824C1420.67 666.516 1419.74 666.285 1418.78 666.131C1417.43 665.861 1416.04 665.707 1414.62 665.669C1414.43 665.669 1414.27 665.669 1414.08 665.669H1413.96C1413.31 665.669 1412.69 665.707 1412.04 665.746C1409.96 665.938 1407.95 666.362 1406.07 667.017C1405.87 667.094 1405.68 667.171 1405.45 667.248C1403.99 667.787 1402.64 668.481 1401.33 669.29C1401.1 669.405 1400.91 669.559 1400.67 669.713C1400.48 669.829 1400.33 669.944 1400.14 670.06C1395.09 673.604 1391.47 679.035 1390.31 685.314C1390.27 685.506 1390.24 685.737 1390.2 685.93C1390 687.201 1389.89 688.472 1389.89 689.82C1389.89 694.674 1391.31 699.18 1393.78 702.955C1393.9 703.148 1394.01 703.302 1394.13 703.495C1395.94 706.114 1398.25 708.387 1400.94 710.12C1401.06 710.197 1401.18 710.274 1401.33 710.351C1401.37 710.39 1401.44 710.428 1401.48 710.467C1402.52 711.121 1403.64 711.661 1404.8 712.161C1404.99 712.238 1405.18 712.315 1405.37 712.392C1408.07 713.433 1411 714.01 1414.04 714.01C1414.35 714.01 1414.7 714.01 1415 714.01C1415.23 714.01 1415.43 714.01 1415.66 713.972C1418.09 713.818 1420.4 713.278 1422.55 712.47C1422.75 712.393 1422.94 712.315 1423.13 712.238C1424.48 711.699 1425.75 711.044 1426.94 710.274C1427.14 710.158 1427.29 710.043 1427.48 709.927C1429.06 708.887 1430.49 707.616 1431.76 706.268C1431.91 706.114 1432.07 705.96 1432.18 705.806C1433.84 703.918 1435.19 701.8 1436.19 699.489C1436.27 699.296 1436.34 699.103 1436.42 698.911C1437.11 697.216 1437.61 695.406 1437.88 693.557C1437.92 693.364 1437.96 693.133 1437.96 692.94C1438.08 691.939 1438.15 690.937 1438.15 689.897C1438.31 687.894 1438.12 686.084 1437.69 684.351ZM1437.08 693.287C1436.81 695.059 1436.3 696.792 1435.65 698.41C1435.57 698.603 1435.5 698.795 1435.42 698.988C1434.46 701.183 1433.18 703.186 1431.64 704.997C1431.49 705.151 1431.37 705.305 1431.22 705.459C1429.99 706.807 1428.6 708.001 1427.1 709.003C1426.91 709.118 1426.75 709.234 1426.56 709.35C1425.4 710.081 1424.21 710.698 1422.94 711.237C1422.75 711.314 1422.55 711.391 1422.36 711.468C1420.28 712.238 1418.05 712.739 1415.74 712.893C1415.54 712.932 1415.31 712.932 1415.08 712.932C1414.77 712.932 1414.5 712.97 1414.19 712.97C1411.27 712.97 1408.49 712.431 1405.91 711.43C1405.72 711.352 1405.53 711.275 1405.34 711.198C1404.26 710.736 1403.18 710.197 1402.18 709.581C1401.98 709.465 1401.83 709.349 1401.64 709.234C1401.6 709.195 1401.52 709.157 1401.48 709.118C1398.98 707.462 1396.82 705.343 1395.13 702.878C1395.01 702.686 1394.9 702.532 1394.78 702.339C1392.43 698.718 1391.04 694.404 1391.04 689.743C1391.04 688.472 1391.16 687.239 1391.35 686.045C1391.39 685.853 1391.43 685.622 1391.47 685.429C1392.62 679.42 1396.09 674.22 1400.91 670.83C1401.1 670.715 1401.25 670.599 1401.41 670.484C1401.44 670.484 1401.44 670.445 1401.48 670.445C1402.87 669.521 1404.33 668.75 1405.91 668.172C1406.11 668.095 1406.3 668.018 1406.49 667.941C1408.88 667.094 1411.42 666.632 1414.08 666.632H1414.19C1414.39 666.632 1414.54 666.632 1414.73 666.632C1417.01 666.67 1419.2 667.055 1421.28 667.749C1421.51 667.826 1421.71 667.903 1421.94 667.98C1422.13 668.057 1422.32 668.134 1422.52 668.211C1423.25 668.481 1423.98 668.827 1424.67 669.174C1425.87 669.79 1427.02 670.522 1428.1 671.331C1428.25 671.447 1428.45 671.601 1428.6 671.716C1431.1 673.719 1433.15 676.184 1434.65 678.996C1434.76 679.189 1434.84 679.382 1434.96 679.574C1435.65 680.961 1436.19 682.425 1436.57 683.927C1436.61 684.119 1436.69 684.351 1436.73 684.543C1437.11 686.238 1437.34 688.01 1437.34 689.82C1437.34 690.783 1437.27 691.785 1437.15 692.709C1437.11 692.902 1437.11 693.094 1437.08 693.287Z" fill="#B84C42"/>
<path d="M1485.34 625.185C1485.34 625.185 1491.16 634.391 1483.99 639.437C1476.83 644.483 1452.71 646.91 1453.87 647.911C1457.49 650.916 1460.76 655.538 1460.61 683.156L1458.84 684.081C1458.84 684.081 1441.62 646.64 1442.78 642.172C1443.51 639.206 1468.62 623.22 1485.34 625.185Z" fill="#FFB27D"/>
<path d="M1471.43 644.329C1471.43 644.329 1486.07 641.902 1487.57 636.741C1488.69 632.889 1489.04 631.31 1482.41 618.868C1482.41 618.868 1479.64 624.145 1465.19 622.912C1465.19 622.912 1465.27 623.606 1465.27 624.53C1465.27 626.071 1465 628.228 1463.81 628.883C1463.81 628.883 1463.77 628.883 1463.73 628.921C1461.84 629.807 1458.88 631.541 1458.45 631.695C1458.42 631.656 1467.31 633.351 1471.43 644.329Z" fill="#35488B"/>
<path d="M1463.81 628.844C1470.24 626.957 1476.56 627.149 1480.26 623.683C1474.79 622.296 1468.24 624.492 1465.27 624.492C1465.23 626.032 1465 628.228 1463.81 628.844Z" fill="#2C3A64"/>
<path d="M1463.04 684.466L1461.53 685.198C1461 685.352 1460.53 685.391 1459.99 685.583C1459.15 685.853 1458.95 686.354 1458.92 686.469V686.508L1452.52 689.589C1452.25 689.435 1452.14 688.819 1452.1 688.357C1452.06 688.048 1452.21 687.74 1452.44 687.509C1453.02 686.97 1454.29 686.161 1454.99 684.466C1455.37 683.503 1457.22 680.576 1457.22 680.576C1457.3 680.537 1457.61 680.499 1459.3 680.922C1460.19 681.153 1460.61 679.382 1460.61 679.382C1460.61 679.382 1460.88 679.459 1461.19 679.69C1461.42 679.882 1461.69 680.152 1461.8 680.614C1462 681.23 1462.81 682.155 1463.38 682.771C1463.73 683.156 1464.04 683.388 1464.04 683.388C1464.04 683.388 1464.23 683.696 1463.04 684.466Z" fill="#B84C42"/>
<path d="M1461.15 679.69C1460.92 680.113 1460.38 680.961 1459.92 681.269C1459.26 681.693 1457.18 680.576 1457.18 680.576C1457.26 680.537 1457.57 680.499 1459.26 680.922C1460.15 681.153 1460.57 679.381 1460.57 679.381C1460.57 679.381 1460.84 679.459 1461.15 679.69Z" fill="#AA3E39"/>
<path d="M1463.04 684.466L1461.53 685.198C1461 685.352 1460.53 685.39 1459.99 685.583C1459.15 685.853 1458.95 686.353 1458.92 686.469V686.508L1452.52 689.589C1452.25 689.435 1452.14 688.819 1452.1 688.356C1452.21 688.087 1452.71 688.973 1452.87 689.088C1453.06 689.165 1458.11 686.623 1458.3 686.276C1458.49 685.93 1459.19 685.121 1460.57 684.813C1461.77 684.543 1463.04 683.118 1463.35 682.771C1463.69 683.156 1464 683.387 1464 683.387C1464 683.387 1464.23 683.696 1463.04 684.466Z" fill="#AA3E39"/>
<path d="M1426.67 654.113C1427.1 653.073 1428.02 652.457 1429.06 652.38C1440.89 625.185 1441.04 624.992 1441.2 624.684L1442.89 628.074C1442.97 627.92 1416.12 688.318 1416.12 688.318L1413.46 687.239L1426.67 654.113Z" fill="#35488B"/>
<path d="M1454.87 628.729C1455.45 626.841 1454.37 624.838 1452.48 624.299C1450.6 623.721 1448.59 624.8 1448.05 626.687C1447.51 628.575 1448.55 630.578 1450.44 631.117C1452.33 631.695 1454.33 630.616 1454.87 628.729Z" fill="#415DA5"/>
<path d="M1432.76 622.45C1433.34 620.563 1432.26 618.56 1430.37 618.02C1428.49 617.481 1426.48 618.521 1425.94 620.409C1425.37 622.296 1426.44 624.299 1428.33 624.838C1430.22 625.378 1432.22 624.376 1432.76 622.45Z" fill="#415DA5"/>
<path d="M1430.1 624.877L1450.9 630.077L1451.25 625.878L1430.45 620.678L1430.1 624.877Z" fill="#415DA5"/>
<path d="M1450.4 620.717C1450.4 620.717 1448.44 621.988 1447.05 621.949C1445.67 621.911 1443.89 622.45 1443.89 622.45C1443.89 622.45 1442.04 622.989 1441.89 625.185C1441.89 625.185 1441.89 625.84 1444.82 624.915C1445.43 624.723 1446.97 625.069 1447.51 624.915C1448.01 624.761 1449.59 623.028 1450.98 623.067L1450.4 620.717Z" fill="#FFB27D"/>
<path d="M1439.96 618.252C1439.96 618.252 1438 619.523 1436.61 619.484C1435.23 619.446 1433.45 619.985 1433.45 619.985C1433.45 619.985 1431.61 620.524 1431.45 622.72C1431.45 622.72 1431.49 623.606 1434.38 622.45C1435.15 622.142 1436.54 622.604 1437.08 622.45C1437.61 622.296 1439.5 620.832 1440.81 620.447L1439.96 618.252Z" fill="#E8945B"/>
<path d="M1464.62 565.673C1467.47 566.174 1468.81 567.753 1470.63 572.144C1472.51 576.728 1470.24 580.965 1468.39 580.426C1467.24 580.079 1466.81 582.082 1466.81 582.082L1455.68 572.375C1455.68 572.337 1457.3 565.211 1464.62 565.673Z" fill="#2C3A64"/>
<path d="M1458.11 592.174C1458.11 592.174 1462 594.37 1461.54 599.878C1461.07 605.386 1456.03 614.091 1452.18 616.287C1449.13 617.982 1440.31 620.678 1440.31 620.678L1440 618.29C1440 618.29 1447.17 613.591 1448.75 612.011C1452.02 608.506 1455.18 590.826 1458.11 592.174Z" fill="#E8945B"/>
<path d="M1458.49 604.577C1458.68 605.81 1458.99 606.888 1459.42 607.928C1459.76 608.776 1460.15 609.585 1460.53 610.432C1461.73 612.936 1464.5 614.169 1464.58 618.945C1464.62 620.601 1478.56 613.629 1478.64 607.851V607.813C1478.68 607.543 1478.71 606.773 1478.75 605.81C1478.87 603.383 1478.98 599.531 1479.06 597.567C1479.06 597.528 1479.06 597.49 1479.06 597.451C1479.1 596.604 1479.1 596.026 1479.14 595.833C1477.29 587.898 1472.97 587.86 1471.51 587.898C1471.32 587.898 1471.13 587.898 1470.93 587.898C1470.12 587.937 1469.35 587.552 1468.89 586.897C1468.08 585.741 1467.16 583.738 1466.58 581.003L1466.23 581.158L1460.61 583.546C1460.61 583.546 1461.11 585.356 1461.5 587.09C1461.65 587.821 1461.77 588.553 1461.84 589.131C1461.88 589.67 1461.57 590.171 1461.07 590.364C1460.96 590.595 1457.61 598.26 1458.49 604.577Z" fill="#FFB27D"/>
<path d="M1459.42 607.928C1459.76 608.776 1460.15 609.585 1460.53 610.432C1461.73 612.936 1464.5 614.168 1464.58 618.945C1464.65 618.945 1464.73 618.945 1464.85 618.983C1475.13 619.792 1478.64 607.813 1478.64 607.813C1478.68 607.543 1478.71 606.773 1478.75 605.81L1460.19 605.848C1460.15 605.81 1459.76 606.657 1459.42 607.928Z" fill="#E8945B"/>
<path d="M1456.8 602.266C1456.84 602.42 1456.91 602.574 1456.99 602.728C1458.76 606.965 1462.73 628.844 1462.73 628.844C1462.77 628.806 1478.83 629.884 1485.19 621.102C1485.49 622.026 1483.99 616.672 1481.64 609.508C1479.87 604.115 1478.98 600.302 1479.06 597.567C1479.06 597.528 1479.06 597.49 1479.06 597.451C1478.64 597.105 1478.25 596.835 1477.87 596.527C1476.67 595.602 1475.83 594.793 1475.79 593.83C1475.79 593.445 1475.79 593.06 1475.86 592.675C1475.9 592.482 1475.9 592.29 1475.94 592.136C1476.33 590.21 1477.17 588.476 1477.17 588.476C1475.13 587.552 1471.47 587.937 1471.47 587.937C1471.47 587.937 1470.09 591.018 1467.16 592.867C1466.35 593.368 1463.38 594.678 1461.96 593.33C1461 592.444 1460.96 590.633 1461.03 590.441C1457.72 591.596 1456.49 592.636 1456.49 592.636C1458.41 593.907 1455.41 598.145 1456.8 602.266Z" fill="#739AF0"/>
<path d="M1460.61 583.507C1460.61 583.507 1461.15 585.318 1461.5 587.051C1464.77 586.281 1465.89 582.929 1466.23 581.119L1460.61 583.507Z" fill="#E8945B"/>
<path d="M1459.84 585.395C1459.84 585.395 1467.62 583.892 1466.62 579.039C1465.62 574.186 1465.93 570.757 1460.92 571.489C1455.91 572.26 1455.33 574.301 1455.26 575.996C1455.18 577.691 1457.8 585.664 1459.84 585.395Z" fill="#FFB27D"/>
<path d="M1454.95 573.261C1455.83 571.566 1456.84 571.682 1457.41 572.029C1461.19 568.793 1464.62 571.682 1464.62 571.682C1465.85 575.033 1468.78 576.497 1468.78 576.497C1468.78 576.497 1467.54 577.652 1464.12 577.498C1463.08 577.46 1462.04 576.92 1461.07 576.227C1462.84 578.153 1465 579.386 1465 579.386C1460.73 578.384 1458.03 573.3 1457.76 572.76C1457.37 573.3 1456.64 574.417 1456.53 575.38C1456.41 576.689 1456.76 579.27 1455.99 579.347C1456.03 579.347 1453.6 575.842 1454.95 573.261Z" fill="#2C3A64"/>
<path d="M1450.4 620.717L1450.98 623.105C1450.98 623.105 1464.08 621.333 1468.35 618.829C1472.63 616.326 1479.1 601.727 1479.6 595.525C1479.64 595.179 1479.64 594.87 1479.64 594.601C1479.79 589.247 1477.17 588.438 1477.17 588.438C1476.13 587.937 1474.82 589.747 1473.44 592.598C1470.55 598.53 1467.27 608.891 1465.35 611.973C1463.85 614.323 1450.4 620.717 1450.4 620.717Z" fill="#FFB27D"/>
<path d="M1473.44 592.559C1477.02 591.712 1479.68 594.601 1479.68 594.601C1479.83 589.247 1477.21 588.438 1477.21 588.438C1476.13 587.937 1474.82 589.747 1473.44 592.559Z" fill="#739AF0"/>
<path d="M1456.49 592.559C1456.49 592.559 1455.18 593.792 1454.68 596.527C1454.68 596.527 1456.6 596.527 1457.53 598.414C1457.53 598.453 1458.26 592.867 1456.49 592.559Z" fill="#739AF0"/>
<path d="M1464.08 567.406C1464.08 567.406 1468.39 562.052 1473.82 563.554C1479.25 565.057 1482.34 571.335 1484.88 570.295C1489.11 568.562 1490.31 574.263 1488.61 578.384C1487.15 582.005 1480.76 583.392 1476.87 579.424C1474.05 576.535 1470.16 564.209 1465.39 568.331C1460.61 572.452 1464.08 567.406 1464.08 567.406Z" fill="#2C3A64"/>
<path d="M1657 718.274V718.726C1657 719.425 1656.5 720 1655.89 720H685.109C684.501 720 684 719.425 684 718.726V718.274C684 717.575 684.501 717 685.109 717H1655.89C1656.5 717 1657 717.575 1657 718.274Z" fill="#233862"/>
</svg>
