<svg width="53" height="44" viewBox="0 0 53 44" fill="none" xmlns="http://www.w3.org/2000/svg">
<path d="M44.8287 7C44.1651 7.41024 39 10 34.5 10C26.5 10 26.5 15.5 24.7758 16.3579C23.0516 17.2158 22.3293 16.241 22.1193 15.3207C21.7208 13.5754 22.4333 11.8857 22.6143 11.4041C22.7953 10.9225 25.0762 6.89533 31.2827 5.43636C38.5668 3.72407 39.2185 5.73215 44.8287 4.44793C48.7532 3.54958 51.5174 0.784801 52 0C48.3805 14.5545 35.6449 17 31.2827 17C29.5438 17 27.0279 13.4097 33 12.5C38.9721 11.5903 44.3914 7.65995 44.8287 7Z" fill="url(#paint0_linear_3_480)"/>
<path d="M8.1713 37C8.83486 36.5898 14 34 18.5 34C26.5 34 26.5 28.5 28.2242 27.6421C29.9484 26.7842 30.6707 27.759 30.8807 28.6793C31.2792 30.4246 30.5667 32.1143 30.3857 32.5959C30.2047 33.0775 27.9238 37.1047 21.7173 38.5636C14.4332 40.2759 13.7815 38.2678 8.1713 39.5521C4.2468 40.4504 1.48259 43.2152 1 44C4.61947 29.4455 17.3551 27 21.7173 27C23.4562 27 25.9721 30.5903 20 31.5C14.0279 32.4097 8.60865 36.3401 8.1713 37Z" fill="url(#paint1_linear_3_480)"/>
<path d="M26.5 23.8704C0 23.8704 0.59417 31.9568 0 36C0 22.3968 13.6659 20.1296 26.5 20.1296C53 20.1296 52.4058 12.0432 53 8C53 21.6032 39.3341 23.8704 26.5 23.8704Z" fill="url(#paint2_linear_3_480)"/>
<defs>
<linearGradient id="paint0_linear_3_480" x1="0" y1="40.5853" x2="51.3377" y2="1.2937" gradientUnits="userSpaceOnUse">
<stop stop-color="#77C21C"/>
<stop offset="1" stop-color="#A4D940"/>
</linearGradient>
<linearGradient id="paint1_linear_3_480" x1="0" y1="40.5853" x2="51.3377" y2="1.2937" gradientUnits="userSpaceOnUse">
<stop stop-color="#77C21C"/>
<stop offset="1" stop-color="#A4D940"/>
</linearGradient>
<linearGradient id="paint2_linear_3_480" x1="0" y1="40.5853" x2="51.3377" y2="1.2937" gradientUnits="userSpaceOnUse">
<stop stop-color="#77C21C"/>
<stop offset="1" stop-color="#A4D940"/>
</linearGradient>
</defs>
</svg>
