<svg width="138" height="24" viewBox="0 0 138 24" fill="none" xmlns="http://www.w3.org/2000/svg">
<path d="M0 23.5353L5.50206 0.531121H20.5167L19.4561 4.78008H9.61203L8.55139 9.42739H17.2354L16.2079 13.61H7.5239L6.1981 19.2531H16.8045L15.7438 23.5353H0Z" fill="url(#paint0_linear_67_11268)"/>
<path d="M37.5449 22.5394C36.639 22.982 35.6336 23.3361 34.5287 23.6017C33.4239 23.8672 32.076 24 30.485 24C29.1151 24 27.8555 23.7787 26.7065 23.3361C25.5796 22.8714 24.6073 22.2185 23.7898 21.3776C22.9943 20.5367 22.3756 19.5187 21.9337 18.3237C21.4917 17.1065 21.2708 15.7455 21.2708 14.2407C21.2708 12.5145 21.5691 10.7994 22.1657 9.09544C22.7844 7.39142 23.6793 5.87552 24.8504 4.54772C26.0436 3.19779 27.491 2.10235 29.1924 1.26141C30.9159 0.420471 32.8936 0 35.1253 0C36.186 0 37.2245 0.121716 38.241 0.365147C39.2795 0.608577 40.3622 1.04011 41.4892 1.65975L39.633 5.67635C38.705 5.18949 37.8764 4.85754 37.1472 4.6805C36.418 4.50346 35.6336 4.41494 34.7939 4.41494C33.5344 4.41494 32.3964 4.66943 31.38 5.17842C30.3856 5.68741 29.5238 6.38451 28.7947 7.26971C28.0876 8.13278 27.5462 9.1397 27.1706 10.2905C26.7949 11.4412 26.6071 12.6584 26.6071 13.9419C26.6071 15.8894 27.0269 17.3057 27.8666 18.1909C28.7284 19.0761 29.9547 19.5187 31.5457 19.5187C32.6063 19.5187 33.5786 19.408 34.4624 19.1867C35.3684 18.9654 36.2081 18.6777 36.9814 18.3237L37.5449 22.5394Z" fill="url(#paint1_linear_67_11268)"/>
<path d="M54.2554 4.44813C53.2389 4.44813 52.2888 4.71369 51.4049 5.24481C50.5432 5.77593 49.7808 6.48409 49.1179 7.36929C48.4771 8.25449 47.9689 9.27248 47.5933 10.4232C47.2397 11.574 47.0629 12.758 47.0629 13.9751C47.0629 15.6349 47.4054 16.9848 48.0904 18.0249C48.7975 19.0429 49.9355 19.5519 51.5044 19.5519C52.5208 19.5519 53.4599 19.2863 54.3217 18.7552C55.2056 18.2241 55.9679 17.5159 56.6087 16.6307C57.2716 15.7455 57.7798 14.7386 58.1333 13.61C58.509 12.4592 58.6968 11.2642 58.6968 10.0249C58.6968 8.36515 58.3433 7.02628 57.6362 6.0083C56.9512 4.96819 55.8242 4.44813 54.2554 4.44813ZM50.974 24C49.6261 24 48.3887 23.7787 47.2618 23.3361C46.1349 22.8935 45.1626 22.2628 44.3451 21.444C43.5275 20.603 42.8867 19.5851 42.4227 18.39C41.9807 17.195 41.7598 15.8451 41.7598 14.3403C41.7598 12.6141 42.0581 10.899 42.6547 9.19502C43.2513 7.49101 44.102 5.96404 45.2068 4.61411C46.3338 3.24205 47.7037 2.13555 49.3168 1.29461C50.9299 0.431536 52.7528 0 54.7857 0C56.1336 0 57.371 0.2213 58.4979 0.663901C59.6249 1.1065 60.5971 1.74827 61.4147 2.58921C62.2323 3.40802 62.862 4.41494 63.304 5.60996C63.768 6.80498 64 8.15491 64 9.65975C64 11.3859 63.7017 13.112 63.1051 14.8382C62.5306 16.5422 61.6799 18.0802 60.5529 19.4523C59.4481 20.8022 58.0892 21.8977 56.4761 22.7386C54.863 23.5795 53.029 24 50.974 24Z" fill="url(#paint2_linear_67_11268)"/>
<path d="M80.4122 21.1948L79.7648 24H66L71.6558 0H74.9608L69.9523 21.1948H80.4122Z" fill="black"/>
<path d="M91.3244 0H94.6293L88.9735 24H85.6686L91.3244 0Z" fill="black"/>
<path d="M109.849 24C109.44 22.6609 108.952 21.1371 108.384 19.4286C107.816 17.7201 107.191 15.9885 106.51 14.2338C105.851 12.4791 105.17 10.7821 104.466 9.14286C103.761 7.48052 103.069 6.03752 102.387 4.81385L97.8557 24H94.619L100.275 0H103.103C103.83 1.24675 104.568 2.66666 105.317 4.25974C106.09 5.82972 106.816 7.44589 107.498 9.10823C108.202 10.7706 108.849 12.3983 109.44 13.9913C110.031 15.5844 110.519 17.0159 110.905 18.2857L115.13 0H118.367L112.745 24H109.849Z" fill="black"/>
<path d="M118.409 24L124.065 0H138L137.353 2.80519H126.688L124.985 10.0433H134.457L133.809 12.7792H124.371L122.361 21.1948H133.809L133.162 24H118.409Z" fill="black"/>
<defs>
<linearGradient id="paint0_linear_67_11268" x1="0" y1="24" x2="32.303" y2="-22.1747" gradientUnits="userSpaceOnUse">
<stop stop-color="#77C21C"/>
<stop offset="1" stop-color="#A4D940"/>
</linearGradient>
<linearGradient id="paint1_linear_67_11268" x1="0" y1="24" x2="32.303" y2="-22.1747" gradientUnits="userSpaceOnUse">
<stop stop-color="#77C21C"/>
<stop offset="1" stop-color="#A4D940"/>
</linearGradient>
<linearGradient id="paint2_linear_67_11268" x1="0" y1="24" x2="32.303" y2="-22.1747" gradientUnits="userSpaceOnUse">
<stop stop-color="#77C21C"/>
<stop offset="1" stop-color="#A4D940"/>
</linearGradient>
</defs>
</svg>
